<svg xmlns="http://www.w3.org/2000/svg" xmlns:xlink="http://www.w3.org/1999/xlink" contentStyleType="text/css" data-diagram-type="ACTIVITY" height="727px" preserveAspectRatio="none" style="width:621px;height:727px;background:#FFFFFF;" version="1.1" viewBox="0 0 621 727" width="621px" zoomAndPan="magnify"><title>Mentor Request Handling - Approve Request</title><defs/><g><g class="title" data-source-line="1"><text fill="#000000" font-family="sans-serif" font-size="14" font-weight="bold" lengthAdjust="spacing" textLength="353.1172" x="132.834" y="32.9951">Mentor Request Handling - Approve Request</text></g><ellipse cx="399.9246" cy="57.2969" fill="#222222" rx="10" ry="10" style="stroke:#222222;stroke-width:1;"/><rect fill="#F1F1F1" height="33.9688" rx="12.5" ry="12.5" style="stroke:#181818;stroke-width:0.5;" width="186.7344" x="306.5574" y="87.2969"/><text fill="#000000" font-family="sans-serif" font-size="12" lengthAdjust="spacing" textLength="166.7344" x="316.5574" y="108.4355">Mentor nh&#7845;n v&#224;o th&#244;ng b&#225;o</text><rect fill="#F1F1F1" height="33.9688" rx="12.5" ry="12.5" style="stroke:#181818;stroke-width:0.5;" width="163.373" x="318.238" y="141.2656"/><text fill="#000000" font-family="sans-serif" font-size="12" lengthAdjust="spacing" textLength="143.373" x="328.238" y="162.4043">Hi&#7875;n th&#7883; chi ti&#7871;t y&#234;u c&#7847;u</text><rect fill="#F1F1F1" height="33.9688" rx="12.5" ry="12.5" style="stroke:#181818;stroke-width:0.5;" width="153.9395" x="322.9548" y="195.2344"/><text fill="#000000" font-family="sans-serif" font-size="12" lengthAdjust="spacing" textLength="133.9395" x="332.9548" y="216.373">Mentor nh&#7845;n "&#272;&#7891;ng &#253;"</text><rect fill="#F1F1F1" height="33.9688" rx="12.5" ry="12.5" style="stroke:#181818;stroke-width:0.5;" width="268.291" x="265.7791" y="249.2031"/><text fill="#000000" font-family="sans-serif" font-size="12" lengthAdjust="spacing" textLength="248.291" x="275.7791" y="270.3418">X&#225;c minh phi&#234;n v&#224; quy&#7873;n s&#7903; h&#7919;u y&#234;u c&#7847;u</text><polygon fill="#F1F1F1" points="379.3533,303.1719,420.4958,303.1719,432.4958,315.1719,420.4958,327.1719,379.3533,327.1719,367.3533,315.1719,379.3533,303.1719" style="stroke:#181818;stroke-width:0.5;"/><text fill="#000000" font-family="sans-serif" font-size="11" lengthAdjust="spacing" textLength="41.1426" x="379.3533" y="318.98">H&#7907;p l&#7879;?</text><text fill="#000000" font-family="sans-serif" font-size="11" lengthAdjust="spacing" textLength="19.0083" x="348.345" y="312.5776">yes</text><text fill="#000000" font-family="sans-serif" font-size="11" lengthAdjust="spacing" textLength="13.7017" x="432.4958" y="312.5776">no</text><rect fill="#F1F1F1" height="33.9688" rx="12.5" ry="12.5" style="stroke:#181818;stroke-width:0.5;" width="190.1328" x="156.8755" y="337.1719"/><text fill="#000000" font-family="sans-serif" font-size="12" lengthAdjust="spacing" textLength="170.1328" x="166.8755" y="358.3105">Ki&#7875;m tra dung l&#432;&#7907;ng mentor</text><polygon fill="#F1F1F1" points="226.6682,391.1406,277.2156,391.1406,289.2156,403.1406,277.2156,415.1406,226.6682,415.1406,214.6682,403.1406,226.6682,391.1406" style="stroke:#181818;stroke-width:0.5;"/><text fill="#000000" font-family="sans-serif" font-size="11" lengthAdjust="spacing" textLength="50.5474" x="226.6682" y="406.9487">C&#242;n slot?</text><text fill="#000000" font-family="sans-serif" font-size="11" lengthAdjust="spacing" textLength="19.0083" x="195.6599" y="400.5464">yes</text><text fill="#000000" font-family="sans-serif" font-size="11" lengthAdjust="spacing" textLength="13.7017" x="289.2156" y="400.5464">no</text><rect fill="#F1F1F1" height="33.9688" rx="12.5" ry="12.5" style="stroke:#181818;stroke-width:0.5;" width="243.7168" x="14.0762" y="425.1406"/><text fill="#000000" font-family="sans-serif" font-size="12" lengthAdjust="spacing" textLength="223.7168" x="24.0762" y="446.2793">C&#7853;p nh&#7853;t tr&#7841;ng th&#225;i th&#224;nh ACCEPTED</text><rect fill="#F1F1F1" height="33.9688" rx="12.5" ry="12.5" style="stroke:#181818;stroke-width:0.5;" width="215.1934" x="28.3379" y="479.1094"/><text fill="#000000" font-family="sans-serif" font-size="12" lengthAdjust="spacing" textLength="195.1934" x="38.3379" y="500.248">C&#7853;p nh&#7853;t th&#7889;ng k&#234; MentorProfile</text><rect fill="#F1F1F1" height="33.9688" rx="12.5" ry="12.5" style="stroke:#181818;stroke-width:0.5;" width="181.4375" x="45.2158" y="533.0781"/><text fill="#000000" font-family="sans-serif" font-size="12" lengthAdjust="spacing" textLength="161.4375" x="55.2158" y="554.2168">G&#7917;i th&#244;ng b&#225;o &#273;&#7871;n mentee</text><rect fill="#F1F1F1" height="33.9688" rx="12.5" ry="12.5" style="stroke:#181818;stroke-width:0.5;" width="249.8691" x="11" y="587.0469"/><text fill="#000000" font-family="sans-serif" font-size="12" lengthAdjust="spacing" textLength="229.8691" x="21" y="608.1855">X&#243;a th&#244;ng b&#225;o kh&#7887;i danh s&#225;ch mentor</text><rect fill="#F1F1F1" height="33.9688" rx="12.5" ry="12.5" style="stroke:#181818;stroke-width:0.5;" width="90.5703" x="90.6494" y="641.0156"/><text fill="#000000" font-family="sans-serif" font-size="12" lengthAdjust="spacing" textLength="70.5703" x="100.6494" y="662.1543">C&#7853;p nh&#7853;t UI</text><rect fill="#F1F1F1" height="33.9688" rx="12.5" ry="12.5" style="stroke:#181818;stroke-width:0.5;" width="174.1602" x="280.8691" y="425.1406"/><text fill="#000000" font-family="sans-serif" font-size="12" lengthAdjust="spacing" textLength="154.1602" x="290.8691" y="446.2793">Hi&#7875;n th&#7883; "&#272;&#227; &#273;&#7847;y mentee"</text><ellipse cx="367.9492" cy="490.1094" fill="none" rx="11" ry="11" style="stroke:#222222;stroke-width:1;"/><ellipse cx="367.9492" cy="490.1094" fill="#222222" rx="6" ry="6" style="stroke:#222222;stroke-width:1;"/><rect fill="#F1F1F1" height="33.9688" rx="12.5" ry="12.5" style="stroke:#181818;stroke-width:0.5;" width="125.7559" x="485.0293" y="337.1719"/><text fill="#000000" font-family="sans-serif" font-size="12" lengthAdjust="spacing" textLength="105.7559" x="495.0293" y="358.3105">Hi&#7875;n th&#7883; l&#7895;i quy&#7873;n</text><ellipse cx="547.9072" cy="402.1406" fill="none" rx="11" ry="11" style="stroke:#222222;stroke-width:1;"/><ellipse cx="547.9072" cy="402.1406" fill="#222222" rx="6" ry="6" style="stroke:#222222;stroke-width:1;"/><ellipse cx="399.9246" cy="705.9844" fill="none" rx="11" ry="11" style="stroke:#222222;stroke-width:1;"/><ellipse cx="399.9246" cy="705.9844" fill="#222222" rx="6" ry="6" style="stroke:#222222;stroke-width:1;"/><line style="stroke:#181818;stroke-width:1;" x1="399.9246" x2="399.9246" y1="67.2969" y2="87.2969"/><polygon fill="#181818" points="395.9246,77.2969,399.9246,87.2969,403.9246,77.2969,399.9246,81.2969" style="stroke:#181818;stroke-width:1;"/><line style="stroke:#181818;stroke-width:1;" x1="399.9246" x2="399.9246" y1="121.2656" y2="141.2656"/><polygon fill="#181818" points="395.9246,131.2656,399.9246,141.2656,403.9246,131.2656,399.9246,135.2656" style="stroke:#181818;stroke-width:1;"/><line style="stroke:#181818;stroke-width:1;" x1="399.9246" x2="399.9246" y1="175.2344" y2="195.2344"/><polygon fill="#181818" points="395.9246,185.2344,399.9246,195.2344,403.9246,185.2344,399.9246,189.2344" style="stroke:#181818;stroke-width:1;"/><line style="stroke:#181818;stroke-width:1;" x1="399.9246" x2="399.9246" y1="229.2031" y2="249.2031"/><polygon fill="#181818" points="395.9246,239.2031,399.9246,249.2031,403.9246,239.2031,399.9246,243.2031" style="stroke:#181818;stroke-width:1;"/><line style="stroke:#181818;stroke-width:1;" x1="135.9346" x2="135.9346" y1="459.1094" y2="479.1094"/><polygon fill="#181818" points="131.9346,469.1094,135.9346,479.1094,139.9346,469.1094,135.9346,473.1094" style="stroke:#181818;stroke-width:1;"/><line style="stroke:#181818;stroke-width:1;" x1="135.9346" x2="135.9346" y1="513.0781" y2="533.0781"/><polygon fill="#181818" points="131.9346,523.0781,135.9346,533.0781,139.9346,523.0781,135.9346,527.0781" style="stroke:#181818;stroke-width:1;"/><line style="stroke:#181818;stroke-width:1;" x1="135.9346" x2="135.9346" y1="567.0469" y2="587.0469"/><polygon fill="#181818" points="131.9346,577.0469,135.9346,587.0469,139.9346,577.0469,135.9346,581.0469" style="stroke:#181818;stroke-width:1;"/><line style="stroke:#181818;stroke-width:1;" x1="135.9346" x2="135.9346" y1="621.0156" y2="641.0156"/><polygon fill="#181818" points="131.9346,631.0156,135.9346,641.0156,139.9346,631.0156,135.9346,635.0156" style="stroke:#181818;stroke-width:1;"/><line style="stroke:#181818;stroke-width:1;" x1="367.9492" x2="367.9492" y1="459.1094" y2="479.1094"/><polygon fill="#181818" points="363.9492,469.1094,367.9492,479.1094,371.9492,469.1094,367.9492,473.1094" style="stroke:#181818;stroke-width:1;"/><line style="stroke:#181818;stroke-width:1;" x1="214.6682" x2="135.9346" y1="403.1406" y2="403.1406"/><line style="stroke:#181818;stroke-width:1;" x1="135.9346" x2="135.9346" y1="403.1406" y2="425.1406"/><polygon fill="#181818" points="131.9346,415.1406,135.9346,425.1406,139.9346,415.1406,135.9346,419.1406" style="stroke:#181818;stroke-width:1;"/><line style="stroke:#181818;stroke-width:1;" x1="289.2156" x2="367.9492" y1="403.1406" y2="403.1406"/><line style="stroke:#181818;stroke-width:1;" x1="367.9492" x2="367.9492" y1="403.1406" y2="425.1406"/><polygon fill="#181818" points="363.9492,415.1406,367.9492,425.1406,371.9492,415.1406,367.9492,419.1406" style="stroke:#181818;stroke-width:1;"/><line style="stroke:#181818;stroke-width:1;" x1="135.9346" x2="135.9346" y1="674.9844" y2="679.9844"/><line style="stroke:#181818;stroke-width:1;" x1="135.9346" x2="399.9246" y1="679.9844" y2="679.9844"/><line style="stroke:#181818;stroke-width:1;" x1="399.9246" x2="399.9246" y1="679.9844" y2="694.9844"/><polygon fill="#181818" points="395.9246,684.9844,399.9246,694.9844,403.9246,684.9844,399.9246,688.9844" style="stroke:#181818;stroke-width:1;"/><line style="stroke:#181818;stroke-width:1;" x1="251.9419" x2="251.9419" y1="371.1406" y2="391.1406"/><polygon fill="#181818" points="247.9419,381.1406,251.9419,391.1406,255.9419,381.1406,251.9419,385.1406" style="stroke:#181818;stroke-width:1;"/><line style="stroke:#181818;stroke-width:1;" x1="547.9072" x2="547.9072" y1="371.1406" y2="391.1406"/><polygon fill="#181818" points="543.9072,381.1406,547.9072,391.1406,551.9072,381.1406,547.9072,385.1406" style="stroke:#181818;stroke-width:1;"/><line style="stroke:#181818;stroke-width:1;" x1="367.3533" x2="251.9419" y1="315.1719" y2="315.1719"/><line style="stroke:#181818;stroke-width:1;" x1="251.9419" x2="251.9419" y1="315.1719" y2="337.1719"/><polygon fill="#181818" points="247.9419,327.1719,251.9419,337.1719,255.9419,327.1719,251.9419,331.1719" style="stroke:#181818;stroke-width:1;"/><line style="stroke:#181818;stroke-width:1;" x1="432.4958" x2="547.9072" y1="315.1719" y2="315.1719"/><line style="stroke:#181818;stroke-width:1;" x1="547.9072" x2="547.9072" y1="315.1719" y2="337.1719"/><polygon fill="#181818" points="543.9072,327.1719,547.9072,337.1719,551.9072,327.1719,547.9072,331.1719" style="stroke:#181818;stroke-width:1;"/><line style="stroke:#181818;stroke-width:1;" x1="399.9246" x2="399.9246" y1="283.1719" y2="303.1719"/><polygon fill="#181818" points="395.9246,293.1719,399.9246,303.1719,403.9246,293.1719,399.9246,297.1719" style="stroke:#181818;stroke-width:1;"/><!--SRC=[TP71IiD048RlUOgXf_RW2pG7AR5O4Q68Gg-nsPgbwMwQR0evYWSF7hHuy6X3aKAXAEefGJniyJtsJPniMamivX2MdVc_-NT-GOL7u8GmmGCu9UE8X08wDdCyoYvX3rg-7_09sPOC8nHs88pcHi5SbJupcCWP1-7A3zHSo8IRHhD3LNRDy59bjz1tAGYgqYy1iLn6q5Vf8ZB_KchhUvKz849-rh3OaqaVHfIvuBjKBlKK64UnoguOX2fx0cI_H1KY7K2zexAv3vxARlORE9ymgCSaR1Y0N_CujpK24TZWH3ZA-tx5TZoCj1LJT-KKIxxX58-BNOW6MIfT-ThvIY1EfGb2S0K9pVypTDsoh7Rth7rW_YT2-rCK3ULo4q0tu0FgaPBWK6KhMjuihAUuHgRjad9dJxxRbSOXukyeE3PQ2N6LRkM9ktREZueAyK82TSPBRwraYId9kRQnY3SsQh_CK72_m3273emgh0h2X1xfDj22eDM5CZ_-0000]--></g></svg>