<svg xmlns="http://www.w3.org/2000/svg" xmlns:xlink="http://www.w3.org/1999/xlink" contentStyleType="text/css" data-diagram-type="ACTIVITY" height="811px" preserveAspectRatio="none" style="width:655px;height:811px;background:#FFFFFF;" version="1.1" viewBox="0 0 655 811" width="655px" zoomAndPan="magnify"><title>Authentication Process - Login Flow</title><defs/><g><g class="title" data-source-line="1"><text fill="#000000" font-family="sans-serif" font-size="14" font-weight="bold" lengthAdjust="spacing" textLength="284.0264" x="184.3159" y="32.9951">Authentication Process - Login Flow</text></g><ellipse cx="430.9236" cy="57.2969" fill="#222222" rx="10" ry="10" style="stroke:#222222;stroke-width:1;"/><rect fill="#F1F1F1" height="33.9688" rx="12.5" ry="12.5" style="stroke:#181818;stroke-width:0.5;" width="232.4902" x="314.6785" y="87.2969"/><text fill="#000000" font-family="sans-serif" font-size="12" lengthAdjust="spacing" textLength="212.4902" x="324.6785" y="108.4355">Ng&#432;&#7901;i d&#249;ng nh&#7845;n "Sign in as [role]"</text><rect fill="#F1F1F1" height="33.9688" rx="12.5" ry="12.5" style="stroke:#181818;stroke-width:0.5;" width="221.2051" x="320.321" y="141.2656"/><text fill="#000000" font-family="sans-serif" font-size="12" lengthAdjust="spacing" textLength="201.2051" x="330.321" y="162.4043">Chuy&#7875;n h&#432;&#7899;ng &#273;&#7871;n Google OAuth</text><rect fill="#F1F1F1" height="33.9688" rx="12.5" ry="12.5" style="stroke:#181818;stroke-width:0.5;" width="329.0996" x="266.3738" y="195.2344"/><text fill="#000000" font-family="sans-serif" font-size="12" lengthAdjust="spacing" textLength="309.0996" x="276.3738" y="216.373">Ng&#432;&#7901;i d&#249;ng xem m&#224;n h&#236;nh &#273;&#7891;ng &#253; (consent screen)</text><polygon fill="#F1F1F1" points="365.834,249.2031,496.0132,249.2031,508.0132,261.2031,496.0132,273.2031,365.834,273.2031,353.834,261.2031,365.834,249.2031" style="stroke:#181818;stroke-width:0.5;"/><text fill="#000000" font-family="sans-serif" font-size="11" lengthAdjust="spacing" textLength="130.1792" x="365.834" y="265.0112">Ng&#432;&#7901;i d&#249;ng c&#7845;p quy&#7873;n?</text><text fill="#000000" font-family="sans-serif" font-size="11" lengthAdjust="spacing" textLength="19.0083" x="334.8257" y="258.6089">yes</text><text fill="#000000" font-family="sans-serif" font-size="11" lengthAdjust="spacing" textLength="13.7017" x="508.0132" y="258.6089">no</text><rect fill="#F1F1F1" height="33.9688" rx="12.5" ry="12.5" style="stroke:#181818;stroke-width:0.5;" width="225.3125" x="160.3999" y="283.2031"/><text fill="#000000" font-family="sans-serif" font-size="12" lengthAdjust="spacing" textLength="205.3125" x="170.3999" y="304.3418">Google OAuth tr&#7843; v&#7873; m&#227; &#7911;y quy&#7873;n</text><rect fill="#F1F1F1" height="33.9688" rx="12.5" ry="12.5" style="stroke:#181818;stroke-width:0.5;" width="355.8066" x="95.1528" y="337.1719"/><text fill="#000000" font-family="sans-serif" font-size="12" lengthAdjust="spacing" textLength="335.8066" x="105.1528" y="358.3105">Trao &#273;&#7893;i m&#227; &#7911;y quy&#7873;n &#273;&#7875; l&#7845;y token v&#224; h&#7891; s&#417; ng&#432;&#7901;i d&#249;ng</text><rect fill="#F1F1F1" height="33.9688" rx="12.5" ry="12.5" style="stroke:#181818;stroke-width:0.5;" width="258.3477" x="143.8823" y="391.1406"/><text fill="#000000" font-family="sans-serif" font-size="12" lengthAdjust="spacing" textLength="238.3477" x="153.8823" y="412.2793">Ki&#7875;m tra ng&#432;&#7901;i d&#249;ng trong c&#417; s&#7903; d&#7919; li&#7879;u</text><polygon fill="#F1F1F1" points="218.8914,445.1094,327.2209,445.1094,339.2209,457.1094,327.2209,469.1094,218.8914,469.1094,206.8914,457.1094,218.8914,445.1094" style="stroke:#181818;stroke-width:0.5;"/><text fill="#000000" font-family="sans-serif" font-size="11" lengthAdjust="spacing" textLength="108.3296" x="218.8914" y="460.9175">Ng&#432;&#7901;i d&#249;ng t&#7891;n t&#7841;i?</text><text fill="#000000" font-family="sans-serif" font-size="11" lengthAdjust="spacing" textLength="19.0083" x="187.8831" y="454.5151">yes</text><text fill="#000000" font-family="sans-serif" font-size="11" lengthAdjust="spacing" textLength="13.7017" x="339.2209" y="454.5151">no</text><rect fill="#F1F1F1" height="33.9688" rx="12.5" ry="12.5" style="stroke:#181818;stroke-width:0.5;" width="268.1504" x="11" y="479.1094"/><text fill="#000000" font-family="sans-serif" font-size="12" lengthAdjust="spacing" textLength="248.1504" x="21" y="500.248">C&#7853;p nh&#7853;t th&#244;ng tin ng&#432;&#7901;i d&#249;ng v&#7899;i vai tr&#242;</text><rect fill="#F1F1F1" height="33.9688" rx="12.5" ry="12.5" style="stroke:#181818;stroke-width:0.5;" width="203.7734" x="299.1504" y="479.1094"/><text fill="#000000" font-family="sans-serif" font-size="12" lengthAdjust="spacing" textLength="183.7734" x="309.1504" y="500.248">T&#7841;o ng&#432;&#7901;i d&#249;ng m&#7899;i v&#7899;i vai tr&#242;</text><polygon fill="#F1F1F1" points="273.0562,519.0781,285.0562,531.0781,273.0562,543.0781,261.0562,531.0781,273.0562,519.0781" style="stroke:#181818;stroke-width:0.5;"/><rect fill="#F1F1F1" height="33.9688" rx="12.5" ry="12.5" style="stroke:#181818;stroke-width:0.5;" width="106.373" x="219.8696" y="563.0781"/><text fill="#000000" font-family="sans-serif" font-size="12" lengthAdjust="spacing" textLength="86.373" x="229.8696" y="584.2168">T&#7841;o JWT token</text><rect fill="#F1F1F1" height="33.9688" rx="12.5" ry="12.5" style="stroke:#181818;stroke-width:0.5;" width="132.8926" x="206.6099" y="617.0469"/><text fill="#000000" font-family="sans-serif" font-size="12" lengthAdjust="spacing" textLength="112.8926" x="216.6099" y="638.1855">L&#432;u session cookie</text><rect fill="#F1F1F1" height="33.9688" rx="12.5" ry="12.5" style="stroke:#181818;stroke-width:0.5;" width="195.3418" x="175.3853" y="671.0156"/><text fill="#000000" font-family="sans-serif" font-size="12" lengthAdjust="spacing" textLength="175.3418" x="185.3853" y="692.1543">Chuy&#7875;n h&#432;&#7899;ng &#273;&#7871;n trang ch&#7911;</text><rect fill="#F1F1F1" height="33.9688" rx="12.5" ry="12.5" style="stroke:#181818;stroke-width:0.5;" width="187.4082" x="179.3521" y="724.9844"/><text fill="#000000" font-family="sans-serif" font-size="12" lengthAdjust="spacing" textLength="167.4082" x="189.3521" y="746.123">Hi&#7875;n th&#7883; trang ch&#7911; v&#7899;i phi&#234;n</text><rect fill="#F1F1F1" height="33.9688" rx="12.5" ry="12.5" style="stroke:#181818;stroke-width:0.5;" width="111.7344" x="532.9238" y="283.2031"/><text fill="#000000" font-family="sans-serif" font-size="12" lengthAdjust="spacing" textLength="91.7344" x="542.9238" y="304.3418">H&#7911;y &#273;&#259;ng nh&#7853;p</text><ellipse cx="588.791" cy="348.1719" fill="none" rx="11" ry="11" style="stroke:#222222;stroke-width:1;"/><ellipse cx="588.791" cy="348.1719" fill="#222222" rx="6" ry="6" style="stroke:#222222;stroke-width:1;"/><ellipse cx="430.9236" cy="789.9531" fill="none" rx="11" ry="11" style="stroke:#222222;stroke-width:1;"/><ellipse cx="430.9236" cy="789.9531" fill="#222222" rx="6" ry="6" style="stroke:#222222;stroke-width:1;"/><line style="stroke:#181818;stroke-width:1;" x1="430.9236" x2="430.9236" y1="67.2969" y2="87.2969"/><polygon fill="#181818" points="426.9236,77.2969,430.9236,87.2969,434.9236,77.2969,430.9236,81.2969" style="stroke:#181818;stroke-width:1;"/><line style="stroke:#181818;stroke-width:1;" x1="430.9236" x2="430.9236" y1="121.2656" y2="141.2656"/><polygon fill="#181818" points="426.9236,131.2656,430.9236,141.2656,434.9236,131.2656,430.9236,135.2656" style="stroke:#181818;stroke-width:1;"/><line style="stroke:#181818;stroke-width:1;" x1="430.9236" x2="430.9236" y1="175.2344" y2="195.2344"/><polygon fill="#181818" points="426.9236,185.2344,430.9236,195.2344,434.9236,185.2344,430.9236,189.2344" style="stroke:#181818;stroke-width:1;"/><line style="stroke:#181818;stroke-width:1;" x1="273.0562" x2="273.0562" y1="317.1719" y2="337.1719"/><polygon fill="#181818" points="269.0562,327.1719,273.0562,337.1719,277.0562,327.1719,273.0562,331.1719" style="stroke:#181818;stroke-width:1;"/><line style="stroke:#181818;stroke-width:1;" x1="273.0562" x2="273.0562" y1="371.1406" y2="391.1406"/><polygon fill="#181818" points="269.0562,381.1406,273.0562,391.1406,277.0562,381.1406,273.0562,385.1406" style="stroke:#181818;stroke-width:1;"/><line style="stroke:#181818;stroke-width:1;" x1="206.8914" x2="145.0752" y1="457.1094" y2="457.1094"/><line style="stroke:#181818;stroke-width:1;" x1="145.0752" x2="145.0752" y1="457.1094" y2="479.1094"/><polygon fill="#181818" points="141.0752,469.1094,145.0752,479.1094,149.0752,469.1094,145.0752,473.1094" style="stroke:#181818;stroke-width:1;"/><line style="stroke:#181818;stroke-width:1;" x1="339.2209" x2="401.0371" y1="457.1094" y2="457.1094"/><line style="stroke:#181818;stroke-width:1;" x1="401.0371" x2="401.0371" y1="457.1094" y2="479.1094"/><polygon fill="#181818" points="397.0371,469.1094,401.0371,479.1094,405.0371,469.1094,401.0371,473.1094" style="stroke:#181818;stroke-width:1;"/><line style="stroke:#181818;stroke-width:1;" x1="145.0752" x2="145.0752" y1="513.0781" y2="531.0781"/><line style="stroke:#181818;stroke-width:1;" x1="145.0752" x2="261.0562" y1="531.0781" y2="531.0781"/><polygon fill="#181818" points="251.0562,527.0781,261.0562,531.0781,251.0562,535.0781,255.0562,531.0781" style="stroke:#181818;stroke-width:1;"/><line style="stroke:#181818;stroke-width:1;" x1="401.0371" x2="401.0371" y1="513.0781" y2="531.0781"/><line style="stroke:#181818;stroke-width:1;" x1="401.0371" x2="285.0562" y1="531.0781" y2="531.0781"/><polygon fill="#181818" points="295.0562,527.0781,285.0562,531.0781,295.0562,535.0781,291.0562,531.0781" style="stroke:#181818;stroke-width:1;"/><line style="stroke:#181818;stroke-width:1;" x1="273.0562" x2="273.0562" y1="425.1094" y2="445.1094"/><polygon fill="#181818" points="269.0562,435.1094,273.0562,445.1094,277.0562,435.1094,273.0562,439.1094" style="stroke:#181818;stroke-width:1;"/><line style="stroke:#181818;stroke-width:1;" x1="273.0562" x2="273.0562" y1="543.0781" y2="563.0781"/><polygon fill="#181818" points="269.0562,553.0781,273.0562,563.0781,277.0562,553.0781,273.0562,557.0781" style="stroke:#181818;stroke-width:1;"/><line style="stroke:#181818;stroke-width:1;" x1="273.0562" x2="273.0562" y1="597.0469" y2="617.0469"/><polygon fill="#181818" points="269.0562,607.0469,273.0562,617.0469,277.0562,607.0469,273.0562,611.0469" style="stroke:#181818;stroke-width:1;"/><line style="stroke:#181818;stroke-width:1;" x1="273.0562" x2="273.0562" y1="651.0156" y2="671.0156"/><polygon fill="#181818" points="269.0562,661.0156,273.0562,671.0156,277.0562,661.0156,273.0562,665.0156" style="stroke:#181818;stroke-width:1;"/><line style="stroke:#181818;stroke-width:1;" x1="273.0562" x2="273.0562" y1="704.9844" y2="724.9844"/><polygon fill="#181818" points="269.0562,714.9844,273.0562,724.9844,277.0562,714.9844,273.0562,718.9844" style="stroke:#181818;stroke-width:1;"/><line style="stroke:#181818;stroke-width:1;" x1="588.791" x2="588.791" y1="317.1719" y2="337.1719"/><polygon fill="#181818" points="584.791,327.1719,588.791,337.1719,592.791,327.1719,588.791,331.1719" style="stroke:#181818;stroke-width:1;"/><line style="stroke:#181818;stroke-width:1;" x1="353.834" x2="273.0562" y1="261.2031" y2="261.2031"/><line style="stroke:#181818;stroke-width:1;" x1="273.0562" x2="273.0562" y1="261.2031" y2="283.2031"/><polygon fill="#181818" points="269.0562,273.2031,273.0562,283.2031,277.0562,273.2031,273.0562,277.2031" style="stroke:#181818;stroke-width:1;"/><line style="stroke:#181818;stroke-width:1;" x1="508.0132" x2="588.791" y1="261.2031" y2="261.2031"/><line style="stroke:#181818;stroke-width:1;" x1="588.791" x2="588.791" y1="261.2031" y2="283.2031"/><polygon fill="#181818" points="584.791,273.2031,588.791,283.2031,592.791,273.2031,588.791,277.2031" style="stroke:#181818;stroke-width:1;"/><line style="stroke:#181818;stroke-width:1;" x1="273.0562" x2="273.0562" y1="758.9531" y2="763.9531"/><line style="stroke:#181818;stroke-width:1;" x1="273.0562" x2="430.9236" y1="763.9531" y2="763.9531"/><line style="stroke:#181818;stroke-width:1;" x1="430.9236" x2="430.9236" y1="763.9531" y2="778.9531"/><polygon fill="#181818" points="426.9236,768.9531,430.9236,778.9531,434.9236,768.9531,430.9236,772.9531" style="stroke:#181818;stroke-width:1;"/><line style="stroke:#181818;stroke-width:1;" x1="430.9236" x2="430.9236" y1="229.2031" y2="249.2031"/><polygon fill="#181818" points="426.9236,239.2031,430.9236,249.2031,434.9236,239.2031,430.9236,243.2031" style="stroke:#181818;stroke-width:1;"/><!--SRC=[TL9DIyD05BpdLmoUseD_e3s822egAbZm81v2kYQBwMxCRgizIWyUF8bu4b4H4SHY4IycY8UK_e_z9xvD8lJB79RmTkRDlDcdkGuPbjiwO49ppzLS2kp6qcDAOH5RqkS2gw4yTHobtLWxjMr_D33f7KSp-n8-H62IPu65FUuB4DPLE8Xbo0uNwavj9MXtJTeJ22pdbk33AvFy2An9wPFkZXMkp_GyOosqiWUYPMyYi9pqcihPDogU58gSGdanOw9QT_WHAbDqZnn5EB7IvsAf2ZiRAbscgWxegusBGyScUKA7e2Jv19E-TF-ezGBUY5sPUxZXCv2ytaD8YbreUKn2dUm10Hc66Zr2J3Wh6svouhH8sPswfvAq_eceJ7gFfadV4HBwebrGvmohRJPq9ezyTjHSRiKa_IX_fxucGFPfMVHIKzeKmIr7n-Na8liez5Ye62f2ZdLha9ASvhOAxhmEeicFd37cndwZ2AeCOsiqQ4FHjjd5ywGyvgoy-NTvA3YR4eNyKaBNUGxKLBeSloujHG7FNabmSfpQUlwImwjXhzpZVbJqKrf6Jk7S_lu2]--></g></svg>