<svg xmlns="http://www.w3.org/2000/svg" xmlns:xlink="http://www.w3.org/1999/xlink" contentStyleType="text/css" data-diagram-type="ACTIVITY" height="976px" preserveAspectRatio="none" style="width:700px;height:976px;background:#FFFFFF;" version="1.1" viewBox="0 0 700 976" width="700px" zoomAndPan="magnify"><title>AI Chatbot Interaction - Streaming Chat</title><defs/><g><g class="title" data-source-line="1"><text fill="#000000" font-family="sans-serif" font-size="14" font-weight="bold" lengthAdjust="spacing" textLength="314.4053" x="191.4214" y="32.9951">AI Chatbot Interaction - Streaming Chat</text></g><ellipse cx="462.2749" cy="57.2969" fill="#222222" rx="10" ry="10" style="stroke:#222222;stroke-width:1;"/><rect fill="#F1F1F1" height="33.9688" rx="12.5" ry="12.5" style="stroke:#181818;stroke-width:0.5;" width="170.5977" x="376.9761" y="87.2969"/><text fill="#000000" font-family="sans-serif" font-size="12" lengthAdjust="spacing" textLength="150.5977" x="386.9761" y="108.4355">Ng&#432;&#7901;i d&#249;ng nh&#7853;p c&#226;u h&#7887;i</text><rect fill="#F1F1F1" height="33.9688" rx="12.5" ry="12.5" style="stroke:#181818;stroke-width:0.5;" width="145.4902" x="389.5298" y="141.2656"/><text fill="#000000" font-family="sans-serif" font-size="12" lengthAdjust="spacing" textLength="125.4902" x="399.5298" y="162.4043">Ng&#432;&#7901;i d&#249;ng nh&#7845;n g&#7917;i</text><rect fill="#F1F1F1" height="33.9688" rx="12.5" ry="12.5" style="stroke:#181818;stroke-width:0.5;" width="116.7559" x="403.897" y="195.2344"/><text fill="#000000" font-family="sans-serif" font-size="12" lengthAdjust="spacing" textLength="96.7559" x="413.897" y="216.373">Validate c&#226;u h&#7887;i</text><polygon fill="#F1F1F1" points="419.7815,249.2031,504.7683,249.2031,516.7683,261.2031,504.7683,273.2031,419.7815,273.2031,407.7815,261.2031,419.7815,249.2031" style="stroke:#181818;stroke-width:0.5;"/><text fill="#000000" font-family="sans-serif" font-size="11" lengthAdjust="spacing" textLength="84.9868" x="419.7815" y="265.0112">C&#226;u h&#7887;i h&#7907;p l&#7879;?</text><text fill="#000000" font-family="sans-serif" font-size="11" lengthAdjust="spacing" textLength="19.0083" x="388.7732" y="258.6089">yes</text><text fill="#000000" font-family="sans-serif" font-size="11" lengthAdjust="spacing" textLength="13.7017" x="516.7683" y="258.6089">no</text><rect fill="#F1F1F1" height="33.9688" rx="12.5" ry="12.5" style="stroke:#181818;stroke-width:0.5;" width="185.1582" x="214.7705" y="283.2031"/><text fill="#000000" font-family="sans-serif" font-size="12" lengthAdjust="spacing" textLength="165.1582" x="224.7705" y="304.3418">X&#225;c minh phi&#234;n ng&#432;&#7901;i d&#249;ng</text><polygon fill="#F1F1F1" points="270.4797,337.1719,344.2195,337.1719,356.2195,349.1719,344.2195,361.1719,270.4797,361.1719,258.4797,349.1719,270.4797,337.1719" style="stroke:#181818;stroke-width:0.5;"/><text fill="#000000" font-family="sans-serif" font-size="11" lengthAdjust="spacing" textLength="73.7397" x="270.4797" y="352.98">Phi&#234;n h&#7907;p l&#7879;?</text><text fill="#000000" font-family="sans-serif" font-size="11" lengthAdjust="spacing" textLength="19.0083" x="239.4714" y="346.5776">yes</text><text fill="#000000" font-family="sans-serif" font-size="11" lengthAdjust="spacing" textLength="13.7017" x="356.2195" y="346.5776">no</text><rect fill="#F1F1F1" height="33.9688" rx="12.5" ry="12.5" style="stroke:#181818;stroke-width:0.5;" width="139.748" x="106.4375" y="371.1719"/><text fill="#000000" font-family="sans-serif" font-size="12" lengthAdjust="spacing" textLength="119.748" x="116.4375" y="392.3105">L&#7845;y l&#7883;ch s&#7917; h&#7897;i tho&#7841;i</text><rect fill="#F1F1F1" height="33.9688" rx="12.5" ry="12.5" style="stroke:#181818;stroke-width:0.5;" width="179.668" x="86.4775" y="425.1406"/><text fill="#000000" font-family="sans-serif" font-size="12" lengthAdjust="spacing" textLength="159.668" x="96.4775" y="446.2793">T&#236;m ki&#7871;m t&#224;i li&#7879;u li&#234;n quan</text><rect fill="#F1F1F1" height="33.9688" rx="12.5" ry="12.5" style="stroke:#181818;stroke-width:0.5;" width="251.8789" x="50.3721" y="479.1094"/><text fill="#000000" font-family="sans-serif" font-size="12" lengthAdjust="spacing" textLength="231.8789" x="60.3721" y="500.248">G&#7917;i y&#234;u c&#7847;u streaming &#273;&#7871;n Gemini API</text><rect fill="#F1F1F1" height="33.9688" rx="12.5" ry="12.5" style="stroke:#181818;stroke-width:0.5;" width="205.3438" x="73.6396" y="533.0781"/><text fill="#000000" font-family="sans-serif" font-size="12" lengthAdjust="spacing" textLength="185.3438" x="83.6396" y="554.2168">B&#7855;t &#273;&#7847;u hi&#7875;n th&#7883; tin nh&#7855;n tr&#7889;ng</text><rect fill="#F1F1F1" height="33.9688" rx="12.5" ry="12.5" style="stroke:#181818;stroke-width:0.5;" width="177.1016" x="87.7607" y="642.7573"/><text fill="#000000" font-family="sans-serif" font-size="12" lengthAdjust="spacing" textLength="157.1016" x="97.7607" y="663.896">Nh&#7853;n chunk t&#7915; Gemini API</text><rect fill="#F1F1F1" height="33.9688" rx="12.5" ry="12.5" style="stroke:#181818;stroke-width:0.5;" width="211.0859" x="70.7686" y="705.8237"/><text fill="#000000" font-family="sans-serif" font-size="12" lengthAdjust="spacing" textLength="191.0859" x="80.7686" y="726.9624">C&#7853;p nh&#7853;t tin nh&#7855;n &#273;ang hi&#7875;n th&#7883;</text><polygon fill="#F1F1F1" points="122.0635,587.0469,230.5596,587.0469,242.5596,599.0469,230.5596,611.0469,122.0635,611.0469,110.0635,599.0469,122.0635,587.0469" style="stroke:#181818;stroke-width:0.5;"/><text fill="#000000" font-family="sans-serif" font-size="11" lengthAdjust="spacing" textLength="19.0083" x="180.3115" y="621.2573">yes</text><text fill="#000000" font-family="sans-serif" font-size="11" lengthAdjust="spacing" textLength="108.4961" x="122.0635" y="602.855">C&#243; chunk ph&#7843;n h&#7891;i?</text><rect fill="#F1F1F1" height="33.9688" rx="12.5" ry="12.5" style="stroke:#181818;stroke-width:0.5;" width="330.623" x="11" y="781.7925"/><text fill="#000000" font-family="sans-serif" font-size="12" lengthAdjust="spacing" textLength="310.623" x="21" y="802.9312">L&#432;u tin nh&#7855;n ng&#432;&#7901;i d&#249;ng v&#224; tr&#7907; l&#253; (sau khi ho&#224;n t&#7845;t)</text><rect fill="#F1F1F1" height="33.9688" rx="12.5" ry="12.5" style="stroke:#181818;stroke-width:0.5;" width="234.9629" x="58.8301" y="835.7612"/><text fill="#000000" font-family="sans-serif" font-size="12" lengthAdjust="spacing" textLength="214.9629" x="68.8301" y="856.8999">G&#7917;i th&#244;ng b&#225;o ho&#224;n t&#7845;t (done: true)</text><rect fill="#F1F1F1" height="33.9688" rx="12.5" ry="12.5" style="stroke:#181818;stroke-width:0.5;" width="257.375" x="47.624" y="889.73"/><text fill="#000000" font-family="sans-serif" font-size="12" lengthAdjust="spacing" textLength="237.375" x="57.624" y="910.8687">C&#7853;p nh&#7853;t giao di&#7879;n tin nh&#7855;n ho&#224;n ch&#7881;nh</text><rect fill="#F1F1F1" height="33.9688" rx="12.5" ry="12.5" style="stroke:#181818;stroke-width:0.5;" width="153.5293" x="361.623" y="371.1719"/><text fill="#000000" font-family="sans-serif" font-size="12" lengthAdjust="spacing" textLength="133.5293" x="371.623" y="392.3105">Y&#234;u c&#7847;u &#273;&#259;ng nh&#7853;p l&#7841;i</text><ellipse cx="438.3877" cy="436.1406" fill="none" rx="11" ry="11" style="stroke:#222222;stroke-width:1;"/><ellipse cx="438.3877" cy="436.1406" fill="#222222" rx="6" ry="6" style="stroke:#222222;stroke-width:1;"/><rect fill="#F1F1F1" height="33.9688" rx="12.5" ry="12.5" style="stroke:#181818;stroke-width:0.5;" width="144.0957" x="545.1523" y="283.2031"/><text fill="#000000" font-family="sans-serif" font-size="12" lengthAdjust="spacing" textLength="124.0957" x="555.1523" y="304.3418">Hi&#7875;n th&#7883; l&#7895;i nh&#7853;p li&#7879;u</text><ellipse cx="617.2002" cy="348.1719" fill="none" rx="11" ry="11" style="stroke:#222222;stroke-width:1;"/><ellipse cx="617.2002" cy="348.1719" fill="#222222" rx="6" ry="6" style="stroke:#222222;stroke-width:1;"/><ellipse cx="462.2749" cy="954.6987" fill="none" rx="11" ry="11" style="stroke:#222222;stroke-width:1;"/><ellipse cx="462.2749" cy="954.6987" fill="#222222" rx="6" ry="6" style="stroke:#222222;stroke-width:1;"/><line style="stroke:#181818;stroke-width:1;" x1="462.2749" x2="462.2749" y1="67.2969" y2="87.2969"/><polygon fill="#181818" points="458.2749,77.2969,462.2749,87.2969,466.2749,77.2969,462.2749,81.2969" style="stroke:#181818;stroke-width:1;"/><line style="stroke:#181818;stroke-width:1;" x1="462.2749" x2="462.2749" y1="121.2656" y2="141.2656"/><polygon fill="#181818" points="458.2749,131.2656,462.2749,141.2656,466.2749,131.2656,462.2749,135.2656" style="stroke:#181818;stroke-width:1;"/><line style="stroke:#181818;stroke-width:1;" x1="462.2749" x2="462.2749" y1="175.2344" y2="195.2344"/><polygon fill="#181818" points="458.2749,185.2344,462.2749,195.2344,466.2749,185.2344,462.2749,189.2344" style="stroke:#181818;stroke-width:1;"/><line style="stroke:#181818;stroke-width:1;" x1="176.3115" x2="176.3115" y1="405.1406" y2="425.1406"/><polygon fill="#181818" points="172.3115,415.1406,176.3115,425.1406,180.3115,415.1406,176.3115,419.1406" style="stroke:#181818;stroke-width:1;"/><line style="stroke:#181818;stroke-width:1;" x1="176.3115" x2="176.3115" y1="459.1094" y2="479.1094"/><polygon fill="#181818" points="172.3115,469.1094,176.3115,479.1094,180.3115,469.1094,176.3115,473.1094" style="stroke:#181818;stroke-width:1;"/><line style="stroke:#181818;stroke-width:1;" x1="176.3115" x2="176.3115" y1="513.0781" y2="533.0781"/><polygon fill="#181818" points="172.3115,523.0781,176.3115,533.0781,180.3115,523.0781,176.3115,527.0781" style="stroke:#181818;stroke-width:1;"/><line style="stroke:#181818;stroke-width:1;" x1="176.3115" x2="176.3115" y1="676.7261" y2="705.8237"/><polygon fill="#181818" points="172.3115,695.8237,176.3115,705.8237,180.3115,695.8237,176.3115,699.8237" style="stroke:#181818;stroke-width:1;"/><line style="stroke:#181818;stroke-width:1;" x1="176.3115" x2="176.3115" y1="611.0469" y2="642.7573"/><polygon fill="#181818" points="172.3115,632.7573,176.3115,642.7573,180.3115,632.7573,176.3115,636.7573" style="stroke:#181818;stroke-width:1;"/><line style="stroke:#181818;stroke-width:1;" x1="176.3115" x2="176.3115" y1="739.7925" y2="749.7925"/><line style="stroke:#181818;stroke-width:1;" x1="176.3115" x2="293.8545" y1="749.7925" y2="749.7925"/><polygon fill="#181818" points="289.8545,685.8237,293.8545,675.8237,297.8545,685.8237,293.8545,681.8237" style="stroke:#181818;stroke-width:1;"/><line style="stroke:#181818;stroke-width:1;" x1="293.8545" x2="293.8545" y1="599.0469" y2="749.7925"/><line style="stroke:#181818;stroke-width:1;" x1="293.8545" x2="242.5596" y1="599.0469" y2="599.0469"/><polygon fill="#181818" points="252.5596,595.0469,242.5596,599.0469,252.5596,603.0469,248.5596,599.0469" style="stroke:#181818;stroke-width:1;"/><line style="stroke:#181818;stroke-width:1;" x1="110.0635" x2="58.7686" y1="599.0469" y2="599.0469"/><polygon fill="#181818" points="54.7686,671.8237,58.7686,681.8237,62.7686,671.8237,58.7686,675.8237" style="stroke:#181818;stroke-width:1;"/><line style="stroke:#181818;stroke-width:1;" x1="58.7686" x2="58.7686" y1="599.0469" y2="761.7925"/><line style="stroke:#181818;stroke-width:1;" x1="58.7686" x2="176.3115" y1="761.7925" y2="761.7925"/><line style="stroke:#181818;stroke-width:1;" x1="176.3115" x2="176.3115" y1="761.7925" y2="781.7925"/><polygon fill="#181818" points="172.3115,771.7925,176.3115,781.7925,180.3115,771.7925,176.3115,775.7925" style="stroke:#181818;stroke-width:1;"/><line style="stroke:#181818;stroke-width:1;" x1="176.3115" x2="176.3115" y1="567.0469" y2="587.0469"/><polygon fill="#181818" points="172.3115,577.0469,176.3115,587.0469,180.3115,577.0469,176.3115,581.0469" style="stroke:#181818;stroke-width:1;"/><line style="stroke:#181818;stroke-width:1;" x1="176.3115" x2="176.3115" y1="815.7612" y2="835.7612"/><polygon fill="#181818" points="172.3115,825.7612,176.3115,835.7612,180.3115,825.7612,176.3115,829.7612" style="stroke:#181818;stroke-width:1;"/><line style="stroke:#181818;stroke-width:1;" x1="176.3115" x2="176.3115" y1="869.73" y2="889.73"/><polygon fill="#181818" points="172.3115,879.73,176.3115,889.73,180.3115,879.73,176.3115,883.73" style="stroke:#181818;stroke-width:1;"/><line style="stroke:#181818;stroke-width:1;" x1="438.3877" x2="438.3877" y1="405.1406" y2="425.1406"/><polygon fill="#181818" points="434.3877,415.1406,438.3877,425.1406,442.3877,415.1406,438.3877,419.1406" style="stroke:#181818;stroke-width:1;"/><line style="stroke:#181818;stroke-width:1;" x1="258.4797" x2="176.3115" y1="349.1719" y2="349.1719"/><line style="stroke:#181818;stroke-width:1;" x1="176.3115" x2="176.3115" y1="349.1719" y2="371.1719"/><polygon fill="#181818" points="172.3115,361.1719,176.3115,371.1719,180.3115,361.1719,176.3115,365.1719" style="stroke:#181818;stroke-width:1;"/><line style="stroke:#181818;stroke-width:1;" x1="356.2195" x2="438.3877" y1="349.1719" y2="349.1719"/><line style="stroke:#181818;stroke-width:1;" x1="438.3877" x2="438.3877" y1="349.1719" y2="371.1719"/><polygon fill="#181818" points="434.3877,361.1719,438.3877,371.1719,442.3877,361.1719,438.3877,365.1719" style="stroke:#181818;stroke-width:1;"/><line style="stroke:#181818;stroke-width:1;" x1="176.3115" x2="176.3115" y1="923.6987" y2="928.6987"/><line style="stroke:#181818;stroke-width:1;" x1="176.3115" x2="462.2749" y1="928.6987" y2="928.6987"/><line style="stroke:#181818;stroke-width:1;" x1="462.2749" x2="462.2749" y1="928.6987" y2="943.6987"/><polygon fill="#181818" points="458.2749,933.6987,462.2749,943.6987,466.2749,933.6987,462.2749,937.6987" style="stroke:#181818;stroke-width:1;"/><line style="stroke:#181818;stroke-width:1;" x1="307.3496" x2="307.3496" y1="317.1719" y2="337.1719"/><polygon fill="#181818" points="303.3496,327.1719,307.3496,337.1719,311.3496,327.1719,307.3496,331.1719" style="stroke:#181818;stroke-width:1;"/><line style="stroke:#181818;stroke-width:1;" x1="617.2002" x2="617.2002" y1="317.1719" y2="337.1719"/><polygon fill="#181818" points="613.2002,327.1719,617.2002,337.1719,621.2002,327.1719,617.2002,331.1719" style="stroke:#181818;stroke-width:1;"/><line style="stroke:#181818;stroke-width:1;" x1="407.7815" x2="307.3496" y1="261.2031" y2="261.2031"/><line style="stroke:#181818;stroke-width:1;" x1="307.3496" x2="307.3496" y1="261.2031" y2="283.2031"/><polygon fill="#181818" points="303.3496,273.2031,307.3496,283.2031,311.3496,273.2031,307.3496,277.2031" style="stroke:#181818;stroke-width:1;"/><line style="stroke:#181818;stroke-width:1;" x1="516.7683" x2="617.2002" y1="261.2031" y2="261.2031"/><line style="stroke:#181818;stroke-width:1;" x1="617.2002" x2="617.2002" y1="261.2031" y2="283.2031"/><polygon fill="#181818" points="613.2002,273.2031,617.2002,283.2031,621.2002,273.2031,617.2002,277.2031" style="stroke:#181818;stroke-width:1;"/><line style="stroke:#181818;stroke-width:1;" x1="462.2749" x2="462.2749" y1="229.2031" y2="249.2031"/><polygon fill="#181818" points="458.2749,239.2031,462.2749,249.2031,466.2749,239.2031,462.2749,243.2031" style="stroke:#181818;stroke-width:1;"/><!--SRC=[VLEnZjD04Etz5LCc1J-G5EX8SKH2fvD02CezPoyxYZCEyHYK-Wg4A514WIYG4YA4T72waw315gBOwFvZ_uJPzP6iuOGBs-kTz_QzUMD6pZGS365W59_a34DYFLSfOqvm1nxoNAifqZZi9qd1Qiv9xsXyVUNg3mWZ-qFsoBZgOWQf_LY2SVKRxDzQyebWxEeBl_jOPJXIh5iOF8NEOBVszyqCCbU_lDi5DfgWiz15Dm6vUa_iEWKHPc1cq9uJKEkyVgZoXCVDzl_80k43qRVm1QzJ0uN8z93tABMvgzROtrS-ib-dC45N_Pe2snL2Xa9RoiCVzAnK51KVUiEmiESbfAxwN4Anw-XsAHG4XrfM20V7mmXsprMN72e4OeJ_Z4I9Y0D62isyb0zpLo__UFNN2uCIflJm6wIcf8dqnbMROFujYcyi_d8TpZhowT4DWbtzvLP9eNGGSWvnSwnakrHYADQv1seQ1LrHgw-loXZTZWwUsrMmje7C_eHEeKgO61c7tAw4N6BYxZyDPcE_2_J4hlEu43gZd7HFw4eTWre-ngXo6FaCALRLqAHYvXMP1gkpGjfBUJGsJ_V9RfVRi_tFaBMdfk1ybjoq0q-JDbFlVfompE0xtD64sMfu0aU3zw-_0G00]--></g></svg>