<svg xmlns="http://www.w3.org/2000/svg" xmlns:xlink="http://www.w3.org/1999/xlink" contentStyleType="text/css" data-diagram-type="ACTIVITY" height="753px" preserveAspectRatio="none" style="width:578px;height:753px;background:#FFFFFF;" version="1.1" viewBox="0 0 578 753" width="578px" zoomAndPan="magnify"><title>Post Management Process - Create Post Flow</title><defs/><g><g class="title" data-source-line="1"><text fill="#000000" font-family="sans-serif" font-size="14" font-weight="bold" lengthAdjust="spacing" textLength="358.3809" x="108.4492" y="32.9951">Post Management Process - Create Post Flow</text></g><ellipse cx="352.2087" cy="57.2969" fill="#222222" rx="10" ry="10" style="stroke:#222222;stroke-width:1;"/><rect fill="#F1F1F1" height="33.9688" rx="12.5" ry="12.5" style="stroke:#181818;stroke-width:0.5;" width="287.0645" x="208.6765" y="87.2969"/><text fill="#000000" font-family="sans-serif" font-size="12" lengthAdjust="spacing" textLength="267.0645" x="218.6765" y="108.4355">Ng&#432;&#7901;i d&#249;ng nh&#7853;p n&#7897;i dung v&#224; ch&#7885;n h&#236;nh &#7843;nh</text><rect fill="#F1F1F1" height="33.9688" rx="12.5" ry="12.5" style="stroke:#181818;stroke-width:0.5;" width="165.7988" x="269.3093" y="141.2656"/><text fill="#000000" font-family="sans-serif" font-size="12" lengthAdjust="spacing" textLength="145.7988" x="279.3093" y="162.4043">Validate d&#7919; li&#7879;u &#273;&#7847;u v&#224;o</text><polygon fill="#F1F1F1" points="311.144,195.2344,393.2734,195.2344,405.2734,207.2344,393.2734,219.2344,311.144,219.2344,299.144,207.2344,311.144,195.2344" style="stroke:#181818;stroke-width:0.5;"/><text fill="#000000" font-family="sans-serif" font-size="11" lengthAdjust="spacing" textLength="82.1294" x="311.144" y="211.0425">D&#7919; li&#7879;u h&#7907;p l&#7879;?</text><text fill="#000000" font-family="sans-serif" font-size="11" lengthAdjust="spacing" textLength="19.0083" x="280.1357" y="204.6401">yes</text><text fill="#000000" font-family="sans-serif" font-size="11" lengthAdjust="spacing" textLength="13.7017" x="405.2734" y="204.6401">no</text><polygon fill="#F1F1F1" points="175.9121,229.2344,247.8096,229.2344,259.8096,241.2344,247.8096,253.2344,175.9121,253.2344,163.9121,241.2344,175.9121,229.2344" style="stroke:#181818;stroke-width:0.5;"/><text fill="#000000" font-family="sans-serif" font-size="11" lengthAdjust="spacing" textLength="71.8975" x="175.9121" y="245.0425">C&#243; h&#236;nh &#7843;nh?</text><text fill="#000000" font-family="sans-serif" font-size="11" lengthAdjust="spacing" textLength="19.0083" x="144.9038" y="238.6401">yes</text><text fill="#000000" font-family="sans-serif" font-size="11" lengthAdjust="spacing" textLength="13.7017" x="259.8096" y="238.6401">no</text><rect fill="#F1F1F1" height="33.9688" rx="12.5" ry="12.5" style="stroke:#181818;stroke-width:0.5;" width="184.918" x="29.7749" y="263.2344"/><text fill="#000000" font-family="sans-serif" font-size="12" lengthAdjust="spacing" textLength="164.918" x="39.7749" y="284.373">T&#7843;i h&#236;nh &#7843;nh l&#234;n Cloudinary</text><rect fill="#F1F1F1" height="33.9688" rx="12.5" ry="12.5" style="stroke:#181818;stroke-width:0.5;" width="135.5059" x="54.481" y="332.2031"/><text fill="#000000" font-family="sans-serif" font-size="12" lengthAdjust="spacing" textLength="115.5059" x="64.481" y="353.3418">Nh&#7853;n URL h&#236;nh &#7843;nh</text><rect fill="#F1F1F1" height="33.9688" rx="12.5" ry="12.5" style="stroke:#181818;stroke-width:0.5;" width="133.5898" x="234.6929" y="263.2344"/><text fill="#000000" font-family="sans-serif" font-size="12" lengthAdjust="spacing" textLength="113.5898" x="244.6929" y="284.373">Kh&#244;ng t&#7843;i h&#236;nh &#7843;nh</text><polygon fill="#F1F1F1" points="211.8608,372.1719,223.8608,384.1719,211.8608,396.1719,199.8608,384.1719,211.8608,372.1719" style="stroke:#181818;stroke-width:0.5;"/><rect fill="#F1F1F1" height="33.9688" rx="12.5" ry="12.5" style="stroke:#181818;stroke-width:0.5;" width="189.3301" x="117.1958" y="416.1719"/><text fill="#000000" font-family="sans-serif" font-size="12" lengthAdjust="spacing" textLength="169.3301" x="127.1958" y="437.3105">G&#7917;i y&#234;u c&#7847;u POST /api/posts</text><rect fill="#F1F1F1" height="33.9688" rx="12.5" ry="12.5" style="stroke:#181818;stroke-width:0.5;" width="185.1582" x="119.2817" y="470.1406"/><text fill="#000000" font-family="sans-serif" font-size="12" lengthAdjust="spacing" textLength="165.1582" x="129.2817" y="491.2793">X&#225;c minh phi&#234;n ng&#432;&#7901;i d&#249;ng</text><polygon fill="#F1F1F1" points="174.991,524.1094,248.7307,524.1094,260.7307,536.1094,248.7307,548.1094,174.991,548.1094,162.991,536.1094,174.991,524.1094" style="stroke:#181818;stroke-width:0.5;"/><text fill="#000000" font-family="sans-serif" font-size="11" lengthAdjust="spacing" textLength="73.7397" x="174.991" y="539.9175">Phi&#234;n h&#7907;p l&#7879;?</text><text fill="#000000" font-family="sans-serif" font-size="11" lengthAdjust="spacing" textLength="19.0083" x="143.9827" y="533.5151">yes</text><text fill="#000000" font-family="sans-serif" font-size="11" lengthAdjust="spacing" textLength="13.7017" x="260.7307" y="533.5151">no</text><rect fill="#F1F1F1" height="33.9688" rx="12.5" ry="12.5" style="stroke:#181818;stroke-width:0.5;" width="203.3047" x="11" y="558.1094"/><text fill="#000000" font-family="sans-serif" font-size="12" lengthAdjust="spacing" textLength="183.3047" x="21" y="579.248">L&#432;u b&#224;i &#273;&#259;ng v&#224;o c&#417; s&#7903; d&#7919; li&#7879;u</text><rect fill="#F1F1F1" height="33.9688" rx="12.5" ry="12.5" style="stroke:#181818;stroke-width:0.5;" width="131.123" x="47.0908" y="612.0781"/><text fill="#000000" font-family="sans-serif" font-size="12" lengthAdjust="spacing" textLength="111.123" x="57.0908" y="633.2168">L&#224;m m&#7899;i giao di&#7879;n</text><rect fill="#F1F1F1" height="33.9688" rx="12.5" ry="12.5" style="stroke:#181818;stroke-width:0.5;" width="149.1113" x="38.0967" y="666.0469"/><text fill="#000000" font-family="sans-serif" font-size="12" lengthAdjust="spacing" textLength="129.1113" x="48.0967" y="687.1855">Hi&#7875;n th&#7883; b&#224;i &#273;&#259;ng m&#7899;i</text><rect fill="#F1F1F1" height="33.9688" rx="12.5" ry="12.5" style="stroke:#181818;stroke-width:0.5;" width="153.5293" x="234.3047" y="558.1094"/><text fill="#000000" font-family="sans-serif" font-size="12" lengthAdjust="spacing" textLength="133.5293" x="244.3047" y="579.248">Y&#234;u c&#7847;u &#273;&#259;ng nh&#7853;p l&#7841;i</text><ellipse cx="311.0693" cy="623.0781" fill="none" rx="11" ry="11" style="stroke:#222222;stroke-width:1;"/><ellipse cx="311.0693" cy="623.0781" fill="#222222" rx="6" ry="6" style="stroke:#222222;stroke-width:1;"/><rect fill="#F1F1F1" height="33.9688" rx="12.5" ry="12.5" style="stroke:#181818;stroke-width:0.5;" width="149.4453" x="417.834" y="229.2344"/><text fill="#000000" font-family="sans-serif" font-size="12" lengthAdjust="spacing" textLength="129.4453" x="427.834" y="250.373">Hi&#7875;n th&#7883; th&#244;ng b&#225;o l&#7895;i</text><ellipse cx="492.5566" cy="309.2031" fill="none" rx="11" ry="11" style="stroke:#222222;stroke-width:1;"/><ellipse cx="492.5566" cy="309.2031" fill="#222222" rx="6" ry="6" style="stroke:#222222;stroke-width:1;"/><ellipse cx="352.2087" cy="731.0156" fill="none" rx="11" ry="11" style="stroke:#222222;stroke-width:1;"/><ellipse cx="352.2087" cy="731.0156" fill="#222222" rx="6" ry="6" style="stroke:#222222;stroke-width:1;"/><line style="stroke:#181818;stroke-width:1;" x1="352.2087" x2="352.2087" y1="67.2969" y2="87.2969"/><polygon fill="#181818" points="348.2087,77.2969,352.2087,87.2969,356.2087,77.2969,352.2087,81.2969" style="stroke:#181818;stroke-width:1;"/><line style="stroke:#181818;stroke-width:1;" x1="352.2087" x2="352.2087" y1="121.2656" y2="141.2656"/><polygon fill="#181818" points="348.2087,131.2656,352.2087,141.2656,356.2087,131.2656,352.2087,135.2656" style="stroke:#181818;stroke-width:1;"/><line style="stroke:#181818;stroke-width:1;" x1="122.2339" x2="122.2339" y1="297.2031" y2="332.2031"/><polygon fill="#181818" points="118.2339,322.2031,122.2339,332.2031,126.2339,322.2031,122.2339,326.2031" style="stroke:#181818;stroke-width:1;"/><line style="stroke:#181818;stroke-width:1;" x1="163.9121" x2="122.2339" y1="241.2344" y2="241.2344"/><line style="stroke:#181818;stroke-width:1;" x1="122.2339" x2="122.2339" y1="241.2344" y2="263.2344"/><polygon fill="#181818" points="118.2339,253.2344,122.2339,263.2344,126.2339,253.2344,122.2339,257.2344" style="stroke:#181818;stroke-width:1;"/><line style="stroke:#181818;stroke-width:1;" x1="259.8096" x2="301.4878" y1="241.2344" y2="241.2344"/><line style="stroke:#181818;stroke-width:1;" x1="301.4878" x2="301.4878" y1="241.2344" y2="263.2344"/><polygon fill="#181818" points="297.4878,253.2344,301.4878,263.2344,305.4878,253.2344,301.4878,257.2344" style="stroke:#181818;stroke-width:1;"/><line style="stroke:#181818;stroke-width:1;" x1="122.2339" x2="122.2339" y1="366.1719" y2="384.1719"/><line style="stroke:#181818;stroke-width:1;" x1="122.2339" x2="199.8608" y1="384.1719" y2="384.1719"/><polygon fill="#181818" points="189.8608,380.1719,199.8608,384.1719,189.8608,388.1719,193.8608,384.1719" style="stroke:#181818;stroke-width:1;"/><line style="stroke:#181818;stroke-width:1;" x1="301.4878" x2="301.4878" y1="297.2031" y2="384.1719"/><line style="stroke:#181818;stroke-width:1;" x1="301.4878" x2="223.8608" y1="384.1719" y2="384.1719"/><polygon fill="#181818" points="233.8608,380.1719,223.8608,384.1719,233.8608,388.1719,229.8608,384.1719" style="stroke:#181818;stroke-width:1;"/><line style="stroke:#181818;stroke-width:1;" x1="211.8608" x2="211.8608" y1="396.1719" y2="416.1719"/><polygon fill="#181818" points="207.8608,406.1719,211.8608,416.1719,215.8608,406.1719,211.8608,410.1719" style="stroke:#181818;stroke-width:1;"/><line style="stroke:#181818;stroke-width:1;" x1="211.8608" x2="211.8608" y1="450.1406" y2="470.1406"/><polygon fill="#181818" points="207.8608,460.1406,211.8608,470.1406,215.8608,460.1406,211.8608,464.1406" style="stroke:#181818;stroke-width:1;"/><line style="stroke:#181818;stroke-width:1;" x1="112.6523" x2="112.6523" y1="592.0781" y2="612.0781"/><polygon fill="#181818" points="108.6523,602.0781,112.6523,612.0781,116.6523,602.0781,112.6523,606.0781" style="stroke:#181818;stroke-width:1;"/><line style="stroke:#181818;stroke-width:1;" x1="112.6523" x2="112.6523" y1="646.0469" y2="666.0469"/><polygon fill="#181818" points="108.6523,656.0469,112.6523,666.0469,116.6523,656.0469,112.6523,660.0469" style="stroke:#181818;stroke-width:1;"/><line style="stroke:#181818;stroke-width:1;" x1="311.0693" x2="311.0693" y1="592.0781" y2="612.0781"/><polygon fill="#181818" points="307.0693,602.0781,311.0693,612.0781,315.0693,602.0781,311.0693,606.0781" style="stroke:#181818;stroke-width:1;"/><line style="stroke:#181818;stroke-width:1;" x1="162.991" x2="112.6523" y1="536.1094" y2="536.1094"/><line style="stroke:#181818;stroke-width:1;" x1="112.6523" x2="112.6523" y1="536.1094" y2="558.1094"/><polygon fill="#181818" points="108.6523,548.1094,112.6523,558.1094,116.6523,548.1094,112.6523,552.1094" style="stroke:#181818;stroke-width:1;"/><line style="stroke:#181818;stroke-width:1;" x1="260.7307" x2="311.0693" y1="536.1094" y2="536.1094"/><line style="stroke:#181818;stroke-width:1;" x1="311.0693" x2="311.0693" y1="536.1094" y2="558.1094"/><polygon fill="#181818" points="307.0693,548.1094,311.0693,558.1094,315.0693,548.1094,311.0693,552.1094" style="stroke:#181818;stroke-width:1;"/><line style="stroke:#181818;stroke-width:1;" x1="112.6523" x2="112.6523" y1="700.0156" y2="705.0156"/><line style="stroke:#181818;stroke-width:1;" x1="112.6523" x2="352.2087" y1="705.0156" y2="705.0156"/><line style="stroke:#181818;stroke-width:1;" x1="352.2087" x2="352.2087" y1="705.0156" y2="720.0156"/><polygon fill="#181818" points="348.2087,710.0156,352.2087,720.0156,356.2087,710.0156,352.2087,714.0156" style="stroke:#181818;stroke-width:1;"/><line style="stroke:#181818;stroke-width:1;" x1="211.8608" x2="211.8608" y1="504.1094" y2="524.1094"/><polygon fill="#181818" points="207.8608,514.1094,211.8608,524.1094,215.8608,514.1094,211.8608,518.1094" style="stroke:#181818;stroke-width:1;"/><line style="stroke:#181818;stroke-width:1;" x1="492.5566" x2="492.5566" y1="263.2031" y2="298.2031"/><polygon fill="#181818" points="488.5566,288.2031,492.5566,298.2031,496.5566,288.2031,492.5566,292.2031" style="stroke:#181818;stroke-width:1;"/><line style="stroke:#181818;stroke-width:1;" x1="299.144" x2="211.8608" y1="207.2344" y2="207.2344"/><line style="stroke:#181818;stroke-width:1;" x1="211.8608" x2="211.8608" y1="207.2344" y2="229.2344"/><polygon fill="#181818" points="207.8608,219.2344,211.8608,229.2344,215.8608,219.2344,211.8608,223.2344" style="stroke:#181818;stroke-width:1;"/><line style="stroke:#181818;stroke-width:1;" x1="405.2734" x2="492.5566" y1="207.2344" y2="207.2344"/><line style="stroke:#181818;stroke-width:1;" x1="492.5566" x2="492.5566" y1="207.2344" y2="229.2344"/><polygon fill="#181818" points="488.5566,219.2344,492.5566,229.2344,496.5566,219.2344,492.5566,223.2344" style="stroke:#181818;stroke-width:1;"/><line style="stroke:#181818;stroke-width:1;" x1="352.2087" x2="352.2087" y1="175.2344" y2="195.2344"/><polygon fill="#181818" points="348.2087,185.2344,352.2087,195.2344,356.2087,185.2344,352.2087,189.2344" style="stroke:#181818;stroke-width:1;"/><!--SRC=[VL8zJyCm4DtpAsvi1yIU3Wn5W4Gf5L-2CIHkOyazHxK3wip0W1YO44A8LXsGAYgGOA4UZVe__4-mauWc8F1qkdltxjuxIoePWGuN4dO237gaJr12Py138WIiG7D00ba0DXW_zpmXWu7q_7PlyMhK0uL8Vs0FC3RpMG9er9rDfJPpfaSGnaPT8yJw6MCmymd63Sy_2XYD76bar0imQjHb2fytPlwKkYRUy6WNQkkbecMP9C1il5O76HE4sf28kWVsEMnJlvLd_0Qvvn_O8YtZWEafGfFnDA8O38QD9RRjv20SxhMgoxiYOO903Nc9UZlMxrQo_3cXQC28ThF8tpHgHc6efoc4cU3Exlu1h0O9NKsinI9ly8_rE8G-jJH9JDsIM76xyQsyavV_CoWZR2rUKpZL8sgD_hp8hyCXN8n16FLOlaJ9X9OUzQ5lr3s57WquH0w09S2MJLoW7MZKLOKzQ_hJhPEb_09V_1vcvcEwv1UI9oK3gqpLuJ8_mAaUSsV3RS6ICUJTBlm2]--></g></svg>