<svg xmlns="http://www.w3.org/2000/svg" xmlns:xlink="http://www.w3.org/1999/xlink" contentStyleType="text/css" data-diagram-type="ACTIVITY" height="654px" preserveAspectRatio="none" style="width:856px;height:654px;background:#FFFFFF;" version="1.1" viewBox="0 0 856 654" width="856px" zoomAndPan="magnify"><title>Post Management Process - Delete Post Flow</title><defs/><g><g class="title" data-source-line="1"><text fill="#000000" font-family="sans-serif" font-size="14" font-weight="bold" lengthAdjust="spacing" textLength="357.6699" x="247.8184" y="32.9951">Post Management Process - Delete Post Flow</text></g><ellipse cx="672.4406" cy="57.2969" fill="#222222" rx="10" ry="10" style="stroke:#222222;stroke-width:1;"/><rect fill="#F1F1F1" height="33.9688" rx="12.5" ry="12.5" style="stroke:#181818;stroke-width:0.5;" width="172.4609" x="586.2101" y="87.2969"/><text fill="#000000" font-family="sans-serif" font-size="12" lengthAdjust="spacing" textLength="152.4609" x="596.2101" y="108.4355">Ng&#432;&#7901;i d&#249;ng nh&#7845;n n&#250;t x&#243;a</text><rect fill="#F1F1F1" height="33.9688" rx="12.5" ry="12.5" style="stroke:#181818;stroke-width:0.5;" width="151.2676" x="596.8068" y="141.2656"/><text fill="#000000" font-family="sans-serif" font-size="12" lengthAdjust="spacing" textLength="131.2676" x="606.8068" y="162.4043">Hi&#7875;n th&#7883; x&#225;c nh&#7853;n x&#243;a</text><polygon fill="#F1F1F1" points="610.861,195.2344,734.0201,195.2344,746.0201,207.2344,734.0201,219.2344,610.861,219.2344,598.861,207.2344,610.861,195.2344" style="stroke:#181818;stroke-width:0.5;"/><text fill="#000000" font-family="sans-serif" font-size="11" lengthAdjust="spacing" textLength="123.1592" x="610.861" y="211.0425">Ng&#432;&#7901;i d&#249;ng x&#225;c nh&#7853;n?</text><text fill="#000000" font-family="sans-serif" font-size="11" lengthAdjust="spacing" textLength="19.0083" x="579.8527" y="204.6401">yes</text><text fill="#000000" font-family="sans-serif" font-size="11" lengthAdjust="spacing" textLength="13.7017" x="746.0201" y="204.6401">no</text><rect fill="#F1F1F1" height="33.9688" rx="12.5" ry="12.5" style="stroke:#181818;stroke-width:0.5;" width="228.0605" x="400.2151" y="229.2344"/><text fill="#000000" font-family="sans-serif" font-size="12" lengthAdjust="spacing" textLength="208.0605" x="410.2151" y="250.373">G&#7917;i y&#234;u c&#7847;u DELETE /api/posts/[id]</text><rect fill="#F1F1F1" height="33.9688" rx="12.5" ry="12.5" style="stroke:#181818;stroke-width:0.5;" width="185.1582" x="421.6663" y="283.2031"/><text fill="#000000" font-family="sans-serif" font-size="12" lengthAdjust="spacing" textLength="165.1582" x="431.6663" y="304.3418">X&#225;c minh phi&#234;n ng&#432;&#7901;i d&#249;ng</text><polygon fill="#F1F1F1" points="477.3755,337.1719,551.1152,337.1719,563.1152,349.1719,551.1152,361.1719,477.3755,361.1719,465.3755,349.1719,477.3755,337.1719" style="stroke:#181818;stroke-width:0.5;"/><text fill="#000000" font-family="sans-serif" font-size="11" lengthAdjust="spacing" textLength="73.7397" x="477.3755" y="352.98">Phi&#234;n h&#7907;p l&#7879;?</text><text fill="#000000" font-family="sans-serif" font-size="11" lengthAdjust="spacing" textLength="19.0083" x="446.3672" y="346.5776">yes</text><text fill="#000000" font-family="sans-serif" font-size="11" lengthAdjust="spacing" textLength="13.7017" x="563.1152" y="346.5776">no</text><rect fill="#F1F1F1" height="33.9688" rx="12.5" ry="12.5" style="stroke:#181818;stroke-width:0.5;" width="212.375" x="233.103" y="371.1719"/><text fill="#000000" font-family="sans-serif" font-size="12" lengthAdjust="spacing" textLength="192.375" x="243.103" y="392.3105">Ki&#7875;m tra quy&#7873;n s&#7903; h&#7919;u b&#224;i &#273;&#259;ng</text><polygon fill="#F1F1F1" points="260.5691,425.1406,418.012,425.1406,430.012,437.1406,418.012,449.1406,260.5691,449.1406,248.5691,437.1406,260.5691,425.1406" style="stroke:#181818;stroke-width:0.5;"/><text fill="#000000" font-family="sans-serif" font-size="11" lengthAdjust="spacing" textLength="157.4429" x="260.5691" y="440.9487">Ng&#432;&#7901;i d&#249;ng l&#224; ch&#7911; b&#224;i &#273;&#259;ng?</text><text fill="#000000" font-family="sans-serif" font-size="11" lengthAdjust="spacing" textLength="19.0083" x="229.5608" y="434.5464">yes</text><text fill="#000000" font-family="sans-serif" font-size="11" lengthAdjust="spacing" textLength="13.7017" x="430.012" y="434.5464">no</text><rect fill="#F1F1F1" height="33.9688" rx="12.5" ry="12.5" style="stroke:#181818;stroke-width:0.5;" width="360.8633" x="11" y="459.1406"/><text fill="#000000" font-family="sans-serif" font-size="12" lengthAdjust="spacing" textLength="340.8633" x="21" y="480.2793">X&#243;a b&#224;i &#273;&#259;ng v&#224; d&#7919; li&#7879;u li&#234;n quan (comments, reactions)</text><rect fill="#F1F1F1" height="33.9688" rx="12.5" ry="12.5" style="stroke:#181818;stroke-width:0.5;" width="131.123" x="125.8701" y="513.1094"/><text fill="#000000" font-family="sans-serif" font-size="12" lengthAdjust="spacing" textLength="111.123" x="135.8701" y="534.248">L&#224;m m&#7899;i giao di&#7879;n</text><rect fill="#F1F1F1" height="33.9688" rx="12.5" ry="12.5" style="stroke:#181818;stroke-width:0.5;" width="240.834" x="71.0146" y="567.0781"/><text fill="#000000" font-family="sans-serif" font-size="12" lengthAdjust="spacing" textLength="220.834" x="81.0146" y="588.2168">Hi&#7875;n th&#7883; giao di&#7879;n kh&#244;ng c&#243; b&#224;i &#273;&#259;ng</text><rect fill="#F1F1F1" height="33.9688" rx="12.5" ry="12.5" style="stroke:#181818;stroke-width:0.5;" width="190.5723" x="391.8633" y="459.1406"/><text fill="#000000" font-family="sans-serif" font-size="12" lengthAdjust="spacing" textLength="170.5723" x="401.8633" y="480.2793">Hi&#7875;n th&#7883; th&#244;ng b&#225;o l&#7895;i quy&#7873;n</text><ellipse cx="487.1494" cy="524.1094" fill="none" rx="11" ry="11" style="stroke:#222222;stroke-width:1;"/><ellipse cx="487.1494" cy="524.1094" fill="#222222" rx="6" ry="6" style="stroke:#222222;stroke-width:1;"/><rect fill="#F1F1F1" height="33.9688" rx="12.5" ry="12.5" style="stroke:#181818;stroke-width:0.5;" width="153.5293" x="612.4355" y="371.1719"/><text fill="#000000" font-family="sans-serif" font-size="12" lengthAdjust="spacing" textLength="133.5293" x="622.4355" y="392.3105">Y&#234;u c&#7847;u &#273;&#259;ng nh&#7853;p l&#7841;i</text><ellipse cx="689.2002" cy="436.1406" fill="none" rx="11" ry="11" style="stroke:#222222;stroke-width:1;"/><ellipse cx="689.2002" cy="436.1406" fill="#222222" rx="6" ry="6" style="stroke:#222222;stroke-width:1;"/><rect fill="#F1F1F1" height="33.9688" rx="12.5" ry="12.5" style="stroke:#181818;stroke-width:0.5;" width="69.3418" x="775.9648" y="229.2344"/><text fill="#000000" font-family="sans-serif" font-size="12" lengthAdjust="spacing" textLength="49.3418" x="785.9648" y="250.373">H&#7911;y x&#243;a</text><ellipse cx="810.6357" cy="294.2031" fill="none" rx="11" ry="11" style="stroke:#222222;stroke-width:1;"/><ellipse cx="810.6357" cy="294.2031" fill="#222222" rx="6" ry="6" style="stroke:#222222;stroke-width:1;"/><ellipse cx="672.4406" cy="632.0469" fill="none" rx="11" ry="11" style="stroke:#222222;stroke-width:1;"/><ellipse cx="672.4406" cy="632.0469" fill="#222222" rx="6" ry="6" style="stroke:#222222;stroke-width:1;"/><line style="stroke:#181818;stroke-width:1;" x1="672.4406" x2="672.4406" y1="67.2969" y2="87.2969"/><polygon fill="#181818" points="668.4406,77.2969,672.4406,87.2969,676.4406,77.2969,672.4406,81.2969" style="stroke:#181818;stroke-width:1;"/><line style="stroke:#181818;stroke-width:1;" x1="672.4406" x2="672.4406" y1="121.2656" y2="141.2656"/><polygon fill="#181818" points="668.4406,131.2656,672.4406,141.2656,676.4406,131.2656,672.4406,135.2656" style="stroke:#181818;stroke-width:1;"/><line style="stroke:#181818;stroke-width:1;" x1="514.2454" x2="514.2454" y1="263.2031" y2="283.2031"/><polygon fill="#181818" points="510.2454,273.2031,514.2454,283.2031,518.2454,273.2031,514.2454,277.2031" style="stroke:#181818;stroke-width:1;"/><line style="stroke:#181818;stroke-width:1;" x1="191.4316" x2="191.4316" y1="493.1094" y2="513.1094"/><polygon fill="#181818" points="187.4316,503.1094,191.4316,513.1094,195.4316,503.1094,191.4316,507.1094" style="stroke:#181818;stroke-width:1;"/><line style="stroke:#181818;stroke-width:1;" x1="191.4316" x2="191.4316" y1="547.0781" y2="567.0781"/><polygon fill="#181818" points="187.4316,557.0781,191.4316,567.0781,195.4316,557.0781,191.4316,561.0781" style="stroke:#181818;stroke-width:1;"/><line style="stroke:#181818;stroke-width:1;" x1="487.1494" x2="487.1494" y1="493.1094" y2="513.1094"/><polygon fill="#181818" points="483.1494,503.1094,487.1494,513.1094,491.1494,503.1094,487.1494,507.1094" style="stroke:#181818;stroke-width:1;"/><line style="stroke:#181818;stroke-width:1;" x1="248.5691" x2="191.4316" y1="437.1406" y2="437.1406"/><line style="stroke:#181818;stroke-width:1;" x1="191.4316" x2="191.4316" y1="437.1406" y2="459.1406"/><polygon fill="#181818" points="187.4316,449.1406,191.4316,459.1406,195.4316,449.1406,191.4316,453.1406" style="stroke:#181818;stroke-width:1;"/><line style="stroke:#181818;stroke-width:1;" x1="430.012" x2="487.1494" y1="437.1406" y2="437.1406"/><line style="stroke:#181818;stroke-width:1;" x1="487.1494" x2="487.1494" y1="437.1406" y2="459.1406"/><polygon fill="#181818" points="483.1494,449.1406,487.1494,459.1406,491.1494,449.1406,487.1494,453.1406" style="stroke:#181818;stroke-width:1;"/><line style="stroke:#181818;stroke-width:1;" x1="191.4316" x2="191.4316" y1="601.0469" y2="606.0469"/><line style="stroke:#181818;stroke-width:1;" x1="191.4316" x2="672.4406" y1="606.0469" y2="606.0469"/><line style="stroke:#181818;stroke-width:1;" x1="672.4406" x2="672.4406" y1="606.0469" y2="621.0469"/><polygon fill="#181818" points="668.4406,611.0469,672.4406,621.0469,676.4406,611.0469,672.4406,615.0469" style="stroke:#181818;stroke-width:1;"/><line style="stroke:#181818;stroke-width:1;" x1="339.2905" x2="339.2905" y1="405.1406" y2="425.1406"/><polygon fill="#181818" points="335.2905,415.1406,339.2905,425.1406,343.2905,415.1406,339.2905,419.1406" style="stroke:#181818;stroke-width:1;"/><line style="stroke:#181818;stroke-width:1;" x1="689.2002" x2="689.2002" y1="405.1406" y2="425.1406"/><polygon fill="#181818" points="685.2002,415.1406,689.2002,425.1406,693.2002,415.1406,689.2002,419.1406" style="stroke:#181818;stroke-width:1;"/><line style="stroke:#181818;stroke-width:1;" x1="465.3755" x2="339.2905" y1="349.1719" y2="349.1719"/><line style="stroke:#181818;stroke-width:1;" x1="339.2905" x2="339.2905" y1="349.1719" y2="371.1719"/><polygon fill="#181818" points="335.2905,361.1719,339.2905,371.1719,343.2905,361.1719,339.2905,365.1719" style="stroke:#181818;stroke-width:1;"/><line style="stroke:#181818;stroke-width:1;" x1="563.1152" x2="689.2002" y1="349.1719" y2="349.1719"/><line style="stroke:#181818;stroke-width:1;" x1="689.2002" x2="689.2002" y1="349.1719" y2="371.1719"/><polygon fill="#181818" points="685.2002,361.1719,689.2002,371.1719,693.2002,361.1719,689.2002,365.1719" style="stroke:#181818;stroke-width:1;"/><line style="stroke:#181818;stroke-width:1;" x1="514.2454" x2="514.2454" y1="317.1719" y2="337.1719"/><polygon fill="#181818" points="510.2454,327.1719,514.2454,337.1719,518.2454,327.1719,514.2454,331.1719" style="stroke:#181818;stroke-width:1;"/><line style="stroke:#181818;stroke-width:1;" x1="810.6357" x2="810.6357" y1="263.2031" y2="283.2031"/><polygon fill="#181818" points="806.6357,273.2031,810.6357,283.2031,814.6357,273.2031,810.6357,277.2031" style="stroke:#181818;stroke-width:1;"/><line style="stroke:#181818;stroke-width:1;" x1="598.861" x2="514.2454" y1="207.2344" y2="207.2344"/><line style="stroke:#181818;stroke-width:1;" x1="514.2454" x2="514.2454" y1="207.2344" y2="229.2344"/><polygon fill="#181818" points="510.2454,219.2344,514.2454,229.2344,518.2454,219.2344,514.2454,223.2344" style="stroke:#181818;stroke-width:1;"/><line style="stroke:#181818;stroke-width:1;" x1="746.0201" x2="810.6357" y1="207.2344" y2="207.2344"/><line style="stroke:#181818;stroke-width:1;" x1="810.6357" x2="810.6357" y1="207.2344" y2="229.2344"/><polygon fill="#181818" points="806.6357,219.2344,810.6357,229.2344,814.6357,219.2344,810.6357,223.2344" style="stroke:#181818;stroke-width:1;"/><line style="stroke:#181818;stroke-width:1;" x1="672.4406" x2="672.4406" y1="175.2344" y2="195.2344"/><polygon fill="#181818" points="668.4406,185.2344,672.4406,195.2344,676.4406,185.2344,672.4406,189.2344" style="stroke:#181818;stroke-width:1;"/><!--SRC=[VPAzRjim58LtFSKPRI25TtdeOhS6aXOUEYGeCj0IRH6LICMaadWiCcJ8rAb34DH6KHWm42I0irGQ6VGz-2ObBVb7hb4k8iHpltlkZs8gfkWBgV21S3AY2UKA_R48g9HuWmwDgQe4xs9nvNbIaR7o_8-ZFy-cU608zMy-0ezC_ek3wrpXMYz9s_Dxp1Gt72eonPtzDmjMeaTUlRCX6dkG7T7RfWsa78q9bKqFzlZlJV78CD6B3879vnawtPFkfovQ96Mjr1gKhSyiF6-NwbF7IXYFa4PCBworMgvIvJpqosVhycUAs1It_wPU0OzTEGdKcE0YcvZYAuSqnGyN-9HXeASChzzURzReDNwln5XF4TYG-Mx4uOnL6KkoAyMb1OGs9MBhvpQp7-V-8YCsF1296vyymfYIG371PRDTvvteQOB45FSC8qO4GaVXUwBQv7Pa-1Bf5-iXqCl31TDOKZIuQFw7fqh6GC-4Q_TtjcvdtOHK8jroUSY6tk4C_jbs8weUhLR83JEViIrrGonfTPBVipEPLAkvKPTAT_qB]--></g></svg>