<svg xmlns="http://www.w3.org/2000/svg" xmlns:xlink="http://www.w3.org/1999/xlink" contentStyleType="text/css" data-diagram-type="ACTIVITY" height="761px" preserveAspectRatio="none" style="width:841px;height:761px;background:#FFFFFF;" version="1.1" viewBox="0 0 841 761" width="841px" zoomAndPan="magnify"><title>Post Management Process - Edit Post Flow</title><defs/><g><g class="title" data-source-line="1"><text fill="#000000" font-family="sans-serif" font-size="14" font-weight="bold" lengthAdjust="spacing" textLength="337.1484" x="250.8232" y="32.9951">Post Management Process - Edit Post Flow</text></g><ellipse cx="585.0146" cy="57.2969" fill="#222222" rx="10" ry="10" style="stroke:#222222;stroke-width:1;"/><rect fill="#F1F1F1" height="33.9688" rx="12.5" ry="12.5" style="stroke:#181818;stroke-width:0.5;" width="208.4375" x="480.7959" y="87.2969"/><text fill="#000000" font-family="sans-serif" font-size="12" lengthAdjust="spacing" textLength="188.4375" x="490.7959" y="108.4355">Ng&#432;&#7901;i d&#249;ng nh&#7845;n n&#250;t ch&#7881;nh s&#7917;a</text><rect fill="#F1F1F1" height="33.9688" rx="12.5" ry="12.5" style="stroke:#181818;stroke-width:0.5;" width="169.543" x="500.2432" y="141.2656"/><text fill="#000000" font-family="sans-serif" font-size="12" lengthAdjust="spacing" textLength="149.543" x="510.2432" y="162.4043">Hi&#7875;n th&#7883; modal ch&#7881;nh s&#7917;a</text><rect fill="#F1F1F1" height="33.9688" rx="12.5" ry="12.5" style="stroke:#181818;stroke-width:0.5;" width="170.5156" x="499.7568" y="195.2344"/><text fill="#000000" font-family="sans-serif" font-size="12" lengthAdjust="spacing" textLength="150.5156" x="509.7568" y="216.373">Ng&#432;&#7901;i d&#249;ng s&#7917;a n&#7897;i dung</text><rect fill="#F1F1F1" height="33.9688" rx="12.5" ry="12.5" style="stroke:#181818;stroke-width:0.5;" width="159.8691" x="505.0801" y="249.2031"/><text fill="#000000" font-family="sans-serif" font-size="12" lengthAdjust="spacing" textLength="139.8691" x="515.0801" y="270.3418">Ng&#432;&#7901;i d&#249;ng nh&#7845;n "L&#432;u"</text><rect fill="#F1F1F1" height="33.9688" rx="12.5" ry="12.5" style="stroke:#181818;stroke-width:0.5;" width="165.7988" x="502.1152" y="303.1719"/><text fill="#000000" font-family="sans-serif" font-size="12" lengthAdjust="spacing" textLength="145.7988" x="512.1152" y="324.3105">Validate d&#7919; li&#7879;u &#273;&#7847;u v&#224;o</text><polygon fill="#F1F1F1" points="543.95,357.1406,626.0793,357.1406,638.0793,369.1406,626.0793,381.1406,543.95,381.1406,531.95,369.1406,543.95,357.1406" style="stroke:#181818;stroke-width:0.5;"/><text fill="#000000" font-family="sans-serif" font-size="11" lengthAdjust="spacing" textLength="82.1294" x="543.95" y="372.9487">D&#7919; li&#7879;u h&#7907;p l&#7879;?</text><text fill="#000000" font-family="sans-serif" font-size="11" lengthAdjust="spacing" textLength="19.0083" x="512.9417" y="366.5464">yes</text><text fill="#000000" font-family="sans-serif" font-size="11" lengthAdjust="spacing" textLength="13.7017" x="638.0793" y="366.5464">no</text><rect fill="#F1F1F1" height="33.9688" rx="12.5" ry="12.5" style="stroke:#181818;stroke-width:0.5;" width="222.2363" x="302.8389" y="391.1406"/><text fill="#000000" font-family="sans-serif" font-size="12" lengthAdjust="spacing" textLength="202.2363" x="312.8389" y="412.2793">G&#7917;i y&#234;u c&#7847;u PATCH /api/posts/[id]</text><rect fill="#F1F1F1" height="33.9688" rx="12.5" ry="12.5" style="stroke:#181818;stroke-width:0.5;" width="185.1582" x="321.3779" y="445.1094"/><text fill="#000000" font-family="sans-serif" font-size="12" lengthAdjust="spacing" textLength="165.1582" x="331.3779" y="466.248">X&#225;c minh phi&#234;n ng&#432;&#7901;i d&#249;ng</text><polygon fill="#F1F1F1" points="377.0872,499.0781,450.8269,499.0781,462.8269,511.0781,450.8269,523.0781,377.0872,523.0781,365.0872,511.0781,377.0872,499.0781" style="stroke:#181818;stroke-width:0.5;"/><text fill="#000000" font-family="sans-serif" font-size="11" lengthAdjust="spacing" textLength="73.7397" x="377.0872" y="514.8862">Phi&#234;n h&#7907;p l&#7879;?</text><text fill="#000000" font-family="sans-serif" font-size="11" lengthAdjust="spacing" textLength="19.0083" x="346.0789" y="508.4839">yes</text><text fill="#000000" font-family="sans-serif" font-size="11" lengthAdjust="spacing" textLength="13.7017" x="462.8269" y="508.4839">no</text><rect fill="#F1F1F1" height="33.9688" rx="12.5" ry="12.5" style="stroke:#181818;stroke-width:0.5;" width="212.375" x="147.1416" y="533.0781"/><text fill="#000000" font-family="sans-serif" font-size="12" lengthAdjust="spacing" textLength="192.375" x="157.1416" y="554.2168">Ki&#7875;m tra quy&#7873;n s&#7903; h&#7919;u b&#224;i &#273;&#259;ng</text><polygon fill="#F1F1F1" points="174.6077,587.0469,332.0505,587.0469,344.0505,599.0469,332.0505,611.0469,174.6077,611.0469,162.6077,599.0469,174.6077,587.0469" style="stroke:#181818;stroke-width:0.5;"/><text fill="#000000" font-family="sans-serif" font-size="11" lengthAdjust="spacing" textLength="157.4429" x="174.6077" y="602.855">Ng&#432;&#7901;i d&#249;ng l&#224; ch&#7911; b&#224;i &#273;&#259;ng?</text><text fill="#000000" font-family="sans-serif" font-size="11" lengthAdjust="spacing" textLength="19.0083" x="143.5994" y="596.4526">yes</text><text fill="#000000" font-family="sans-serif" font-size="11" lengthAdjust="spacing" textLength="13.7017" x="344.0505" y="596.4526">no</text><rect fill="#F1F1F1" height="33.9688" rx="12.5" ry="12.5" style="stroke:#181818;stroke-width:0.5;" width="246.248" x="11" y="621.0469"/><text fill="#000000" font-family="sans-serif" font-size="12" lengthAdjust="spacing" textLength="226.248" x="21" y="642.1855">C&#7853;p nh&#7853;t b&#224;i &#273;&#259;ng trong c&#417; s&#7903; d&#7919; li&#7879;u</text><rect fill="#F1F1F1" height="33.9688" rx="12.5" ry="12.5" style="stroke:#181818;stroke-width:0.5;" width="189.7754" x="39.2363" y="675.0156"/><text fill="#000000" font-family="sans-serif" font-size="12" lengthAdjust="spacing" textLength="169.7754" x="49.2363" y="696.1543">C&#7853;p nh&#7853;t giao di&#7879;n b&#224;i &#273;&#259;ng</text><rect fill="#F1F1F1" height="33.9688" rx="12.5" ry="12.5" style="stroke:#181818;stroke-width:0.5;" width="190.5723" x="277.248" y="621.0469"/><text fill="#000000" font-family="sans-serif" font-size="12" lengthAdjust="spacing" textLength="170.5723" x="287.248" y="642.1855">Hi&#7875;n th&#7883; th&#244;ng b&#225;o l&#7895;i quy&#7873;n</text><ellipse cx="372.5342" cy="686.0156" fill="none" rx="11" ry="11" style="stroke:#222222;stroke-width:1;"/><ellipse cx="372.5342" cy="686.0156" fill="#222222" rx="6" ry="6" style="stroke:#222222;stroke-width:1;"/><rect fill="#F1F1F1" height="33.9688" rx="12.5" ry="12.5" style="stroke:#181818;stroke-width:0.5;" width="153.5293" x="497.8203" y="533.0781"/><text fill="#000000" font-family="sans-serif" font-size="12" lengthAdjust="spacing" textLength="133.5293" x="507.8203" y="554.2168">Y&#234;u c&#7847;u &#273;&#259;ng nh&#7853;p l&#7841;i</text><ellipse cx="574.585" cy="598.0469" fill="none" rx="11" ry="11" style="stroke:#222222;stroke-width:1;"/><ellipse cx="574.585" cy="598.0469" fill="#222222" rx="6" ry="6" style="stroke:#222222;stroke-width:1;"/><rect fill="#F1F1F1" height="33.9688" rx="12.5" ry="12.5" style="stroke:#181818;stroke-width:0.5;" width="149.4453" x="681.3496" y="391.1406"/><text fill="#000000" font-family="sans-serif" font-size="12" lengthAdjust="spacing" textLength="129.4453" x="691.3496" y="412.2793">Hi&#7875;n th&#7883; th&#244;ng b&#225;o l&#7895;i</text><ellipse cx="756.0723" cy="456.1094" fill="none" rx="11" ry="11" style="stroke:#222222;stroke-width:1;"/><ellipse cx="756.0723" cy="456.1094" fill="#222222" rx="6" ry="6" style="stroke:#222222;stroke-width:1;"/><ellipse cx="585.0146" cy="739.9844" fill="none" rx="11" ry="11" style="stroke:#222222;stroke-width:1;"/><ellipse cx="585.0146" cy="739.9844" fill="#222222" rx="6" ry="6" style="stroke:#222222;stroke-width:1;"/><line style="stroke:#181818;stroke-width:1;" x1="585.0146" x2="585.0146" y1="67.2969" y2="87.2969"/><polygon fill="#181818" points="581.0146,77.2969,585.0146,87.2969,589.0146,77.2969,585.0146,81.2969" style="stroke:#181818;stroke-width:1;"/><line style="stroke:#181818;stroke-width:1;" x1="585.0146" x2="585.0146" y1="121.2656" y2="141.2656"/><polygon fill="#181818" points="581.0146,131.2656,585.0146,141.2656,589.0146,131.2656,585.0146,135.2656" style="stroke:#181818;stroke-width:1;"/><line style="stroke:#181818;stroke-width:1;" x1="585.0146" x2="585.0146" y1="175.2344" y2="195.2344"/><polygon fill="#181818" points="581.0146,185.2344,585.0146,195.2344,589.0146,185.2344,585.0146,189.2344" style="stroke:#181818;stroke-width:1;"/><line style="stroke:#181818;stroke-width:1;" x1="585.0146" x2="585.0146" y1="229.2031" y2="249.2031"/><polygon fill="#181818" points="581.0146,239.2031,585.0146,249.2031,589.0146,239.2031,585.0146,243.2031" style="stroke:#181818;stroke-width:1;"/><line style="stroke:#181818;stroke-width:1;" x1="585.0146" x2="585.0146" y1="283.1719" y2="303.1719"/><polygon fill="#181818" points="581.0146,293.1719,585.0146,303.1719,589.0146,293.1719,585.0146,297.1719" style="stroke:#181818;stroke-width:1;"/><line style="stroke:#181818;stroke-width:1;" x1="413.957" x2="413.957" y1="425.1094" y2="445.1094"/><polygon fill="#181818" points="409.957,435.1094,413.957,445.1094,417.957,435.1094,413.957,439.1094" style="stroke:#181818;stroke-width:1;"/><line style="stroke:#181818;stroke-width:1;" x1="134.124" x2="134.124" y1="655.0156" y2="675.0156"/><polygon fill="#181818" points="130.124,665.0156,134.124,675.0156,138.124,665.0156,134.124,669.0156" style="stroke:#181818;stroke-width:1;"/><line style="stroke:#181818;stroke-width:1;" x1="372.5342" x2="372.5342" y1="655.0156" y2="675.0156"/><polygon fill="#181818" points="368.5342,665.0156,372.5342,675.0156,376.5342,665.0156,372.5342,669.0156" style="stroke:#181818;stroke-width:1;"/><line style="stroke:#181818;stroke-width:1;" x1="162.6077" x2="134.124" y1="599.0469" y2="599.0469"/><line style="stroke:#181818;stroke-width:1;" x1="134.124" x2="134.124" y1="599.0469" y2="621.0469"/><polygon fill="#181818" points="130.124,611.0469,134.124,621.0469,138.124,611.0469,134.124,615.0469" style="stroke:#181818;stroke-width:1;"/><line style="stroke:#181818;stroke-width:1;" x1="344.0505" x2="372.5342" y1="599.0469" y2="599.0469"/><line style="stroke:#181818;stroke-width:1;" x1="372.5342" x2="372.5342" y1="599.0469" y2="621.0469"/><polygon fill="#181818" points="368.5342,611.0469,372.5342,621.0469,376.5342,611.0469,372.5342,615.0469" style="stroke:#181818;stroke-width:1;"/><line style="stroke:#181818;stroke-width:1;" x1="134.124" x2="134.124" y1="708.9844" y2="713.9844"/><line style="stroke:#181818;stroke-width:1;" x1="134.124" x2="585.0146" y1="713.9844" y2="713.9844"/><line style="stroke:#181818;stroke-width:1;" x1="585.0146" x2="585.0146" y1="713.9844" y2="728.9844"/><polygon fill="#181818" points="581.0146,718.9844,585.0146,728.9844,589.0146,718.9844,585.0146,722.9844" style="stroke:#181818;stroke-width:1;"/><line style="stroke:#181818;stroke-width:1;" x1="253.3291" x2="253.3291" y1="567.0469" y2="587.0469"/><polygon fill="#181818" points="249.3291,577.0469,253.3291,587.0469,257.3291,577.0469,253.3291,581.0469" style="stroke:#181818;stroke-width:1;"/><line style="stroke:#181818;stroke-width:1;" x1="574.585" x2="574.585" y1="567.0469" y2="587.0469"/><polygon fill="#181818" points="570.585,577.0469,574.585,587.0469,578.585,577.0469,574.585,581.0469" style="stroke:#181818;stroke-width:1;"/><line style="stroke:#181818;stroke-width:1;" x1="365.0872" x2="253.3291" y1="511.0781" y2="511.0781"/><line style="stroke:#181818;stroke-width:1;" x1="253.3291" x2="253.3291" y1="511.0781" y2="533.0781"/><polygon fill="#181818" points="249.3291,523.0781,253.3291,533.0781,257.3291,523.0781,253.3291,527.0781" style="stroke:#181818;stroke-width:1;"/><line style="stroke:#181818;stroke-width:1;" x1="462.8269" x2="574.585" y1="511.0781" y2="511.0781"/><line style="stroke:#181818;stroke-width:1;" x1="574.585" x2="574.585" y1="511.0781" y2="533.0781"/><polygon fill="#181818" points="570.585,523.0781,574.585,533.0781,578.585,523.0781,574.585,527.0781" style="stroke:#181818;stroke-width:1;"/><line style="stroke:#181818;stroke-width:1;" x1="413.957" x2="413.957" y1="479.0781" y2="499.0781"/><polygon fill="#181818" points="409.957,489.0781,413.957,499.0781,417.957,489.0781,413.957,493.0781" style="stroke:#181818;stroke-width:1;"/><line style="stroke:#181818;stroke-width:1;" x1="756.0723" x2="756.0723" y1="425.1094" y2="445.1094"/><polygon fill="#181818" points="752.0723,435.1094,756.0723,445.1094,760.0723,435.1094,756.0723,439.1094" style="stroke:#181818;stroke-width:1;"/><line style="stroke:#181818;stroke-width:1;" x1="531.95" x2="413.957" y1="369.1406" y2="369.1406"/><line style="stroke:#181818;stroke-width:1;" x1="413.957" x2="413.957" y1="369.1406" y2="391.1406"/><polygon fill="#181818" points="409.957,381.1406,413.957,391.1406,417.957,381.1406,413.957,385.1406" style="stroke:#181818;stroke-width:1;"/><line style="stroke:#181818;stroke-width:1;" x1="638.0793" x2="756.0723" y1="369.1406" y2="369.1406"/><line style="stroke:#181818;stroke-width:1;" x1="756.0723" x2="756.0723" y1="369.1406" y2="391.1406"/><polygon fill="#181818" points="752.0723,381.1406,756.0723,391.1406,760.0723,381.1406,756.0723,385.1406" style="stroke:#181818;stroke-width:1;"/><line style="stroke:#181818;stroke-width:1;" x1="585.0146" x2="585.0146" y1="337.1406" y2="357.1406"/><polygon fill="#181818" points="581.0146,347.1406,585.0146,357.1406,589.0146,347.1406,585.0146,351.1406" style="stroke:#181818;stroke-width:1;"/><!--SRC=[XP8_IyD06CRtV8eNftQGxiaWKlyK_4C74KKShiarEKZkOk-YT9GE8avEuY2sY1GAfHrSJCOh_HxtJRmargQrrWp7SU_x_fxddeiWmiTGPrp04QB8nG6c0kejPcFEOHDs7IBoyfxFRWo32zGIXddiJiSgUI7Wo4_g0lLK_4w1obY0xQdaddh0LJ94bc7MY4ew58G-Ve20ESZ_rR94ouw1gkHPdqJKjVxIspYSZgCDNJv5Fd6GmE2eP0I-LhoBOFAeudu4rxBBB8CqeRHJA6e7Ro7uUhzLrjumXL8Ryx81-ZFtjG42RJc8mCuOzUsJQWqgA2ILK6V1AnV4kRJovZFPio4W-ZgXH-H0fx3WDUzAvUjvUPro1Zn80mj0j11SHMsLtD8qaTTqS1H1GtQ9ljgaCqFFy4iH-RARvTmlJgnMp5IhAXw6MR13KHpHFfXUxMalTr58s5f3S0bYuAHjTBLbx7CC9SgMR2pyBSAJ7rgx8Nii3Uo9p09PLEQ2XNCkTKZJMArWdi-VzFjscTtqEU8UcLD_Y3bjaVIFnvoI4VBfTFi5]--></g></svg>