<svg xmlns="http://www.w3.org/2000/svg" xmlns:xlink="http://www.w3.org/1999/xlink" contentStyleType="text/css" data-diagram-type="ACTIVITY" height="532px" preserveAspectRatio="none" style="width:389px;height:532px;background:#FFFFFF;" version="1.1" viewBox="0 0 389 532" width="389px" zoomAndPan="magnify"><title>Dashboard Viewing - Export Report (Admin)</title><defs/><g><g class="title" data-source-line="1"><text fill="#000000" font-family="sans-serif" font-size="14" font-weight="bold" lengthAdjust="spacing" textLength="346.7598" x="20" y="32.9951">Dashboard Viewing - Export Report (Admin)</text></g><ellipse cx="209.8535" cy="57.2969" fill="#222222" rx="10" ry="10" style="stroke:#222222;stroke-width:1;"/><rect fill="#F1F1F1" height="33.9688" rx="12.5" ry="12.5" style="stroke:#181818;stroke-width:0.5;" width="186.4121" x="116.6475" y="87.2969"/><text fill="#000000" font-family="sans-serif" font-size="12" lengthAdjust="spacing" textLength="166.4121" x="126.6475" y="108.4355">Admin nh&#7845;n "Xu&#7845;t b&#225;o c&#225;o"</text><rect fill="#F1F1F1" height="33.9688" rx="12.5" ry="12.5" style="stroke:#181818;stroke-width:0.5;" width="160.0332" x="129.8369" y="141.2656"/><text fill="#000000" font-family="sans-serif" font-size="12" lengthAdjust="spacing" textLength="140.0332" x="139.8369" y="162.4043">X&#225;c minh vai tr&#242; admin</text><polygon fill="#F1F1F1" points="181.5183,195.2344,238.1887,195.2344,250.1887,207.2344,238.1887,219.2344,181.5183,219.2344,169.5183,207.2344,181.5183,195.2344" style="stroke:#181818;stroke-width:0.5;"/><text fill="#000000" font-family="sans-serif" font-size="11" lengthAdjust="spacing" textLength="56.6704" x="181.5183" y="211.0425">L&#224; admin?</text><text fill="#000000" font-family="sans-serif" font-size="11" lengthAdjust="spacing" textLength="19.0083" x="150.51" y="204.6401">yes</text><text fill="#000000" font-family="sans-serif" font-size="11" lengthAdjust="spacing" textLength="13.7017" x="250.1887" y="204.6401">no</text><rect fill="#F1F1F1" height="33.9688" rx="12.5" ry="12.5" style="stroke:#181818;stroke-width:0.5;" width="185.6504" x="29.1768" y="229.2344"/><text fill="#000000" font-family="sans-serif" font-size="12" lengthAdjust="spacing" textLength="165.6504" x="39.1768" y="250.373">Thu th&#7853;p d&#7919; li&#7879;u dashboard</text><rect fill="#F1F1F1" height="33.9688" rx="12.5" ry="12.5" style="stroke:#181818;stroke-width:0.5;" width="148.5605" x="47.7217" y="283.2031"/><text fill="#000000" font-family="sans-serif" font-size="12" lengthAdjust="spacing" textLength="128.5605" x="57.7217" y="304.3418">&#272;&#7883;nh d&#7841;ng th&#224;nh CSV</text><rect fill="#F1F1F1" height="33.9688" rx="12.5" ry="12.5" style="stroke:#181818;stroke-width:0.5;" width="94.4551" x="74.7744" y="337.1719"/><text fill="#000000" font-family="sans-serif" font-size="12" lengthAdjust="spacing" textLength="74.4551" x="84.7744" y="358.3105">T&#7841;o Blob file</text><rect fill="#F1F1F1" height="33.9688" rx="12.5" ry="12.5" style="stroke:#181818;stroke-width:0.5;" width="150.6406" x="46.6816" y="391.1406"/><text fill="#000000" font-family="sans-serif" font-size="12" lengthAdjust="spacing" textLength="130.6406" x="56.6816" y="412.2793">T&#7841;o li&#234;n k&#7871;t t&#7843;i xu&#7889;ng</text><rect fill="#F1F1F1" height="33.9688" rx="12.5" ry="12.5" style="stroke:#181818;stroke-width:0.5;" width="183.6289" x="30.1875" y="445.1094"/><text fill="#000000" font-family="sans-serif" font-size="12" lengthAdjust="spacing" textLength="163.6289" x="40.1875" y="466.248">T&#7843;i file "mentor-report.csv"</text><rect fill="#F1F1F1" height="33.9688" rx="12.5" ry="12.5" style="stroke:#181818;stroke-width:0.5;" width="125.7559" x="234.8271" y="229.2344"/><text fill="#000000" font-family="sans-serif" font-size="12" lengthAdjust="spacing" textLength="105.7559" x="244.8271" y="250.373">Hi&#7875;n th&#7883; l&#7895;i quy&#7873;n</text><ellipse cx="297.7051" cy="294.2031" fill="none" rx="11" ry="11" style="stroke:#222222;stroke-width:1;"/><ellipse cx="297.7051" cy="294.2031" fill="#222222" rx="6" ry="6" style="stroke:#222222;stroke-width:1;"/><ellipse cx="209.8535" cy="510.0781" fill="none" rx="11" ry="11" style="stroke:#222222;stroke-width:1;"/><ellipse cx="209.8535" cy="510.0781" fill="#222222" rx="6" ry="6" style="stroke:#222222;stroke-width:1;"/><line style="stroke:#181818;stroke-width:1;" x1="209.8535" x2="209.8535" y1="67.2969" y2="87.2969"/><polygon fill="#181818" points="205.8535,77.2969,209.8535,87.2969,213.8535,77.2969,209.8535,81.2969" style="stroke:#181818;stroke-width:1;"/><line style="stroke:#181818;stroke-width:1;" x1="209.8535" x2="209.8535" y1="121.2656" y2="141.2656"/><polygon fill="#181818" points="205.8535,131.2656,209.8535,141.2656,213.8535,131.2656,209.8535,135.2656" style="stroke:#181818;stroke-width:1;"/><line style="stroke:#181818;stroke-width:1;" x1="122.002" x2="122.002" y1="263.2031" y2="283.2031"/><polygon fill="#181818" points="118.002,273.2031,122.002,283.2031,126.002,273.2031,122.002,277.2031" style="stroke:#181818;stroke-width:1;"/><line style="stroke:#181818;stroke-width:1;" x1="122.002" x2="122.002" y1="317.1719" y2="337.1719"/><polygon fill="#181818" points="118.002,327.1719,122.002,337.1719,126.002,327.1719,122.002,331.1719" style="stroke:#181818;stroke-width:1;"/><line style="stroke:#181818;stroke-width:1;" x1="122.002" x2="122.002" y1="371.1406" y2="391.1406"/><polygon fill="#181818" points="118.002,381.1406,122.002,391.1406,126.002,381.1406,122.002,385.1406" style="stroke:#181818;stroke-width:1;"/><line style="stroke:#181818;stroke-width:1;" x1="122.002" x2="122.002" y1="425.1094" y2="445.1094"/><polygon fill="#181818" points="118.002,435.1094,122.002,445.1094,126.002,435.1094,122.002,439.1094" style="stroke:#181818;stroke-width:1;"/><line style="stroke:#181818;stroke-width:1;" x1="297.7051" x2="297.7051" y1="263.2031" y2="283.2031"/><polygon fill="#181818" points="293.7051,273.2031,297.7051,283.2031,301.7051,273.2031,297.7051,277.2031" style="stroke:#181818;stroke-width:1;"/><line style="stroke:#181818;stroke-width:1;" x1="169.5183" x2="122.002" y1="207.2344" y2="207.2344"/><line style="stroke:#181818;stroke-width:1;" x1="122.002" x2="122.002" y1="207.2344" y2="229.2344"/><polygon fill="#181818" points="118.002,219.2344,122.002,229.2344,126.002,219.2344,122.002,223.2344" style="stroke:#181818;stroke-width:1;"/><line style="stroke:#181818;stroke-width:1;" x1="250.1887" x2="297.7051" y1="207.2344" y2="207.2344"/><line style="stroke:#181818;stroke-width:1;" x1="297.7051" x2="297.7051" y1="207.2344" y2="229.2344"/><polygon fill="#181818" points="293.7051,219.2344,297.7051,229.2344,301.7051,219.2344,297.7051,223.2344" style="stroke:#181818;stroke-width:1;"/><line style="stroke:#181818;stroke-width:1;" x1="122.002" x2="122.002" y1="479.0781" y2="484.0781"/><line style="stroke:#181818;stroke-width:1;" x1="122.002" x2="209.8535" y1="484.0781" y2="484.0781"/><line style="stroke:#181818;stroke-width:1;" x1="209.8535" x2="209.8535" y1="484.0781" y2="499.0781"/><polygon fill="#181818" points="205.8535,489.0781,209.8535,499.0781,213.8535,489.0781,209.8535,493.0781" style="stroke:#181818;stroke-width:1;"/><line style="stroke:#181818;stroke-width:1;" x1="209.8535" x2="209.8535" y1="175.2344" y2="195.2344"/><polygon fill="#181818" points="205.8535,185.2344,209.8535,195.2344,213.8535,185.2344,209.8535,189.2344" style="stroke:#181818;stroke-width:1;"/><!--SRC=[LP2zJiCm58LtFyLHftGe3z0EY3-9WGcggcjQkus5QvVufhGZOc3e0XDh8yI2X90Ouu71l8ZV12SfGdZmzJa-z-gpIP8IE4rjDZ5fpZ6IubRgENeuMozDJhWKJKcE-4BgBcEMqfnOlv7GMQXUDJhZ8bR2n9S6qxXr1gm_zkKKCPHXbKfGxZ-Hraq39cT8BlokbOTTK2OqaesmNOQu-iEiY5wetfVWmNr0oU0U2l1Vo44R-tuCRXl7yr2LaPWolulgv6gqlnz6t-1OcGbcKeb_hfB-JUCwL5y42jMBnBe8xadF_rBHgzlGMGXD9k_bpKSSJEqglaueAv1eioS-ZuJtkePsMwZWdYLkYarmTxgTPyaicT1SpbXz_040]--></g></svg>