<svg xmlns="http://www.w3.org/2000/svg" xmlns:xlink="http://www.w3.org/1999/xlink" contentStyleType="text/css" data-diagram-type="ACTIVITY" height="692px" preserveAspectRatio="none" style="width:531px;height:692px;background:#FFFFFF;" version="1.1" viewBox="0 0 531 692" width="531px" zoomAndPan="magnify"><title>AI Chatbot Interaction - Admin Index Documents</title><defs/><g><g class="title" data-source-line="1"><text fill="#000000" font-family="sans-serif" font-size="14" font-weight="bold" lengthAdjust="spacing" textLength="383.4141" x="72.5938" y="32.9951">AI Chatbot Interaction - Admin Index Documents</text></g><ellipse cx="325.3232" cy="57.2969" fill="#222222" rx="10" ry="10" style="stroke:#222222;stroke-width:1;"/><rect fill="#F1F1F1" height="33.9688" rx="12.5" ry="12.5" style="stroke:#181818;stroke-width:0.5;" width="225.623" x="212.5117" y="87.2969"/><text fill="#000000" font-family="sans-serif" font-size="12" lengthAdjust="spacing" textLength="205.623" x="222.5117" y="108.4355">Admin &#273;i&#7873;u h&#432;&#7899;ng &#273;&#7871;n /admin/rag</text><rect fill="#F1F1F1" height="33.9688" rx="12.5" ry="12.5" style="stroke:#181818;stroke-width:0.5;" width="192.9277" x="228.8594" y="141.2656"/><text fill="#000000" font-family="sans-serif" font-size="12" lengthAdjust="spacing" textLength="172.9277" x="238.8594" y="162.4043">Admin nh&#7845;n "Index Mentors"</text><rect fill="#F1F1F1" height="33.9688" rx="12.5" ry="12.5" style="stroke:#181818;stroke-width:0.5;" width="160.0332" x="245.3066" y="195.2344"/><text fill="#000000" font-family="sans-serif" font-size="12" lengthAdjust="spacing" textLength="140.0332" x="255.3066" y="216.373">X&#225;c minh vai tr&#242; admin</text><polygon fill="#F1F1F1" points="296.988,249.2031,353.6584,249.2031,365.6584,261.2031,353.6584,273.2031,296.988,273.2031,284.988,261.2031,296.988,249.2031" style="stroke:#181818;stroke-width:0.5;"/><text fill="#000000" font-family="sans-serif" font-size="11" lengthAdjust="spacing" textLength="56.6704" x="296.988" y="265.0112">L&#224; admin?</text><text fill="#000000" font-family="sans-serif" font-size="11" lengthAdjust="spacing" textLength="19.0083" x="265.9797" y="258.6089">yes</text><text fill="#000000" font-family="sans-serif" font-size="11" lengthAdjust="spacing" textLength="13.7017" x="365.6584" y="258.6089">no</text><rect fill="#F1F1F1" height="33.9688" rx="12.5" ry="12.5" style="stroke:#181818;stroke-width:0.5;" width="181.3965" x="102.2246" y="283.2031"/><text fill="#000000" font-family="sans-serif" font-size="12" lengthAdjust="spacing" textLength="161.3965" x="112.2246" y="304.3418">L&#7845;y t&#7845;t c&#7843; mentor v&#224; h&#7891; s&#417;</text><rect fill="#555555" height="6" rx="2.5" ry="2.5" style="stroke:#555555;stroke-width:1;" width="272.0391" x="56.9033" y="337.1719"/><rect fill="#F1F1F1" height="33.9688" rx="12.5" ry="12.5" style="stroke:#181818;stroke-width:0.5;" width="244.0391" x="70.9033" y="363.1719"/><text fill="#000000" font-family="sans-serif" font-size="12" lengthAdjust="spacing" textLength="224.0391" x="80.9033" y="384.3105">&#272;&#7883;nh d&#7841;ng t&#7915;ng mentor th&#224;nh t&#224;i li&#7879;u</text><rect fill="#F1F1F1" height="33.9688" rx="12.5" ry="12.5" style="stroke:#181818;stroke-width:0.5;" width="215.0879" x="85.3789" y="417.1406"/><text fill="#000000" font-family="sans-serif" font-size="12" lengthAdjust="spacing" textLength="195.0879" x="95.3789" y="438.2793">T&#7841;o embedding cho t&#7915;ng t&#224;i li&#7879;u</text><rect fill="#555555" height="6" rx="2.5" ry="2.5" style="stroke:#555555;stroke-width:1;" width="272.0391" x="56.9033" y="471.1094"/><rect fill="#F1F1F1" height="33.9688" rx="12.5" ry="12.5" style="stroke:#181818;stroke-width:0.5;" width="243.5293" x="71.1582" y="497.1094"/><text fill="#000000" font-family="sans-serif" font-size="12" lengthAdjust="spacing" textLength="223.5293" x="81.1582" y="518.248">L&#432;u vector + metadata v&#224;o Pinecone</text><rect fill="#F1F1F1" height="33.9688" rx="12.5" ry="12.5" style="stroke:#181818;stroke-width:0.5;" width="223.5488" x="81.1484" y="551.0781"/><text fill="#000000" font-family="sans-serif" font-size="12" lengthAdjust="spacing" textLength="203.5488" x="91.1484" y="572.2168">C&#7853;p nh&#7853;t th&#7889;ng ch&#237; s&#7889; th&#224;nh c&#244;ng</text><rect fill="#F1F1F1" height="33.9688" rx="12.5" ry="12.5" style="stroke:#181818;stroke-width:0.5;" width="363.8457" x="11" y="605.0469"/><text fill="#000000" font-family="sans-serif" font-size="12" lengthAdjust="spacing" textLength="343.8457" x="21" y="626.1855">Hi&#7875;n th&#7883; th&#244;ng b&#225;o th&#224;nh c&#244;ng + s&#7889; l&#432;&#7907;ng &#273;&#227; l&#7853;p ch&#7881; m&#7909;c</text><rect fill="#F1F1F1" height="33.9688" rx="12.5" ry="12.5" style="stroke:#181818;stroke-width:0.5;" width="125.7559" x="394.8457" y="283.2031"/><text fill="#000000" font-family="sans-serif" font-size="12" lengthAdjust="spacing" textLength="105.7559" x="404.8457" y="304.3418">Hi&#7875;n th&#7883; l&#7895;i quy&#7873;n</text><ellipse cx="457.7236" cy="348.1719" fill="none" rx="11" ry="11" style="stroke:#222222;stroke-width:1;"/><ellipse cx="457.7236" cy="348.1719" fill="#222222" rx="6" ry="6" style="stroke:#222222;stroke-width:1;"/><ellipse cx="325.3232" cy="670.0156" fill="none" rx="11" ry="11" style="stroke:#222222;stroke-width:1;"/><ellipse cx="325.3232" cy="670.0156" fill="#222222" rx="6" ry="6" style="stroke:#222222;stroke-width:1;"/><line style="stroke:#181818;stroke-width:1;" x1="325.3232" x2="325.3232" y1="67.2969" y2="87.2969"/><polygon fill="#181818" points="321.3232,77.2969,325.3232,87.2969,329.3232,77.2969,325.3232,81.2969" style="stroke:#181818;stroke-width:1;"/><line style="stroke:#181818;stroke-width:1;" x1="325.3232" x2="325.3232" y1="121.2656" y2="141.2656"/><polygon fill="#181818" points="321.3232,131.2656,325.3232,141.2656,329.3232,131.2656,325.3232,135.2656" style="stroke:#181818;stroke-width:1;"/><line style="stroke:#181818;stroke-width:1;" x1="325.3232" x2="325.3232" y1="175.2344" y2="195.2344"/><polygon fill="#181818" points="321.3232,185.2344,325.3232,195.2344,329.3232,185.2344,325.3232,189.2344" style="stroke:#181818;stroke-width:1;"/><line style="stroke:#181818;stroke-width:1;" x1="192.9229" x2="192.9229" y1="397.1406" y2="417.1406"/><polygon fill="#181818" points="188.9229,407.1406,192.9229,417.1406,196.9229,407.1406,192.9229,411.1406" style="stroke:#181818;stroke-width:1;"/><line style="stroke:#181818;stroke-width:1;" x1="192.9229" x2="192.9229" y1="343.1719" y2="363.1719"/><polygon fill="#181818" points="188.9229,353.1719,192.9229,363.1719,196.9229,353.1719,192.9229,357.1719" style="stroke:#181818;stroke-width:1;"/><line style="stroke:#181818;stroke-width:1;" x1="192.9229" x2="192.9229" y1="451.1094" y2="471.1094"/><polygon fill="#181818" points="188.9229,461.1094,192.9229,471.1094,196.9229,461.1094,192.9229,465.1094" style="stroke:#181818;stroke-width:1;"/><line style="stroke:#181818;stroke-width:1;" x1="192.9229" x2="192.9229" y1="317.1719" y2="337.1719"/><polygon fill="#181818" points="188.9229,327.1719,192.9229,337.1719,196.9229,327.1719,192.9229,331.1719" style="stroke:#181818;stroke-width:1;"/><line style="stroke:#181818;stroke-width:1;" x1="192.9229" x2="192.9229" y1="477.1094" y2="497.1094"/><polygon fill="#181818" points="188.9229,487.1094,192.9229,497.1094,196.9229,487.1094,192.9229,491.1094" style="stroke:#181818;stroke-width:1;"/><line style="stroke:#181818;stroke-width:1;" x1="192.9229" x2="192.9229" y1="531.0781" y2="551.0781"/><polygon fill="#181818" points="188.9229,541.0781,192.9229,551.0781,196.9229,541.0781,192.9229,545.0781" style="stroke:#181818;stroke-width:1;"/><line style="stroke:#181818;stroke-width:1;" x1="192.9229" x2="192.9229" y1="585.0469" y2="605.0469"/><polygon fill="#181818" points="188.9229,595.0469,192.9229,605.0469,196.9229,595.0469,192.9229,599.0469" style="stroke:#181818;stroke-width:1;"/><line style="stroke:#181818;stroke-width:1;" x1="457.7236" x2="457.7236" y1="317.1719" y2="337.1719"/><polygon fill="#181818" points="453.7236,327.1719,457.7236,337.1719,461.7236,327.1719,457.7236,331.1719" style="stroke:#181818;stroke-width:1;"/><line style="stroke:#181818;stroke-width:1;" x1="284.988" x2="192.9229" y1="261.2031" y2="261.2031"/><line style="stroke:#181818;stroke-width:1;" x1="192.9229" x2="192.9229" y1="261.2031" y2="283.2031"/><polygon fill="#181818" points="188.9229,273.2031,192.9229,283.2031,196.9229,273.2031,192.9229,277.2031" style="stroke:#181818;stroke-width:1;"/><line style="stroke:#181818;stroke-width:1;" x1="365.6584" x2="457.7236" y1="261.2031" y2="261.2031"/><line style="stroke:#181818;stroke-width:1;" x1="457.7236" x2="457.7236" y1="261.2031" y2="283.2031"/><polygon fill="#181818" points="453.7236,273.2031,457.7236,283.2031,461.7236,273.2031,457.7236,277.2031" style="stroke:#181818;stroke-width:1;"/><line style="stroke:#181818;stroke-width:1;" x1="192.9229" x2="192.9229" y1="639.0156" y2="644.0156"/><line style="stroke:#181818;stroke-width:1;" x1="192.9229" x2="325.3232" y1="644.0156" y2="644.0156"/><line style="stroke:#181818;stroke-width:1;" x1="325.3232" x2="325.3232" y1="644.0156" y2="659.0156"/><polygon fill="#181818" points="321.3232,649.0156,325.3232,659.0156,329.3232,649.0156,325.3232,653.0156" style="stroke:#181818;stroke-width:1;"/><line style="stroke:#181818;stroke-width:1;" x1="325.3232" x2="325.3232" y1="229.2031" y2="249.2031"/><polygon fill="#181818" points="321.3232,239.2031,325.3232,249.2031,329.3232,239.2031,325.3232,243.2031" style="stroke:#181818;stroke-width:1;"/><!--SRC=[RP6nRi8m48RtFCM92LHLx6Ie41sAHAKE7ReQnn2hYKsJ2ofZrQ6gM8ewTEW2GamL4gew9KC78zx3RzAB0w9Icy4v-x_l_hCF9KO2sbteX0px6g6hK2ICezGAJg4Tn5BHMI3kuLppB1OAKyzBaINejIfrEvEsUCWWt6riyQw6T63pRmLDLihDX0tzGweARRvIKAiANb8ndQGrac_CWWDbX31c4Z0nd-1etvC3gFVClDgUDG13eQ0-4Md30_fQFQeu0QGLWTjy2R6h2cDYGbkyGhfR-2vre9DR5pXk-sABAVa5DbzGpsYB3_hjOGpDd3GqSmaHtUufyu_aDH4QHDmNGI29uQ4-u7y0eOAZRwktssGm5hoqE24lP053LhQguKegmRKI5TVgs7mzSk-rHch75ZFdPDQGKdnea9ilDTmJ5sJxg5pkjDH9WRwXJd_dagtZet9MIpShiuJ8cN4Ydo6snOhxdeXI0NMb6_yKZspn9k4kcz3OLUMUeXvvT5avyChm1m00]--></g></svg>