<svg xmlns="http://www.w3.org/2000/svg" xmlns:xlink="http://www.w3.org/1999/xlink" contentStyleType="text/css" data-diagram-type="ACTIVITY" height="518px" preserveAspectRatio="none" style="width:557px;height:518px;background:#FFFFFF;" version="1.1" viewBox="0 0 557 518" width="557px" zoomAndPan="magnify"><title>Mentor Request Handling - Mentee Receives Response</title><defs/><g><g class="title" data-source-line="1"><text fill="#000000" font-family="sans-serif" font-size="14" font-weight="bold" lengthAdjust="spacing" textLength="432.127" x="61.2314" y="32.9951">Mentor Request Handling - Mentee Receives Response</text></g><ellipse cx="353.4758" cy="57.2969" fill="#222222" rx="10" ry="10" style="stroke:#222222;stroke-width:1;"/><rect fill="#F1F1F1" height="33.9688" rx="12.5" ry="12.5" style="stroke:#181818;stroke-width:0.5;" width="223.4785" x="241.7366" y="87.2969"/><text fill="#000000" font-family="sans-serif" font-size="12" lengthAdjust="spacing" textLength="203.4785" x="251.7366" y="108.4355">Mentee &#273;i&#7873;u h&#432;&#7899;ng &#273;&#7871;n &#7913;ng d&#7909;ng</text><rect fill="#F1F1F1" height="33.9688" rx="12.5" ry="12.5" style="stroke:#181818;stroke-width:0.5;" width="183.7402" x="261.6057" y="141.2656"/><text fill="#000000" font-family="sans-serif" font-size="12" lengthAdjust="spacing" textLength="163.7402" x="271.6057" y="162.4043">Ki&#7875;m tra th&#244;ng b&#225;o &#273;&#7883;nh k&#7923;</text><polygon fill="#F1F1F1" points="301.6448,195.2344,405.3069,195.2344,417.3069,207.2344,405.3069,219.2344,301.6448,219.2344,289.6448,207.2344,301.6448,195.2344" style="stroke:#181818;stroke-width:0.5;"/><text fill="#000000" font-family="sans-serif" font-size="11" lengthAdjust="spacing" textLength="103.6621" x="301.6448" y="211.0425">C&#243; th&#244;ng b&#225;o m&#7899;i?</text><text fill="#000000" font-family="sans-serif" font-size="11" lengthAdjust="spacing" textLength="19.0083" x="270.6365" y="204.6401">yes</text><text fill="#000000" font-family="sans-serif" font-size="11" lengthAdjust="spacing" textLength="13.7017" x="417.3069" y="204.6401">no</text><rect fill="#F1F1F1" height="33.9688" rx="12.5" ry="12.5" style="stroke:#181818;stroke-width:0.5;" width="165.793" x="138.4683" y="229.2344"/><text fill="#000000" font-family="sans-serif" font-size="12" lengthAdjust="spacing" textLength="145.793" x="148.4683" y="250.373">Hi&#7875;n th&#7883; toast th&#244;ng b&#225;o</text><polygon fill="#F1F1F1" points="150.7778,283.2031,291.9517,283.2031,303.9517,295.2031,291.9517,307.2031,150.7778,307.2031,138.7778,295.2031,150.7778,283.2031" style="stroke:#181818;stroke-width:0.5;"/><text fill="#000000" font-family="sans-serif" font-size="11" lengthAdjust="spacing" textLength="141.1738" x="150.7778" y="299.0112">Y&#234;u c&#7847;u &#273;&#432;&#7907;c ch&#7845;p nh&#7853;n?</text><text fill="#000000" font-family="sans-serif" font-size="11" lengthAdjust="spacing" textLength="19.0083" x="119.7695" y="292.6089">yes</text><text fill="#000000" font-family="sans-serif" font-size="11" lengthAdjust="spacing" textLength="13.7017" x="303.9517" y="292.6089">no</text><rect fill="#F1F1F1" height="33.9688" rx="12.5" ry="12.5" style="stroke:#181818;stroke-width:0.5;" width="185.2051" x="27.8662" y="317.2031"/><text fill="#000000" font-family="sans-serif" font-size="12" lengthAdjust="spacing" textLength="165.2051" x="37.8662" y="338.3418">Chuy&#7875;n h&#432;&#7899;ng &#273;&#7871;n /mentor</text><rect fill="#F1F1F1" height="33.9688" rx="12.5" ry="12.5" style="stroke:#181818;stroke-width:0.5;" width="218.9375" x="11" y="371.1719"/><text fill="#000000" font-family="sans-serif" font-size="12" lengthAdjust="spacing" textLength="198.9375" x="21" y="392.3105">Hi&#7875;n th&#7883; chi ti&#7871;t mentor &#273;&#432;&#7907;c g&#225;n</text><rect fill="#F1F1F1" height="33.9688" rx="12.5" ry="12.5" style="stroke:#181818;stroke-width:0.5;" width="144.6465" x="249.9375" y="317.2031"/><text fill="#000000" font-family="sans-serif" font-size="12" lengthAdjust="spacing" textLength="124.6465" x="259.9375" y="338.3418">Hi&#7875;n th&#7883; l&#253; do t&#7915; ch&#7889;i</text><polygon fill="#F1F1F1" points="221.3647,411.1406,233.3647,423.1406,221.3647,435.1406,209.3647,423.1406,221.3647,411.1406" style="stroke:#181818;stroke-width:0.5;"/><rect fill="#F1F1F1" height="33.9688" rx="12.5" ry="12.5" style="stroke:#181818;stroke-width:0.5;" width="122.0059" x="424.584" y="229.2344"/><text fill="#000000" font-family="sans-serif" font-size="12" lengthAdjust="spacing" textLength="102.0059" x="434.584" y="250.373">Kh&#244;ng hi&#7875;n th&#7883; g&#236;</text><polygon fill="#F1F1F1" points="353.4758,441.1406,365.4758,453.1406,353.4758,465.1406,341.4758,453.1406,353.4758,441.1406" style="stroke:#181818;stroke-width:0.5;"/><ellipse cx="353.4758" cy="496.1406" fill="none" rx="11" ry="11" style="stroke:#222222;stroke-width:1;"/><ellipse cx="353.4758" cy="496.1406" fill="#222222" rx="6" ry="6" style="stroke:#222222;stroke-width:1;"/><line style="stroke:#181818;stroke-width:1;" x1="353.4758" x2="353.4758" y1="67.2969" y2="87.2969"/><polygon fill="#181818" points="349.4758,77.2969,353.4758,87.2969,357.4758,77.2969,353.4758,81.2969" style="stroke:#181818;stroke-width:1;"/><line style="stroke:#181818;stroke-width:1;" x1="353.4758" x2="353.4758" y1="121.2656" y2="141.2656"/><polygon fill="#181818" points="349.4758,131.2656,353.4758,141.2656,357.4758,131.2656,353.4758,135.2656" style="stroke:#181818;stroke-width:1;"/><line style="stroke:#181818;stroke-width:1;" x1="120.4688" x2="120.4688" y1="351.1719" y2="371.1719"/><polygon fill="#181818" points="116.4688,361.1719,120.4688,371.1719,124.4688,361.1719,120.4688,365.1719" style="stroke:#181818;stroke-width:1;"/><line style="stroke:#181818;stroke-width:1;" x1="138.7778" x2="120.4688" y1="295.2031" y2="295.2031"/><line style="stroke:#181818;stroke-width:1;" x1="120.4688" x2="120.4688" y1="295.2031" y2="317.2031"/><polygon fill="#181818" points="116.4688,307.2031,120.4688,317.2031,124.4688,307.2031,120.4688,311.2031" style="stroke:#181818;stroke-width:1;"/><line style="stroke:#181818;stroke-width:1;" x1="303.9517" x2="322.2607" y1="295.2031" y2="295.2031"/><line style="stroke:#181818;stroke-width:1;" x1="322.2607" x2="322.2607" y1="295.2031" y2="317.2031"/><polygon fill="#181818" points="318.2607,307.2031,322.2607,317.2031,326.2607,307.2031,322.2607,311.2031" style="stroke:#181818;stroke-width:1;"/><line style="stroke:#181818;stroke-width:1;" x1="120.4688" x2="120.4688" y1="405.1406" y2="423.1406"/><line style="stroke:#181818;stroke-width:1;" x1="120.4688" x2="209.3647" y1="423.1406" y2="423.1406"/><polygon fill="#181818" points="199.3647,419.1406,209.3647,423.1406,199.3647,427.1406,203.3647,423.1406" style="stroke:#181818;stroke-width:1;"/><line style="stroke:#181818;stroke-width:1;" x1="322.2607" x2="322.2607" y1="351.1719" y2="423.1406"/><line style="stroke:#181818;stroke-width:1;" x1="322.2607" x2="233.3647" y1="423.1406" y2="423.1406"/><polygon fill="#181818" points="243.3647,419.1406,233.3647,423.1406,243.3647,427.1406,239.3647,423.1406" style="stroke:#181818;stroke-width:1;"/><line style="stroke:#181818;stroke-width:1;" x1="221.3647" x2="221.3647" y1="263.2031" y2="283.2031"/><polygon fill="#181818" points="217.3647,273.2031,221.3647,283.2031,225.3647,273.2031,221.3647,277.2031" style="stroke:#181818;stroke-width:1;"/><line style="stroke:#181818;stroke-width:1;" x1="289.6448" x2="221.3647" y1="207.2344" y2="207.2344"/><line style="stroke:#181818;stroke-width:1;" x1="221.3647" x2="221.3647" y1="207.2344" y2="229.2344"/><polygon fill="#181818" points="217.3647,219.2344,221.3647,229.2344,225.3647,219.2344,221.3647,223.2344" style="stroke:#181818;stroke-width:1;"/><line style="stroke:#181818;stroke-width:1;" x1="417.3069" x2="485.5869" y1="207.2344" y2="207.2344"/><line style="stroke:#181818;stroke-width:1;" x1="485.5869" x2="485.5869" y1="207.2344" y2="229.2344"/><polygon fill="#181818" points="481.5869,219.2344,485.5869,229.2344,489.5869,219.2344,485.5869,223.2344" style="stroke:#181818;stroke-width:1;"/><line style="stroke:#181818;stroke-width:1;" x1="221.3647" x2="221.3647" y1="435.1406" y2="453.1406"/><line style="stroke:#181818;stroke-width:1;" x1="221.3647" x2="341.4758" y1="453.1406" y2="453.1406"/><polygon fill="#181818" points="331.4758,449.1406,341.4758,453.1406,331.4758,457.1406,335.4758,453.1406" style="stroke:#181818;stroke-width:1;"/><line style="stroke:#181818;stroke-width:1;" x1="485.5869" x2="485.5869" y1="263.2031" y2="453.1406"/><line style="stroke:#181818;stroke-width:1;" x1="485.5869" x2="365.4758" y1="453.1406" y2="453.1406"/><polygon fill="#181818" points="375.4758,449.1406,365.4758,453.1406,375.4758,457.1406,371.4758,453.1406" style="stroke:#181818;stroke-width:1;"/><line style="stroke:#181818;stroke-width:1;" x1="353.4758" x2="353.4758" y1="175.2344" y2="195.2344"/><polygon fill="#181818" points="349.4758,185.2344,353.4758,195.2344,357.4758,185.2344,353.4758,189.2344" style="stroke:#181818;stroke-width:1;"/><line style="stroke:#181818;stroke-width:1;" x1="353.4758" x2="353.4758" y1="465.1406" y2="485.1406"/><polygon fill="#181818" points="349.4758,475.1406,353.4758,485.1406,357.4758,475.1406,353.4758,479.1406" style="stroke:#181818;stroke-width:1;"/><!--SRC=[TP2_JiCm4CPtFyMDxO3Oau6XIwMAXOqn9DVO8ZcNs47gY1YPCZDLg4Byav3AL0inkE8z_2PSaafjGNYnVVVxlljigso1S8faTGLdU5MZiJ1EA2iKvN3KTH2vawAwHiC7CzDaK0XZaygAQ0ji6XNSJGto-psuUvPkch3-8WZkYIzPS4lAOn5DcBejmLO9MEa_k7NX5xg5tHr9k0nk5GirXS78hmw8abtLoP1hI32OenaAu1MDMqFYCXk0rGcdtvF57TJwdVld6jAmVgnvM9ln8OLKXlLo1iJR6_trxln7ifvt4tu_xBZi_YpUeGTHKgd0AYOjzE1kREuNrCkmC0W3qiD_J0h_2Pa66znB6zOrQgkZJ4t5eJgQzC-M-mQvVur5JnkhPpy0]--></g></svg>