<svg xmlns="http://www.w3.org/2000/svg" xmlns:xlink="http://www.w3.org/1999/xlink" contentStyleType="text/css" data-diagram-type="ACTIVITY" height="400px" preserveAspectRatio="none" style="width:571px;height:400px;background:#FFFFFF;" version="1.1" viewBox="0 0 571 400" width="571px" zoomAndPan="magnify"><title>Mentor Matching - Mentor Receives Request</title><defs/><g><g class="title" data-source-line="1"><text fill="#000000" font-family="sans-serif" font-size="14" font-weight="bold" lengthAdjust="spacing" textLength="351.1279" x="108.9106" y="32.9951">Mentor Matching - Mentor Receives Request</text></g><ellipse cx="332.4336" cy="57.2969" fill="#222222" rx="10" ry="10" style="stroke:#222222;stroke-width:1;"/><rect fill="#F1F1F1" height="33.9688" rx="12.5" ry="12.5" style="stroke:#181818;stroke-width:0.5;" width="234.3828" x="215.2422" y="87.2969"/><text fill="#000000" font-family="sans-serif" font-size="12" lengthAdjust="spacing" textLength="214.3828" x="225.2422" y="108.4355">Mentor &#273;&#259;ng nh&#7853;p ho&#7863;c &#273;i&#7873;u h&#432;&#7899;ng</text><rect fill="#F1F1F1" height="33.9688" rx="12.5" ry="12.5" style="stroke:#181818;stroke-width:0.5;" width="183.7402" x="240.5635" y="141.2656"/><text fill="#000000" font-family="sans-serif" font-size="12" lengthAdjust="spacing" textLength="163.7402" x="250.5635" y="162.4043">Ki&#7875;m tra th&#244;ng b&#225;o &#273;&#7883;nh k&#7923;</text><polygon fill="#F1F1F1" points="271.9202,195.2344,392.947,195.2344,404.947,207.2344,392.947,219.2344,271.9202,219.2344,259.9202,207.2344,271.9202,195.2344" style="stroke:#181818;stroke-width:0.5;"/><text fill="#000000" font-family="sans-serif" font-size="11" lengthAdjust="spacing" textLength="121.0269" x="271.9202" y="211.0425">C&#243; y&#234;u c&#7847;u PENDING?</text><text fill="#000000" font-family="sans-serif" font-size="11" lengthAdjust="spacing" textLength="19.0083" x="240.9119" y="204.6401">yes</text><text fill="#000000" font-family="sans-serif" font-size="11" lengthAdjust="spacing" textLength="13.7017" x="404.947" y="204.6401">no</text><rect fill="#F1F1F1" height="33.9688" rx="12.5" ry="12.5" style="stroke:#181818;stroke-width:0.5;" width="224.123" x="77.8848" y="229.2344"/><text fill="#000000" font-family="sans-serif" font-size="12" lengthAdjust="spacing" textLength="204.123" x="87.8848" y="250.373">L&#7845;y danh s&#225;ch y&#234;u c&#7847;u t&#7915; mentee</text><rect fill="#F1F1F1" height="33.9688" rx="12.5" ry="12.5" style="stroke:#181818;stroke-width:0.5;" width="357.8926" x="11" y="283.2031"/><text fill="#000000" font-family="sans-serif" font-size="12" lengthAdjust="spacing" textLength="337.8926" x="21" y="304.3418">Hi&#7875;n th&#7883; badge + danh s&#225;ch trong NotificationDropdown</text><rect fill="#F1F1F1" height="33.9688" rx="12.5" ry="12.5" style="stroke:#181818;stroke-width:0.5;" width="172.0566" x="388.8926" y="229.2344"/><text fill="#000000" font-family="sans-serif" font-size="12" lengthAdjust="spacing" textLength="152.0566" x="398.8926" y="250.373">Kh&#244;ng hi&#7875;n th&#7883; th&#244;ng b&#225;o</text><polygon fill="#F1F1F1" points="332.4336,323.1719,344.4336,335.1719,332.4336,347.1719,320.4336,335.1719,332.4336,323.1719" style="stroke:#181818;stroke-width:0.5;"/><ellipse cx="332.4336" cy="378.1719" fill="none" rx="11" ry="11" style="stroke:#222222;stroke-width:1;"/><ellipse cx="332.4336" cy="378.1719" fill="#222222" rx="6" ry="6" style="stroke:#222222;stroke-width:1;"/><line style="stroke:#181818;stroke-width:1;" x1="332.4336" x2="332.4336" y1="67.2969" y2="87.2969"/><polygon fill="#181818" points="328.4336,77.2969,332.4336,87.2969,336.4336,77.2969,332.4336,81.2969" style="stroke:#181818;stroke-width:1;"/><line style="stroke:#181818;stroke-width:1;" x1="332.4336" x2="332.4336" y1="121.2656" y2="141.2656"/><polygon fill="#181818" points="328.4336,131.2656,332.4336,141.2656,336.4336,131.2656,332.4336,135.2656" style="stroke:#181818;stroke-width:1;"/><line style="stroke:#181818;stroke-width:1;" x1="189.9463" x2="189.9463" y1="263.2031" y2="283.2031"/><polygon fill="#181818" points="185.9463,273.2031,189.9463,283.2031,193.9463,273.2031,189.9463,277.2031" style="stroke:#181818;stroke-width:1;"/><line style="stroke:#181818;stroke-width:1;" x1="259.9202" x2="189.9463" y1="207.2344" y2="207.2344"/><line style="stroke:#181818;stroke-width:1;" x1="189.9463" x2="189.9463" y1="207.2344" y2="229.2344"/><polygon fill="#181818" points="185.9463,219.2344,189.9463,229.2344,193.9463,219.2344,189.9463,223.2344" style="stroke:#181818;stroke-width:1;"/><line style="stroke:#181818;stroke-width:1;" x1="404.947" x2="474.9209" y1="207.2344" y2="207.2344"/><line style="stroke:#181818;stroke-width:1;" x1="474.9209" x2="474.9209" y1="207.2344" y2="229.2344"/><polygon fill="#181818" points="470.9209,219.2344,474.9209,229.2344,478.9209,219.2344,474.9209,223.2344" style="stroke:#181818;stroke-width:1;"/><line style="stroke:#181818;stroke-width:1;" x1="189.9463" x2="189.9463" y1="317.1719" y2="335.1719"/><line style="stroke:#181818;stroke-width:1;" x1="189.9463" x2="320.4336" y1="335.1719" y2="335.1719"/><polygon fill="#181818" points="310.4336,331.1719,320.4336,335.1719,310.4336,339.1719,314.4336,335.1719" style="stroke:#181818;stroke-width:1;"/><line style="stroke:#181818;stroke-width:1;" x1="474.9209" x2="474.9209" y1="263.2031" y2="335.1719"/><line style="stroke:#181818;stroke-width:1;" x1="474.9209" x2="344.4336" y1="335.1719" y2="335.1719"/><polygon fill="#181818" points="354.4336,331.1719,344.4336,335.1719,354.4336,339.1719,350.4336,335.1719" style="stroke:#181818;stroke-width:1;"/><line style="stroke:#181818;stroke-width:1;" x1="332.4336" x2="332.4336" y1="175.2344" y2="195.2344"/><polygon fill="#181818" points="328.4336,185.2344,332.4336,195.2344,336.4336,185.2344,332.4336,189.2344" style="stroke:#181818;stroke-width:1;"/><line style="stroke:#181818;stroke-width:1;" x1="332.4336" x2="332.4336" y1="347.1719" y2="367.1719"/><polygon fill="#181818" points="328.4336,357.1719,332.4336,367.1719,336.4336,357.1719,332.4336,361.1719" style="stroke:#181818;stroke-width:1;"/><!--SRC=[JP31IiD048Rl-nHpJ15V83dqO4MbDeXliDrCieljRfgTA3bAZvuyU-f114KGAWZ9CQNliM_YI2jaJyi__pV_lqk65WWpjEGgc4bIsjW2Jl-LMrHexj7pPLMZ9o4yoOf4V9plddThzbiTsiyIj0ljZsBHXEwn1ht_2jsBBH8HJrbPBu4g2QJxRqRc_SQnCtHFLiDTwBQ9C3b4P_qMclwz1XNQjnfkpjF9LNen7Z665g86_KW0d_WwjAyDP99fts-K7b8KkWzOSaF4vE2-_Cktl8JpO2wp0k5a25Fbk5FgoEH6IJBEJYfNPkx19W8N7Y6oxXWyFVJNmus3Dx7VPYRdVtBbBm00]--></g></svg>