<svg xmlns="http://www.w3.org/2000/svg" xmlns:xlink="http://www.w3.org/1999/xlink" contentStyleType="text/css" data-diagram-type="ACTIVITY" height="478px" preserveAspectRatio="none" style="width:538px;height:478px;background:#FFFFFF;" version="1.1" viewBox="0 0 538 478" width="538px" zoomAndPan="magnify"><title>Real-time Chat Process - Push Flow</title><defs/><g><g class="title" data-source-line="1"><text fill="#000000" font-family="sans-serif" font-size="14" font-weight="bold" lengthAdjust="spacing" textLength="279.1523" x="128.2139" y="32.9951">Real-time Chat Process - Push Flow</text></g><ellipse cx="262.187" cy="57.2969" fill="#222222" rx="10" ry="10" style="stroke:#222222;stroke-width:1;"/><rect fill="#F1F1F1" height="33.9688" rx="12.5" ry="12.5" style="stroke:#181818;stroke-width:0.5;" width="197.2695" x="163.5522" y="87.2969"/><text fill="#000000" font-family="sans-serif" font-size="12" lengthAdjust="spacing" textLength="177.2695" x="173.5522" y="108.4355">Ng&#432;&#7901;i d&#249;ng kh&#225;c g&#7917;i tin nh&#7855;n</text><rect fill="#F1F1F1" height="33.9688" rx="12.5" ry="12.5" style="stroke:#181818;stroke-width:0.5;" width="200.6211" x="161.8765" y="141.2656"/><text fill="#000000" font-family="sans-serif" font-size="12" lengthAdjust="spacing" textLength="180.6211" x="171.8765" y="162.4043">L&#432;u tin nh&#7855;n v&#224;o c&#417; s&#7903; d&#7919; li&#7879;u</text><rect fill="#F1F1F1" height="33.9688" rx="12.5" ry="12.5" style="stroke:#181818;stroke-width:0.5;" width="245.4102" x="139.4819" y="195.2344"/><text fill="#000000" font-family="sans-serif" font-size="12" lengthAdjust="spacing" textLength="225.4102" x="149.4819" y="216.373">Ph&#225;t tin nh&#7855;n &#273;&#7871;n k&#234;nh qua Socket.io</text><polygon fill="#F1F1F1" points="177.6191,249.2031,346.7549,249.2031,358.7549,261.2031,346.7549,273.2031,177.6191,273.2031,165.6191,261.2031,177.6191,249.2031" style="stroke:#181818;stroke-width:0.5;"/><text fill="#000000" font-family="sans-serif" font-size="11" lengthAdjust="spacing" textLength="169.1357" x="177.6191" y="265.0112">K&#7871;t n&#7889;i WebSocket ho&#7841;t &#273;&#7897;ng?</text><text fill="#000000" font-family="sans-serif" font-size="11" lengthAdjust="spacing" textLength="19.0083" x="146.6108" y="258.6089">yes</text><text fill="#000000" font-family="sans-serif" font-size="11" lengthAdjust="spacing" textLength="13.7017" x="358.7549" y="258.6089">no</text><rect fill="#F1F1F1" height="33.9688" rx="12.5" ry="12.5" style="stroke:#181818;stroke-width:0.5;" width="191.7734" x="32.1553" y="283.2031"/><text fill="#000000" font-family="sans-serif" font-size="12" lengthAdjust="spacing" textLength="171.7734" x="42.1553" y="304.3418">Nh&#7853;n s&#7921; ki&#7879;n 'new-message'</text><rect fill="#F1F1F1" height="33.9688" rx="12.5" ry="12.5" style="stroke:#181818;stroke-width:0.5;" width="190.7188" x="32.6826" y="337.1719"/><text fill="#000000" font-family="sans-serif" font-size="12" lengthAdjust="spacing" textLength="170.7188" x="42.6826" y="358.3105">C&#7853;p nh&#7853;t tr&#7841;ng th&#225;i tin nh&#7855;n</text><rect fill="#F1F1F1" height="33.9688" rx="12.5" ry="12.5" style="stroke:#181818;stroke-width:0.5;" width="234.084" x="11" y="391.1406"/><text fill="#000000" font-family="sans-serif" font-size="12" lengthAdjust="spacing" textLength="214.084" x="21" y="412.2793">Hi&#7875;n th&#7883; tin nh&#7855;n m&#7899;i tr&#234;n giao di&#7879;n</text><rect fill="#F1F1F1" height="33.9688" rx="12.5" ry="12.5" style="stroke:#181818;stroke-width:0.5;" width="262.4961" x="265.084" y="283.2031"/><text fill="#000000" font-family="sans-serif" font-size="12" lengthAdjust="spacing" textLength="242.4961" x="275.084" y="304.3418">Chuy&#7875;n sang ch&#7871; &#273;&#7897; Pull (HTTP fallback)</text><ellipse cx="396.332" cy="348.1719" fill="none" rx="11" ry="11" style="stroke:#222222;stroke-width:1;"/><ellipse cx="396.332" cy="348.1719" fill="#222222" rx="6" ry="6" style="stroke:#222222;stroke-width:1;"/><ellipse cx="262.187" cy="456.1094" fill="none" rx="11" ry="11" style="stroke:#222222;stroke-width:1;"/><ellipse cx="262.187" cy="456.1094" fill="#222222" rx="6" ry="6" style="stroke:#222222;stroke-width:1;"/><line style="stroke:#181818;stroke-width:1;" x1="262.187" x2="262.187" y1="67.2969" y2="87.2969"/><polygon fill="#181818" points="258.187,77.2969,262.187,87.2969,266.187,77.2969,262.187,81.2969" style="stroke:#181818;stroke-width:1;"/><line style="stroke:#181818;stroke-width:1;" x1="262.187" x2="262.187" y1="121.2656" y2="141.2656"/><polygon fill="#181818" points="258.187,131.2656,262.187,141.2656,266.187,131.2656,262.187,135.2656" style="stroke:#181818;stroke-width:1;"/><line style="stroke:#181818;stroke-width:1;" x1="262.187" x2="262.187" y1="175.2344" y2="195.2344"/><polygon fill="#181818" points="258.187,185.2344,262.187,195.2344,266.187,185.2344,262.187,189.2344" style="stroke:#181818;stroke-width:1;"/><line style="stroke:#181818;stroke-width:1;" x1="128.042" x2="128.042" y1="317.1719" y2="337.1719"/><polygon fill="#181818" points="124.042,327.1719,128.042,337.1719,132.042,327.1719,128.042,331.1719" style="stroke:#181818;stroke-width:1;"/><line style="stroke:#181818;stroke-width:1;" x1="128.042" x2="128.042" y1="371.1406" y2="391.1406"/><polygon fill="#181818" points="124.042,381.1406,128.042,391.1406,132.042,381.1406,128.042,385.1406" style="stroke:#181818;stroke-width:1;"/><line style="stroke:#181818;stroke-width:1;" x1="396.332" x2="396.332" y1="317.1719" y2="337.1719"/><polygon fill="#181818" points="392.332,327.1719,396.332,337.1719,400.332,327.1719,396.332,331.1719" style="stroke:#181818;stroke-width:1;"/><line style="stroke:#181818;stroke-width:1;" x1="165.6191" x2="128.042" y1="261.2031" y2="261.2031"/><line style="stroke:#181818;stroke-width:1;" x1="128.042" x2="128.042" y1="261.2031" y2="283.2031"/><polygon fill="#181818" points="124.042,273.2031,128.042,283.2031,132.042,273.2031,128.042,277.2031" style="stroke:#181818;stroke-width:1;"/><line style="stroke:#181818;stroke-width:1;" x1="358.7549" x2="396.332" y1="261.2031" y2="261.2031"/><line style="stroke:#181818;stroke-width:1;" x1="396.332" x2="396.332" y1="261.2031" y2="283.2031"/><polygon fill="#181818" points="392.332,273.2031,396.332,283.2031,400.332,273.2031,396.332,277.2031" style="stroke:#181818;stroke-width:1;"/><line style="stroke:#181818;stroke-width:1;" x1="128.042" x2="128.042" y1="425.1094" y2="430.1094"/><line style="stroke:#181818;stroke-width:1;" x1="128.042" x2="262.187" y1="430.1094" y2="430.1094"/><line style="stroke:#181818;stroke-width:1;" x1="262.187" x2="262.187" y1="430.1094" y2="445.1094"/><polygon fill="#181818" points="258.187,435.1094,262.187,445.1094,266.187,435.1094,262.187,439.1094" style="stroke:#181818;stroke-width:1;"/><line style="stroke:#181818;stroke-width:1;" x1="262.187" x2="262.187" y1="229.2031" y2="249.2031"/><polygon fill="#181818" points="258.187,239.2031,262.187,249.2031,266.187,239.2031,262.187,243.2031" style="stroke:#181818;stroke-width:1;"/><!--SRC=[LP0nJm8n7CNtVegtSGpu0RZ1WSIGQCX5IPpBKUwQAorUUn9c1mSdHcECifeGS9GE3cVu7lqc_ZaSi5FJ__l_tdjrqYc1Qy5LnycfG2_d3abfKc4jEaWgc-D2cJbZrl7IiUuWss-3VvKOrrywGv7NgnHPy6i99pLq7dOR7RFkrNvRdRpWldutIFShsE3VC0v-0oM3Vwn8cn34dOf_bc7thL7K7ph7NSLnOz92k3DfOYOdY2vfxA23NqhSYj5nYjo47N5esJ_hxBmDbmkDQ25icu5ETq3qjJua-4HnCDTeQJ7lJAaipqGhFifwf9erKTQKgYGe5NMKyN_5Hjidp8EcQV1FfmscmR-GlAG6o2Gt63T-CHFA2aJQ_4NgvTMY8LXE9YajVnyBqDShXQW_72QOSAL6F2tQHrFhp8m9FPOJThZ-0W00]--></g></svg>