<svg xmlns="http://www.w3.org/2000/svg" xmlns:xlink="http://www.w3.org/1999/xlink" contentStyleType="text/css" data-diagram-type="ACTIVITY" height="634px" preserveAspectRatio="none" style="width:721px;height:634px;background:#FFFFFF;" version="1.1" viewBox="0 0 721 634" width="721px" zoomAndPan="magnify"><title>Authentication Process - Refresh Token Flow</title><defs/><g><g class="title" data-source-line="1"><text fill="#000000" font-family="sans-serif" font-size="14" font-weight="bold" lengthAdjust="spacing" textLength="354.5801" x="182.084" y="32.9951">Authentication Process - Refresh Token Flow</text></g><ellipse cx="476.2526" cy="57.2969" fill="#222222" rx="10" ry="10" style="stroke:#222222;stroke-width:1;"/><rect fill="#F1F1F1" height="33.9688" rx="12.5" ry="12.5" style="stroke:#181818;stroke-width:0.5;" width="220.8652" x="365.8199" y="87.2969"/><text fill="#000000" font-family="sans-serif" font-size="12" lengthAdjust="spacing" textLength="200.8652" x="375.8199" y="108.4355">Ng&#432;&#7901;i d&#249;ng y&#234;u c&#7847;u trang b&#7843;o v&#7879;</text><rect fill="#F1F1F1" height="33.9688" rx="12.5" ry="12.5" style="stroke:#181818;stroke-width:0.5;" width="162.0781" x="395.2135" y="141.2656"/><text fill="#000000" font-family="sans-serif" font-size="12" lengthAdjust="spacing" textLength="142.0781" x="405.2135" y="162.4043">Ki&#7875;m tra session cookie</text><polygon fill="#F1F1F1" points="433.598,195.2344,518.9071,195.2344,530.9071,207.2344,518.9071,219.2344,433.598,219.2344,421.598,207.2344,433.598,195.2344" style="stroke:#181818;stroke-width:0.5;"/><text fill="#000000" font-family="sans-serif" font-size="11" lengthAdjust="spacing" textLength="85.3091" x="433.598" y="211.0425">Session h&#7907;p l&#7879;?</text><text fill="#000000" font-family="sans-serif" font-size="11" lengthAdjust="spacing" textLength="19.0083" x="402.5897" y="204.6401">yes</text><text fill="#000000" font-family="sans-serif" font-size="11" lengthAdjust="spacing" textLength="13.7017" x="530.9071" y="204.6401">no</text><rect fill="#F1F1F1" height="33.9688" rx="12.5" ry="12.5" style="stroke:#181818;stroke-width:0.5;" width="140.5684" x="248.2375" y="229.2344"/><text fill="#000000" font-family="sans-serif" font-size="12" lengthAdjust="spacing" textLength="120.5684" x="258.2375" y="250.373">X&#225;c minh JWT token</text><polygon fill="#F1F1F1" points="275.9585,283.2031,361.085,283.2031,373.085,295.2031,361.085,307.2031,275.9585,307.2031,263.9585,295.2031,275.9585,283.2031" style="stroke:#181818;stroke-width:0.5;"/><text fill="#000000" font-family="sans-serif" font-size="11" lengthAdjust="spacing" textLength="85.1265" x="275.9585" y="299.0112">Token h&#7871;t h&#7841;n?</text><text fill="#000000" font-family="sans-serif" font-size="11" lengthAdjust="spacing" textLength="19.0083" x="244.9502" y="292.6089">yes</text><text fill="#000000" font-family="sans-serif" font-size="11" lengthAdjust="spacing" textLength="13.7017" x="373.085" y="292.6089">no</text><rect fill="#F1F1F1" height="33.9688" rx="12.5" ry="12.5" style="stroke:#181818;stroke-width:0.5;" width="241.7832" x="62.563" y="317.2031"/><text fill="#000000" font-family="sans-serif" font-size="12" lengthAdjust="spacing" textLength="221.7832" x="72.563" y="338.3418">L&#7845;y th&#244;ng tin ng&#432;&#7901;i d&#249;ng b&#7857;ng email</text><polygon fill="#F1F1F1" points="129.2898,371.1719,237.6194,371.1719,249.6194,383.1719,237.6194,395.1719,129.2898,395.1719,117.2898,383.1719,129.2898,371.1719" style="stroke:#181818;stroke-width:0.5;"/><text fill="#000000" font-family="sans-serif" font-size="11" lengthAdjust="spacing" textLength="108.3296" x="129.2898" y="386.98">Ng&#432;&#7901;i d&#249;ng t&#7891;n t&#7841;i?</text><text fill="#000000" font-family="sans-serif" font-size="11" lengthAdjust="spacing" textLength="19.0083" x="98.2815" y="380.5776">yes</text><text fill="#000000" font-family="sans-serif" font-size="11" lengthAdjust="spacing" textLength="13.7017" x="249.6194" y="380.5776">no</text><rect fill="#F1F1F1" height="33.9688" rx="12.5" ry="12.5" style="stroke:#181818;stroke-width:0.5;" width="132.5527" x="27.4385" y="405.1719"/><text fill="#000000" font-family="sans-serif" font-size="12" lengthAdjust="spacing" textLength="112.5527" x="37.4385" y="426.3105">T&#7841;o JWT token m&#7899;i</text><rect fill="#F1F1F1" height="33.9688" rx="12.5" ry="12.5" style="stroke:#181818;stroke-width:0.5;" width="165.4297" x="11" y="459.1406"/><text fill="#000000" font-family="sans-serif" font-size="12" lengthAdjust="spacing" textLength="145.4297" x="21" y="480.2793">C&#7853;p nh&#7853;t session cookie</text><rect fill="#F1F1F1" height="33.9688" rx="12.5" ry="12.5" style="stroke:#181818;stroke-width:0.5;" width="147.2598" x="20.085" y="513.1094"/><text fill="#000000" font-family="sans-serif" font-size="12" lengthAdjust="spacing" textLength="127.2598" x="30.085" y="534.248">Hi&#7875;n th&#7883; trang b&#7843;o v&#7879;</text><rect fill="#F1F1F1" height="33.9688" rx="12.5" ry="12.5" style="stroke:#181818;stroke-width:0.5;" width="153.5293" x="196.4297" y="405.1719"/><text fill="#000000" font-family="sans-serif" font-size="12" lengthAdjust="spacing" textLength="133.5293" x="206.4297" y="426.3105">Y&#234;u c&#7847;u &#273;&#259;ng nh&#7853;p l&#7841;i</text><ellipse cx="273.1943" cy="470.1406" fill="none" rx="11" ry="11" style="stroke:#222222;stroke-width:1;"/><ellipse cx="273.1943" cy="470.1406" fill="#222222" rx="6" ry="6" style="stroke:#222222;stroke-width:1;"/><rect fill="#F1F1F1" height="33.9688" rx="12.5" ry="12.5" style="stroke:#181818;stroke-width:0.5;" width="147.2598" x="379.959" y="317.2031"/><text fill="#000000" font-family="sans-serif" font-size="12" lengthAdjust="spacing" textLength="127.2598" x="389.959" y="338.3418">Hi&#7875;n th&#7883; trang b&#7843;o v&#7879;</text><polygon fill="#F1F1F1" points="318.5217,557.0781,330.5217,569.0781,318.5217,581.0781,306.5217,569.0781,318.5217,557.0781" style="stroke:#181818;stroke-width:0.5;"/><rect fill="#F1F1F1" height="33.9688" rx="12.5" ry="12.5" style="stroke:#181818;stroke-width:0.5;" width="153.5293" x="557.2188" y="229.2344"/><text fill="#000000" font-family="sans-serif" font-size="12" lengthAdjust="spacing" textLength="133.5293" x="567.2188" y="250.373">Y&#234;u c&#7847;u &#273;&#259;ng nh&#7853;p l&#7841;i</text><ellipse cx="633.9834" cy="294.2031" fill="none" rx="11" ry="11" style="stroke:#222222;stroke-width:1;"/><ellipse cx="633.9834" cy="294.2031" fill="#222222" rx="6" ry="6" style="stroke:#222222;stroke-width:1;"/><ellipse cx="476.2526" cy="612.0781" fill="none" rx="11" ry="11" style="stroke:#222222;stroke-width:1;"/><ellipse cx="476.2526" cy="612.0781" fill="#222222" rx="6" ry="6" style="stroke:#222222;stroke-width:1;"/><line style="stroke:#181818;stroke-width:1;" x1="476.2526" x2="476.2526" y1="67.2969" y2="87.2969"/><polygon fill="#181818" points="472.2526,77.2969,476.2526,87.2969,480.2526,77.2969,476.2526,81.2969" style="stroke:#181818;stroke-width:1;"/><line style="stroke:#181818;stroke-width:1;" x1="476.2526" x2="476.2526" y1="121.2656" y2="141.2656"/><polygon fill="#181818" points="472.2526,131.2656,476.2526,141.2656,480.2526,131.2656,476.2526,135.2656" style="stroke:#181818;stroke-width:1;"/><line style="stroke:#181818;stroke-width:1;" x1="93.7148" x2="93.7148" y1="439.1406" y2="459.1406"/><polygon fill="#181818" points="89.7148,449.1406,93.7148,459.1406,97.7148,449.1406,93.7148,453.1406" style="stroke:#181818;stroke-width:1;"/><line style="stroke:#181818;stroke-width:1;" x1="93.7148" x2="93.7148" y1="493.1094" y2="513.1094"/><polygon fill="#181818" points="89.7148,503.1094,93.7148,513.1094,97.7148,503.1094,93.7148,507.1094" style="stroke:#181818;stroke-width:1;"/><line style="stroke:#181818;stroke-width:1;" x1="273.1943" x2="273.1943" y1="439.1406" y2="459.1406"/><polygon fill="#181818" points="269.1943,449.1406,273.1943,459.1406,277.1943,449.1406,273.1943,453.1406" style="stroke:#181818;stroke-width:1;"/><line style="stroke:#181818;stroke-width:1;" x1="117.2898" x2="93.7148" y1="383.1719" y2="383.1719"/><line style="stroke:#181818;stroke-width:1;" x1="93.7148" x2="93.7148" y1="383.1719" y2="405.1719"/><polygon fill="#181818" points="89.7148,395.1719,93.7148,405.1719,97.7148,395.1719,93.7148,399.1719" style="stroke:#181818;stroke-width:1;"/><line style="stroke:#181818;stroke-width:1;" x1="249.6194" x2="273.1943" y1="383.1719" y2="383.1719"/><line style="stroke:#181818;stroke-width:1;" x1="273.1943" x2="273.1943" y1="383.1719" y2="405.1719"/><polygon fill="#181818" points="269.1943,395.1719,273.1943,405.1719,277.1943,395.1719,273.1943,399.1719" style="stroke:#181818;stroke-width:1;"/><line style="stroke:#181818;stroke-width:1;" x1="93.7148" x2="93.7148" y1="547.0781" y2="569.0781"/><line style="stroke:#181818;stroke-width:1;" x1="93.7148" x2="306.5217" y1="569.0781" y2="569.0781"/><polygon fill="#181818" points="296.5217,565.0781,306.5217,569.0781,296.5217,573.0781,300.5217,569.0781" style="stroke:#181818;stroke-width:1;"/><line style="stroke:#181818;stroke-width:1;" x1="183.4546" x2="183.4546" y1="351.1719" y2="371.1719"/><polygon fill="#181818" points="179.4546,361.1719,183.4546,371.1719,187.4546,361.1719,183.4546,365.1719" style="stroke:#181818;stroke-width:1;"/><line style="stroke:#181818;stroke-width:1;" x1="263.9585" x2="183.4546" y1="295.2031" y2="295.2031"/><line style="stroke:#181818;stroke-width:1;" x1="183.4546" x2="183.4546" y1="295.2031" y2="317.2031"/><polygon fill="#181818" points="179.4546,307.2031,183.4546,317.2031,187.4546,307.2031,183.4546,311.2031" style="stroke:#181818;stroke-width:1;"/><line style="stroke:#181818;stroke-width:1;" x1="373.085" x2="453.5889" y1="295.2031" y2="295.2031"/><line style="stroke:#181818;stroke-width:1;" x1="453.5889" x2="453.5889" y1="295.2031" y2="317.2031"/><polygon fill="#181818" points="449.5889,307.2031,453.5889,317.2031,457.5889,307.2031,453.5889,311.2031" style="stroke:#181818;stroke-width:1;"/><line style="stroke:#181818;stroke-width:1;" x1="453.5889" x2="453.5889" y1="351.1719" y2="569.0781"/><line style="stroke:#181818;stroke-width:1;" x1="453.5889" x2="330.5217" y1="569.0781" y2="569.0781"/><polygon fill="#181818" points="340.5217,565.0781,330.5217,569.0781,340.5217,573.0781,336.5217,569.0781" style="stroke:#181818;stroke-width:1;"/><line style="stroke:#181818;stroke-width:1;" x1="318.5217" x2="318.5217" y1="263.2031" y2="283.2031"/><polygon fill="#181818" points="314.5217,273.2031,318.5217,283.2031,322.5217,273.2031,318.5217,277.2031" style="stroke:#181818;stroke-width:1;"/><line style="stroke:#181818;stroke-width:1;" x1="633.9834" x2="633.9834" y1="263.2031" y2="283.2031"/><polygon fill="#181818" points="629.9834,273.2031,633.9834,283.2031,637.9834,273.2031,633.9834,277.2031" style="stroke:#181818;stroke-width:1;"/><line style="stroke:#181818;stroke-width:1;" x1="421.598" x2="318.5217" y1="207.2344" y2="207.2344"/><line style="stroke:#181818;stroke-width:1;" x1="318.5217" x2="318.5217" y1="207.2344" y2="229.2344"/><polygon fill="#181818" points="314.5217,219.2344,318.5217,229.2344,322.5217,219.2344,318.5217,223.2344" style="stroke:#181818;stroke-width:1;"/><line style="stroke:#181818;stroke-width:1;" x1="530.9071" x2="633.9834" y1="207.2344" y2="207.2344"/><line style="stroke:#181818;stroke-width:1;" x1="633.9834" x2="633.9834" y1="207.2344" y2="229.2344"/><polygon fill="#181818" points="629.9834,219.2344,633.9834,229.2344,637.9834,219.2344,633.9834,223.2344" style="stroke:#181818;stroke-width:1;"/><line style="stroke:#181818;stroke-width:1;" x1="318.5217" x2="318.5217" y1="581.0781" y2="586.0781"/><line style="stroke:#181818;stroke-width:1;" x1="318.5217" x2="476.2526" y1="586.0781" y2="586.0781"/><line style="stroke:#181818;stroke-width:1;" x1="476.2526" x2="476.2526" y1="586.0781" y2="601.0781"/><polygon fill="#181818" points="472.2526,591.0781,476.2526,601.0781,480.2526,591.0781,476.2526,595.0781" style="stroke:#181818;stroke-width:1;"/><line style="stroke:#181818;stroke-width:1;" x1="476.2526" x2="476.2526" y1="175.2344" y2="195.2344"/><polygon fill="#181818" points="472.2526,185.2344,476.2526,195.2344,480.2526,185.2344,476.2526,189.2344" style="stroke:#181818;stroke-width:1;"/><!--SRC=[ZP71IiD048Rl-nHpR0- -G7CG4KHKH3IW7cEwROOckoKxKNhkmOCdyIWUIX51A2XuCJbuIF4zzasSJTMGjeVci0axy___DnD2YYNiP1H9HHW6X5h1IQf3QGnimQdifT94uEk1LB0NwniX30KfYSvn__lD5ay8tV9JzM5KlcOGslmb0qe3lhYo-LJ3jIrkFT4vH5kC4rS1myuk9DHwWD8Js8FMsUzTP8lf46BMRBV18K5h94rR03-TYt8IGe8gWeDp7yWHULN5EIm08vj_aJidQjMWCZco-VE8A-K78n8gKCqncFgTNp89CFR-PIvXQLwonOFYCv_W-gWgpkUwhdaXiSKZUisUNPlFXg2OUaOhssbqxhijSYYlwMxDbl_wP6maj9HUOhci_z3yVZvcSPNfzir3DACCwM7jfxhO4-kTDs5Qw9lQZMWgYeNQVVu0]--></g></svg>