<svg xmlns="http://www.w3.org/2000/svg" xmlns:xlink="http://www.w3.org/1999/xlink" contentStyleType="text/css" data-diagram-type="ACTIVITY" height="620px" preserveAspectRatio="none" style="width:536px;height:620px;background:#FFFFFF;" version="1.1" viewBox="0 0 536 620" width="536px" zoomAndPan="magnify"><title>Mentor Request Handling - Reject Request</title><defs/><g><g class="title" data-source-line="1"><text fill="#000000" font-family="sans-serif" font-size="14" font-weight="bold" lengthAdjust="spacing" textLength="336.6563" x="98.2588" y="32.9951">Mentor Request Handling - Reject Request</text></g><ellipse cx="360.3701" cy="57.2969" fill="#222222" rx="10" ry="10" style="stroke:#222222;stroke-width:1;"/><rect fill="#F1F1F1" height="33.9688" rx="12.5" ry="12.5" style="stroke:#181818;stroke-width:0.5;" width="154.7891" x="282.9756" y="87.2969"/><text fill="#000000" font-family="sans-serif" font-size="12" lengthAdjust="spacing" textLength="134.7891" x="292.9756" y="108.4355">Mentor nh&#7845;n "T&#7915; ch&#7889;i"</text><rect fill="#F1F1F1" height="33.9688" rx="12.5" ry="12.5" style="stroke:#181818;stroke-width:0.5;" width="210.5352" x="255.1025" y="141.2656"/><text fill="#000000" font-family="sans-serif" font-size="12" lengthAdjust="spacing" textLength="190.5352" x="265.1025" y="162.4043">Hi&#7875;n th&#7883; &#244; nh&#7853;p l&#253; do (t&#249;y ch&#7885;n)</text><rect fill="#F1F1F1" height="33.9688" rx="12.5" ry="12.5" style="stroke:#181818;stroke-width:0.5;" width="202.0625" x="259.3389" y="195.2344"/><text fill="#000000" font-family="sans-serif" font-size="12" lengthAdjust="spacing" textLength="182.0625" x="269.3389" y="216.373">Mentor nh&#7853;p l&#253; do + x&#225;c nh&#7853;n</text><polygon fill="#F1F1F1" points="311.1709,249.2031,409.5693,249.2031,421.5693,261.2031,409.5693,273.2031,311.1709,273.2031,299.1709,261.2031,311.1709,249.2031" style="stroke:#181818;stroke-width:0.5;"/><text fill="#000000" font-family="sans-serif" font-size="11" lengthAdjust="spacing" textLength="98.3984" x="311.1709" y="265.0112">X&#225;c nh&#7853;n t&#7915; ch&#7889;i?</text><text fill="#000000" font-family="sans-serif" font-size="11" lengthAdjust="spacing" textLength="19.0083" x="280.1626" y="258.6089">yes</text><text fill="#000000" font-family="sans-serif" font-size="11" lengthAdjust="spacing" textLength="13.7017" x="421.5693" y="258.6089">no</text><rect fill="#F1F1F1" height="33.9688" rx="12.5" ry="12.5" style="stroke:#181818;stroke-width:0.5;" width="217.0156" x="131.333" y="283.2031"/><text fill="#000000" font-family="sans-serif" font-size="12" lengthAdjust="spacing" textLength="197.0156" x="141.333" y="304.3418">X&#225;c minh phi&#234;n v&#224; quy&#7873;n s&#7903; h&#7919;u</text><polygon fill="#F1F1F1" points="219.2695,337.1719,260.4121,337.1719,272.4121,349.1719,260.4121,361.1719,219.2695,361.1719,207.2695,349.1719,219.2695,337.1719" style="stroke:#181818;stroke-width:0.5;"/><text fill="#000000" font-family="sans-serif" font-size="11" lengthAdjust="spacing" textLength="41.1426" x="219.2695" y="352.98">H&#7907;p l&#7879;?</text><text fill="#000000" font-family="sans-serif" font-size="11" lengthAdjust="spacing" textLength="19.0083" x="188.2612" y="346.5776">yes</text><text fill="#000000" font-family="sans-serif" font-size="11" lengthAdjust="spacing" textLength="13.7017" x="272.4121" y="346.5776">no</text><rect fill="#F1F1F1" height="33.9688" rx="12.5" ry="12.5" style="stroke:#181818;stroke-width:0.5;" width="239.3516" x="16.2588" y="371.1719"/><text fill="#000000" font-family="sans-serif" font-size="12" lengthAdjust="spacing" textLength="219.3516" x="26.2588" y="392.3105">C&#7853;p nh&#7853;t tr&#7841;ng th&#225;i th&#224;nh REJECTED</text><rect fill="#F1F1F1" height="33.9688" rx="12.5" ry="12.5" style="stroke:#181818;stroke-width:0.5;" width="244.2969" x="13.7861" y="425.1406"/><text fill="#000000" font-family="sans-serif" font-size="12" lengthAdjust="spacing" textLength="224.2969" x="23.7861" y="446.2793">G&#7917;i th&#244;ng b&#225;o k&#232;m l&#253; do &#273;&#7871;n mentee</text><rect fill="#F1F1F1" height="33.9688" rx="12.5" ry="12.5" style="stroke:#181818;stroke-width:0.5;" width="249.8691" x="11" y="479.1094"/><text fill="#000000" font-family="sans-serif" font-size="12" lengthAdjust="spacing" textLength="229.8691" x="21" y="500.248">X&#243;a th&#244;ng b&#225;o kh&#7887;i danh s&#225;ch mentor</text><rect fill="#F1F1F1" height="33.9688" rx="12.5" ry="12.5" style="stroke:#181818;stroke-width:0.5;" width="90.5703" x="90.6494" y="533.0781"/><text fill="#000000" font-family="sans-serif" font-size="12" lengthAdjust="spacing" textLength="70.5703" x="100.6494" y="554.2168">C&#7853;p nh&#7853;t UI</text><rect fill="#F1F1F1" height="33.9688" rx="12.5" ry="12.5" style="stroke:#181818;stroke-width:0.5;" width="125.7559" x="280.8691" y="371.1719"/><text fill="#000000" font-family="sans-serif" font-size="12" lengthAdjust="spacing" textLength="105.7559" x="290.8691" y="392.3105">Hi&#7875;n th&#7883; l&#7895;i quy&#7873;n</text><ellipse cx="343.7471" cy="436.1406" fill="none" rx="11" ry="11" style="stroke:#222222;stroke-width:1;"/><ellipse cx="343.7471" cy="436.1406" fill="#222222" rx="6" ry="6" style="stroke:#222222;stroke-width:1;"/><rect fill="#F1F1F1" height="33.9688" rx="12.5" ry="12.5" style="stroke:#181818;stroke-width:0.5;" width="88.5488" x="436.625" y="283.2031"/><text fill="#000000" font-family="sans-serif" font-size="12" lengthAdjust="spacing" textLength="68.5488" x="446.625" y="304.3418">H&#7911;y t&#7915; ch&#7889;i</text><ellipse cx="480.8994" cy="348.1719" fill="none" rx="11" ry="11" style="stroke:#222222;stroke-width:1;"/><ellipse cx="480.8994" cy="348.1719" fill="#222222" rx="6" ry="6" style="stroke:#222222;stroke-width:1;"/><ellipse cx="360.3701" cy="598.0469" fill="none" rx="11" ry="11" style="stroke:#222222;stroke-width:1;"/><ellipse cx="360.3701" cy="598.0469" fill="#222222" rx="6" ry="6" style="stroke:#222222;stroke-width:1;"/><line style="stroke:#181818;stroke-width:1;" x1="360.3701" x2="360.3701" y1="67.2969" y2="87.2969"/><polygon fill="#181818" points="356.3701,77.2969,360.3701,87.2969,364.3701,77.2969,360.3701,81.2969" style="stroke:#181818;stroke-width:1;"/><line style="stroke:#181818;stroke-width:1;" x1="360.3701" x2="360.3701" y1="121.2656" y2="141.2656"/><polygon fill="#181818" points="356.3701,131.2656,360.3701,141.2656,364.3701,131.2656,360.3701,135.2656" style="stroke:#181818;stroke-width:1;"/><line style="stroke:#181818;stroke-width:1;" x1="360.3701" x2="360.3701" y1="175.2344" y2="195.2344"/><polygon fill="#181818" points="356.3701,185.2344,360.3701,195.2344,364.3701,185.2344,360.3701,189.2344" style="stroke:#181818;stroke-width:1;"/><line style="stroke:#181818;stroke-width:1;" x1="135.9346" x2="135.9346" y1="405.1406" y2="425.1406"/><polygon fill="#181818" points="131.9346,415.1406,135.9346,425.1406,139.9346,415.1406,135.9346,419.1406" style="stroke:#181818;stroke-width:1;"/><line style="stroke:#181818;stroke-width:1;" x1="135.9346" x2="135.9346" y1="459.1094" y2="479.1094"/><polygon fill="#181818" points="131.9346,469.1094,135.9346,479.1094,139.9346,469.1094,135.9346,473.1094" style="stroke:#181818;stroke-width:1;"/><line style="stroke:#181818;stroke-width:1;" x1="135.9346" x2="135.9346" y1="513.0781" y2="533.0781"/><polygon fill="#181818" points="131.9346,523.0781,135.9346,533.0781,139.9346,523.0781,135.9346,527.0781" style="stroke:#181818;stroke-width:1;"/><line style="stroke:#181818;stroke-width:1;" x1="343.7471" x2="343.7471" y1="405.1406" y2="425.1406"/><polygon fill="#181818" points="339.7471,415.1406,343.7471,425.1406,347.7471,415.1406,343.7471,419.1406" style="stroke:#181818;stroke-width:1;"/><line style="stroke:#181818;stroke-width:1;" x1="207.2695" x2="135.9346" y1="349.1719" y2="349.1719"/><line style="stroke:#181818;stroke-width:1;" x1="135.9346" x2="135.9346" y1="349.1719" y2="371.1719"/><polygon fill="#181818" points="131.9346,361.1719,135.9346,371.1719,139.9346,361.1719,135.9346,365.1719" style="stroke:#181818;stroke-width:1;"/><line style="stroke:#181818;stroke-width:1;" x1="272.4121" x2="343.7471" y1="349.1719" y2="349.1719"/><line style="stroke:#181818;stroke-width:1;" x1="343.7471" x2="343.7471" y1="349.1719" y2="371.1719"/><polygon fill="#181818" points="339.7471,361.1719,343.7471,371.1719,347.7471,361.1719,343.7471,365.1719" style="stroke:#181818;stroke-width:1;"/><line style="stroke:#181818;stroke-width:1;" x1="135.9346" x2="135.9346" y1="567.0469" y2="572.0469"/><line style="stroke:#181818;stroke-width:1;" x1="135.9346" x2="360.3701" y1="572.0469" y2="572.0469"/><line style="stroke:#181818;stroke-width:1;" x1="360.3701" x2="360.3701" y1="572.0469" y2="587.0469"/><polygon fill="#181818" points="356.3701,577.0469,360.3701,587.0469,364.3701,577.0469,360.3701,581.0469" style="stroke:#181818;stroke-width:1;"/><line style="stroke:#181818;stroke-width:1;" x1="239.8408" x2="239.8408" y1="317.1719" y2="337.1719"/><polygon fill="#181818" points="235.8408,327.1719,239.8408,337.1719,243.8408,327.1719,239.8408,331.1719" style="stroke:#181818;stroke-width:1;"/><line style="stroke:#181818;stroke-width:1;" x1="480.8994" x2="480.8994" y1="317.1719" y2="337.1719"/><polygon fill="#181818" points="476.8994,327.1719,480.8994,337.1719,484.8994,327.1719,480.8994,331.1719" style="stroke:#181818;stroke-width:1;"/><line style="stroke:#181818;stroke-width:1;" x1="299.1709" x2="239.8408" y1="261.2031" y2="261.2031"/><line style="stroke:#181818;stroke-width:1;" x1="239.8408" x2="239.8408" y1="261.2031" y2="283.2031"/><polygon fill="#181818" points="235.8408,273.2031,239.8408,283.2031,243.8408,273.2031,239.8408,277.2031" style="stroke:#181818;stroke-width:1;"/><line style="stroke:#181818;stroke-width:1;" x1="421.5693" x2="480.8994" y1="261.2031" y2="261.2031"/><line style="stroke:#181818;stroke-width:1;" x1="480.8994" x2="480.8994" y1="261.2031" y2="283.2031"/><polygon fill="#181818" points="476.8994,273.2031,480.8994,283.2031,484.8994,273.2031,480.8994,277.2031" style="stroke:#181818;stroke-width:1;"/><line style="stroke:#181818;stroke-width:1;" x1="360.3701" x2="360.3701" y1="229.2031" y2="249.2031"/><polygon fill="#181818" points="356.3701,239.2031,360.3701,249.2031,364.3701,239.2031,360.3701,243.2031" style="stroke:#181818;stroke-width:1;"/><!--SRC=[TP71IiD048Rl-nH3JodY2oG73xLO1I-bGg-nsPhLTD8cMp57yU11H7hoQ8E8efGUxCKkuc5zaNqJfnjB6iGSGfZvl_-VcKWX8mw776MSG9kFnZoLqF8nY0IUm3QLJdbFhZkCfT9F97D_0GpDyWcXrZ7g3NgXKHDHyvZR4aPT8KWgt81UMDbi297-X206H-gFpAfliUvLl4hH5bpel5SKqMEY3qwtB80i0tVg5CGHd8odTGRqk5Ov41Z2C1Jw5U5SJs4qpeowH4YDUW0YvsFFgbVMBQCUATgewxzkrh5XPxFX4cHYbZbTHuOw5wltb9BQpODcezFSzKfepwYPxIz8VApp6Cxqos2zuVV4BByG1hGzvnjKLx_xLOY6lHCG-9IIqcQXPUB4-sUye_sYmwEKWuFnnXgL7qFhtelrMKgpLCR3WiT0z5dLnQLBFMURvoz02nN0wlC7]--></g></svg>