<svg xmlns="http://www.w3.org/2000/svg" xmlns:xlink="http://www.w3.org/1999/xlink" contentStyleType="text/css" data-diagram-type="ACTIVITY" height="902px" preserveAspectRatio="none" style="width:731px;height:902px;background:#FFFFFF;" version="1.1" viewBox="0 0 731 902" width="731px" zoomAndPan="magnify"><title>Real-time Chat Process - Send Message with Files Flow</title><defs/><g><g class="title" data-source-line="1"><text fill="#000000" font-family="sans-serif" font-size="14" font-weight="bold" lengthAdjust="spacing" textLength="435.251" x="146.8481" y="32.9951">Real-time Chat Process - Send Message with Files Flow</text></g><ellipse cx="486.6682" cy="57.2969" fill="#222222" rx="10" ry="10" style="stroke:#222222;stroke-width:1;"/><rect fill="#F1F1F1" height="33.9688" rx="12.5" ry="12.5" style="stroke:#181818;stroke-width:0.5;" width="251.3281" x="361.0042" y="87.2969"/><text fill="#000000" font-family="sans-serif" font-size="12" lengthAdjust="spacing" textLength="231.3281" x="371.0042" y="108.4355">Ng&#432;&#7901;i d&#249;ng ch&#7885;n t&#7879;p v&#224; nh&#7853;p tin nh&#7855;n</text><rect fill="#F1F1F1" height="33.9688" rx="12.5" ry="12.5" style="stroke:#181818;stroke-width:0.5;" width="181.7012" x="395.8176" y="141.2656"/><text fill="#000000" font-family="sans-serif" font-size="12" lengthAdjust="spacing" textLength="161.7012" x="405.8176" y="162.4043">Hi&#7875;n th&#7883; b&#7843;n xem tr&#432;&#7899;c t&#7879;p</text><rect fill="#F1F1F1" height="33.9688" rx="12.5" ry="12.5" style="stroke:#181818;stroke-width:0.5;" width="145.4902" x="413.9231" y="195.2344"/><text fill="#000000" font-family="sans-serif" font-size="12" lengthAdjust="spacing" textLength="125.4902" x="423.9231" y="216.373">Ng&#432;&#7901;i d&#249;ng nh&#7845;n g&#7917;i</text><rect fill="#F1F1F1" height="33.9688" rx="12.5" ry="12.5" style="stroke:#181818;stroke-width:0.5;" width="164.5215" x="404.4075" y="249.2031"/><text fill="#000000" font-family="sans-serif" font-size="12" lengthAdjust="spacing" textLength="144.5215" x="414.4075" y="270.3418">Validate tin nh&#7855;n v&#224; t&#7879;p</text><polygon fill="#F1F1F1" points="445.6035,303.1719,527.7329,303.1719,539.7329,315.1719,527.7329,327.1719,445.6035,327.1719,433.6035,315.1719,445.6035,303.1719" style="stroke:#181818;stroke-width:0.5;"/><text fill="#000000" font-family="sans-serif" font-size="11" lengthAdjust="spacing" textLength="82.1294" x="445.6035" y="318.98">D&#7919; li&#7879;u h&#7907;p l&#7879;?</text><text fill="#000000" font-family="sans-serif" font-size="11" lengthAdjust="spacing" textLength="19.0083" x="414.5952" y="312.5776">yes</text><text fill="#000000" font-family="sans-serif" font-size="11" lengthAdjust="spacing" textLength="13.7017" x="539.7329" y="312.5776">no</text><rect fill="#555555" height="6" rx="2.5" ry="2.5" style="stroke:#555555;stroke-width:1;" width="334.8516" x="159.686" y="337.1719"/><rect fill="#F1F1F1" height="33.9688" rx="12.5" ry="12.5" style="stroke:#181818;stroke-width:0.5;" width="105.3594" x="197.0532" y="363.1719"/><text fill="#000000" font-family="sans-serif" font-size="12" lengthAdjust="spacing" textLength="85.3594" x="207.0532" y="384.3105">T&#7841;o FormData</text><rect fill="#F1F1F1" height="33.9688" rx="12.5" ry="12.5" style="stroke:#181818;stroke-width:0.5;" width="152.0938" x="173.686" y="432.1406"/><text fill="#000000" font-family="sans-serif" font-size="12" lengthAdjust="spacing" textLength="132.0938" x="183.686" y="453.2793">T&#7843;i t&#7879;p l&#234;n Cloudinary</text><rect fill="#F1F1F1" height="33.9688" rx="12.5" ry="12.5" style="stroke:#181818;stroke-width:0.5;" width="102.6816" x="198.3921" y="486.1094"/><text fill="#000000" font-family="sans-serif" font-size="12" lengthAdjust="spacing" textLength="82.6816" x="208.3921" y="507.248">Nh&#7853;n URL t&#7879;p</text><rect fill="#F1F1F1" height="33.9688" rx="12.5" ry="12.5" style="stroke:#181818;stroke-width:0.5;" width="126.7578" x="353.7798" y="432.1406"/><text fill="#000000" font-family="sans-serif" font-size="12" lengthAdjust="spacing" textLength="106.7578" x="363.7798" y="453.2793">Chu&#7849;n b&#7883; tin nh&#7855;n</text><rect fill="#555555" height="6" rx="2.5" ry="2.5" style="stroke:#555555;stroke-width:1;" width="334.8516" x="159.686" y="540.0781"/><rect fill="#F1F1F1" height="33.9688" rx="12.5" ry="12.5" style="stroke:#181818;stroke-width:0.5;" width="248.8027" x="202.7104" y="566.0781"/><text fill="#000000" font-family="sans-serif" font-size="12" lengthAdjust="spacing" textLength="228.8027" x="212.7104" y="587.2168">G&#7917;i tin nh&#7855;n k&#232;m URL qua WebSocket</text><rect fill="#F1F1F1" height="33.9688" rx="12.5" ry="12.5" style="stroke:#181818;stroke-width:0.5;" width="102.7695" x="275.7271" y="620.0469"/><text fill="#000000" font-family="sans-serif" font-size="12" lengthAdjust="spacing" textLength="82.7695" x="285.7271" y="641.1855">X&#225;c minh JWT</text><polygon fill="#F1F1F1" points="295.0222,674.0156,359.2014,674.0156,371.2014,686.0156,359.2014,698.0156,295.0222,698.0156,283.0222,686.0156,295.0222,674.0156" style="stroke:#181818;stroke-width:0.5;"/><text fill="#000000" font-family="sans-serif" font-size="11" lengthAdjust="spacing" textLength="64.1792" x="295.0222" y="689.8237">JWT h&#7907;p l&#7879;?</text><text fill="#000000" font-family="sans-serif" font-size="11" lengthAdjust="spacing" textLength="19.0083" x="264.0139" y="683.4214">yes</text><text fill="#000000" font-family="sans-serif" font-size="11" lengthAdjust="spacing" textLength="13.7017" x="371.2014" y="683.4214">no</text><rect fill="#F1F1F1" height="33.9688" rx="12.5" ry="12.5" style="stroke:#181818;stroke-width:0.5;" width="242.4102" x="68.2813" y="708.0156"/><text fill="#000000" font-family="sans-serif" font-size="12" lengthAdjust="spacing" textLength="222.4102" x="78.2813" y="729.1543">L&#432;u tin nh&#7855;n v&#224; t&#7879;p v&#224;o c&#417; s&#7903; d&#7919; li&#7879;u</text><rect fill="#F1F1F1" height="33.9688" rx="12.5" ry="12.5" style="stroke:#181818;stroke-width:0.5;" width="160.1211" x="109.4258" y="761.9844"/><text fill="#000000" font-family="sans-serif" font-size="12" lengthAdjust="spacing" textLength="140.1211" x="119.4258" y="783.123">Ph&#225;t tin nh&#7855;n &#273;&#7871;n k&#234;nh</text><rect fill="#F1F1F1" height="33.9688" rx="12.5" ry="12.5" style="stroke:#181818;stroke-width:0.5;" width="356.9727" x="11" y="815.9531"/><text fill="#000000" font-family="sans-serif" font-size="12" lengthAdjust="spacing" textLength="336.9727" x="21" y="837.0918">Hi&#7875;n th&#7883; tin nh&#7855;n v&#224; b&#7843;n xem tr&#432;&#7899;c t&#7879;p tr&#234;n t&#7845;t c&#7843; client</text><rect fill="#F1F1F1" height="33.9688" rx="12.5" ry="12.5" style="stroke:#181818;stroke-width:0.5;" width="153.5293" x="387.9727" y="708.0156"/><text fill="#000000" font-family="sans-serif" font-size="12" lengthAdjust="spacing" textLength="133.5293" x="397.9727" y="729.1543">Y&#234;u c&#7847;u &#273;&#259;ng nh&#7853;p l&#7841;i</text><ellipse cx="464.7373" cy="772.9844" fill="none" rx="11" ry="11" style="stroke:#222222;stroke-width:1;"/><ellipse cx="464.7373" cy="772.9844" fill="#222222" rx="6" ry="6" style="stroke:#222222;stroke-width:1;"/><rect fill="#F1F1F1" height="33.9688" rx="12.5" ry="12.5" style="stroke:#181818;stroke-width:0.5;" width="149.4453" x="571.502" y="337.1719"/><text fill="#000000" font-family="sans-serif" font-size="12" lengthAdjust="spacing" textLength="129.4453" x="581.502" y="358.3105">Hi&#7875;n th&#7883; th&#244;ng b&#225;o l&#7895;i</text><ellipse cx="646.2246" cy="417.1406" fill="none" rx="11" ry="11" style="stroke:#222222;stroke-width:1;"/><ellipse cx="646.2246" cy="417.1406" fill="#222222" rx="6" ry="6" style="stroke:#222222;stroke-width:1;"/><ellipse cx="486.6682" cy="880.9219" fill="none" rx="11" ry="11" style="stroke:#222222;stroke-width:1;"/><ellipse cx="486.6682" cy="880.9219" fill="#222222" rx="6" ry="6" style="stroke:#222222;stroke-width:1;"/><line style="stroke:#181818;stroke-width:1;" x1="486.6682" x2="486.6682" y1="67.2969" y2="87.2969"/><polygon fill="#181818" points="482.6682,77.2969,486.6682,87.2969,490.6682,77.2969,486.6682,81.2969" style="stroke:#181818;stroke-width:1;"/><line style="stroke:#181818;stroke-width:1;" x1="486.6682" x2="486.6682" y1="121.2656" y2="141.2656"/><polygon fill="#181818" points="482.6682,131.2656,486.6682,141.2656,490.6682,131.2656,486.6682,135.2656" style="stroke:#181818;stroke-width:1;"/><line style="stroke:#181818;stroke-width:1;" x1="486.6682" x2="486.6682" y1="175.2344" y2="195.2344"/><polygon fill="#181818" points="482.6682,185.2344,486.6682,195.2344,490.6682,185.2344,486.6682,189.2344" style="stroke:#181818;stroke-width:1;"/><line style="stroke:#181818;stroke-width:1;" x1="486.6682" x2="486.6682" y1="229.2031" y2="249.2031"/><polygon fill="#181818" points="482.6682,239.2031,486.6682,249.2031,490.6682,239.2031,486.6682,243.2031" style="stroke:#181818;stroke-width:1;"/><line style="stroke:#181818;stroke-width:1;" x1="249.7329" x2="249.7329" y1="397.1406" y2="432.1406"/><polygon fill="#181818" points="245.7329,422.1406,249.7329,432.1406,253.7329,422.1406,249.7329,426.1406" style="stroke:#181818;stroke-width:1;"/><line style="stroke:#181818;stroke-width:1;" x1="249.7329" x2="249.7329" y1="466.1094" y2="486.1094"/><polygon fill="#181818" points="245.7329,476.1094,249.7329,486.1094,253.7329,476.1094,249.7329,480.1094" style="stroke:#181818;stroke-width:1;"/><line style="stroke:#181818;stroke-width:1;" x1="249.7329" x2="249.7329" y1="343.1719" y2="363.1719"/><polygon fill="#181818" points="245.7329,353.1719,249.7329,363.1719,253.7329,353.1719,249.7329,357.1719" style="stroke:#181818;stroke-width:1;"/><line style="stroke:#181818;stroke-width:1;" x1="417.1587" x2="417.1587" y1="343.1719" y2="432.1406"/><polygon fill="#181818" points="413.1587,422.1406,417.1587,432.1406,421.1587,422.1406,417.1587,426.1406" style="stroke:#181818;stroke-width:1;"/><line style="stroke:#181818;stroke-width:1;" x1="249.7329" x2="249.7329" y1="520.0781" y2="540.0781"/><polygon fill="#181818" points="245.7329,530.0781,249.7329,540.0781,253.7329,530.0781,249.7329,534.0781" style="stroke:#181818;stroke-width:1;"/><line style="stroke:#181818;stroke-width:1;" x1="417.1587" x2="417.1587" y1="466.1094" y2="540.0781"/><polygon fill="#181818" points="413.1587,530.0781,417.1587,540.0781,421.1587,530.0781,417.1587,534.0781" style="stroke:#181818;stroke-width:1;"/><line style="stroke:#181818;stroke-width:1;" x1="327.1118" x2="327.1118" y1="546.0781" y2="566.0781"/><polygon fill="#181818" points="323.1118,556.0781,327.1118,566.0781,331.1118,556.0781,327.1118,560.0781" style="stroke:#181818;stroke-width:1;"/><line style="stroke:#181818;stroke-width:1;" x1="327.1118" x2="327.1118" y1="600.0469" y2="620.0469"/><polygon fill="#181818" points="323.1118,610.0469,327.1118,620.0469,331.1118,610.0469,327.1118,614.0469" style="stroke:#181818;stroke-width:1;"/><line style="stroke:#181818;stroke-width:1;" x1="189.4863" x2="189.4863" y1="741.9844" y2="761.9844"/><polygon fill="#181818" points="185.4863,751.9844,189.4863,761.9844,193.4863,751.9844,189.4863,755.9844" style="stroke:#181818;stroke-width:1;"/><line style="stroke:#181818;stroke-width:1;" x1="189.4863" x2="189.4863" y1="795.9531" y2="815.9531"/><polygon fill="#181818" points="185.4863,805.9531,189.4863,815.9531,193.4863,805.9531,189.4863,809.9531" style="stroke:#181818;stroke-width:1;"/><line style="stroke:#181818;stroke-width:1;" x1="464.7373" x2="464.7373" y1="741.9844" y2="761.9844"/><polygon fill="#181818" points="460.7373,751.9844,464.7373,761.9844,468.7373,751.9844,464.7373,755.9844" style="stroke:#181818;stroke-width:1;"/><line style="stroke:#181818;stroke-width:1;" x1="283.0222" x2="189.4863" y1="686.0156" y2="686.0156"/><line style="stroke:#181818;stroke-width:1;" x1="189.4863" x2="189.4863" y1="686.0156" y2="708.0156"/><polygon fill="#181818" points="185.4863,698.0156,189.4863,708.0156,193.4863,698.0156,189.4863,702.0156" style="stroke:#181818;stroke-width:1;"/><line style="stroke:#181818;stroke-width:1;" x1="371.2014" x2="464.7373" y1="686.0156" y2="686.0156"/><line style="stroke:#181818;stroke-width:1;" x1="464.7373" x2="464.7373" y1="686.0156" y2="708.0156"/><polygon fill="#181818" points="460.7373,698.0156,464.7373,708.0156,468.7373,698.0156,464.7373,702.0156" style="stroke:#181818;stroke-width:1;"/><line style="stroke:#181818;stroke-width:1;" x1="189.4863" x2="189.4863" y1="849.9219" y2="854.9219"/><line style="stroke:#181818;stroke-width:1;" x1="189.4863" x2="486.6682" y1="854.9219" y2="854.9219"/><line style="stroke:#181818;stroke-width:1;" x1="486.6682" x2="486.6682" y1="854.9219" y2="869.9219"/><polygon fill="#181818" points="482.6682,859.9219,486.6682,869.9219,490.6682,859.9219,486.6682,863.9219" style="stroke:#181818;stroke-width:1;"/><line style="stroke:#181818;stroke-width:1;" x1="327.1118" x2="327.1118" y1="654.0156" y2="674.0156"/><polygon fill="#181818" points="323.1118,664.0156,327.1118,674.0156,331.1118,664.0156,327.1118,668.0156" style="stroke:#181818;stroke-width:1;"/><line style="stroke:#181818;stroke-width:1;" x1="646.2246" x2="646.2246" y1="371.1406" y2="406.1406"/><polygon fill="#181818" points="642.2246,396.1406,646.2246,406.1406,650.2246,396.1406,646.2246,400.1406" style="stroke:#181818;stroke-width:1;"/><line style="stroke:#181818;stroke-width:1;" x1="433.6035" x2="327.1118" y1="315.1719" y2="315.1719"/><line style="stroke:#181818;stroke-width:1;" x1="327.1118" x2="327.1118" y1="315.1719" y2="337.1719"/><polygon fill="#181818" points="323.1118,327.1719,327.1118,337.1719,331.1118,327.1719,327.1118,331.1719" style="stroke:#181818;stroke-width:1;"/><line style="stroke:#181818;stroke-width:1;" x1="539.7329" x2="646.2246" y1="315.1719" y2="315.1719"/><line style="stroke:#181818;stroke-width:1;" x1="646.2246" x2="646.2246" y1="315.1719" y2="337.1719"/><polygon fill="#181818" points="642.2246,327.1719,646.2246,337.1719,650.2246,327.1719,646.2246,331.1719" style="stroke:#181818;stroke-width:1;"/><line style="stroke:#181818;stroke-width:1;" x1="486.6682" x2="486.6682" y1="283.1719" y2="303.1719"/><polygon fill="#181818" points="482.6682,293.1719,486.6682,303.1719,490.6682,293.1719,486.6682,297.1719" style="stroke:#181818;stroke-width:1;"/><!--SRC=[VL8zRzim5DprAsvqXlm1USZWm2sAD0YIj6b7Mg8bmXJfIbJJp1ao51qwTIYALZ2Aj0QCPEWIQUYWmF-3_wIFibpBwGUdH_BUtRl3Cy98ZcFEvAuH2SSWPWP7gGvubc4N9ro5U4erYpZEXOan599d64fzxdcPOQdn_CDeUMkhJm9XVQSY1B6jtYaOMrrDyRh-0XNRSZ654QefRrJVynyBMrqIYB1lCRBbJE4DJs1IH_KnM7Nt_-1s_LyL8bij1Fq-PrA4pF0ETwFOTeinUlkske4ajQiS93QRGbAzjqFINA5tmRCT3tJ6EfqqXJl-gIqBZQ5EatrcM7_hOoPQRxAUAmoapaEXM7hHGHqwnmhFZW_Mewmbm28cr0OvY7DRVbSK0UNGJSZzkl1_p-K_SgQxJYVrjwJHU9KpdF7HYGuctAnQ_HTr4I0HAiQJizFLcuk3Bl-DeUazMDxcVutKLHh1ia1cgyy8Dzbsp1_5TM6wxVVlRVdJZJjNSGUtjG8FrFwr4NHreHlQ0eE0G0YauAerpMN6qLEwO-LbFSyTy3gdCUulsnLQEFjb8JRJP4PFrvcBiRVDz63KkFv1FAEQDeH2_D2oD0ohRbV-0W00]--></g></svg>