<svg xmlns="http://www.w3.org/2000/svg" xmlns:xlink="http://www.w3.org/1999/xlink" contentStyleType="text/css" data-diagram-type="ACTIVITY" height="688px" preserveAspectRatio="none" style="width:1032px;height:688px;background:#FFFFFF;" version="1.1" viewBox="0 0 1032 688" width="1032px" zoomAndPan="magnify"><title>mentor Matching - Send Connection Request</title><defs/><g><g class="title" data-source-line="1"><text fill="#000000" font-family="sans-serif" font-size="14" font-weight="bold" lengthAdjust="spacing" textLength="353.6162" x="338.0952" y="32.9951">mentor Matching - Send Connection Request</text></g><ellipse cx="799.1273" cy="57.2969" fill="#222222" rx="10" ry="10" style="stroke:#222222;stroke-width:1;"/><rect fill="#F1F1F1" height="33.9688" rx="12.5" ry="12.5" style="stroke:#181818;stroke-width:0.5;" width="265.7949" x="666.2299" y="87.2969"/><text fill="#000000" font-family="sans-serif" font-size="12" lengthAdjust="spacing" textLength="245.7949" x="676.2299" y="108.4355">Mentee nh&#7845;n "Request" tr&#234;n MentorCard</text><rect fill="#F1F1F1" height="33.9688" rx="12.5" ry="12.5" style="stroke:#181818;stroke-width:0.5;" width="125.6563" x="736.2992" y="141.2656"/><text fill="#000000" font-family="sans-serif" font-size="12" lengthAdjust="spacing" textLength="105.6563" x="746.2992" y="162.4043">Hi&#7875;n th&#7883; x&#225;c nh&#7853;n</text><polygon fill="#F1F1F1" points="748.6954,195.2344,849.5592,195.2344,861.5592,207.2344,849.5592,219.2344,748.6954,219.2344,736.6954,207.2344,748.6954,195.2344" style="stroke:#181818;stroke-width:0.5;"/><text fill="#000000" font-family="sans-serif" font-size="11" lengthAdjust="spacing" textLength="100.8638" x="748.6954" y="211.0425">Mentee x&#225;c nh&#7853;n?</text><text fill="#000000" font-family="sans-serif" font-size="11" lengthAdjust="spacing" textLength="19.0083" x="717.6871" y="204.6401">yes</text><text fill="#000000" font-family="sans-serif" font-size="11" lengthAdjust="spacing" textLength="13.7017" x="861.5592" y="204.6401">no</text><rect fill="#F1F1F1" height="33.9688" rx="12.5" ry="12.5" style="stroke:#181818;stroke-width:0.5;" width="185.1582" x="531.3718" y="229.2344"/><text fill="#000000" font-family="sans-serif" font-size="12" lengthAdjust="spacing" textLength="165.1582" x="541.3718" y="250.373">X&#225;c minh phi&#234;n ng&#432;&#7901;i d&#249;ng</text><polygon fill="#F1F1F1" points="587.0811,283.2031,660.8208,283.2031,672.8208,295.2031,660.8208,307.2031,587.0811,307.2031,575.0811,295.2031,587.0811,283.2031" style="stroke:#181818;stroke-width:0.5;"/><text fill="#000000" font-family="sans-serif" font-size="11" lengthAdjust="spacing" textLength="73.7397" x="587.0811" y="299.0112">Phi&#234;n h&#7907;p l&#7879;?</text><text fill="#000000" font-family="sans-serif" font-size="11" lengthAdjust="spacing" textLength="19.0083" x="556.0728" y="292.6089">yes</text><text fill="#000000" font-family="sans-serif" font-size="11" lengthAdjust="spacing" textLength="13.7017" x="672.8208" y="292.6089">no</text><rect fill="#F1F1F1" height="33.9688" rx="12.5" ry="12.5" style="stroke:#181818;stroke-width:0.5;" width="161.2285" x="347.2515" y="317.2031"/><text fill="#000000" font-family="sans-serif" font-size="12" lengthAdjust="spacing" textLength="141.2285" x="357.2515" y="338.3418">Ki&#7875;m tra mentor t&#7891;n t&#7841;i</text><polygon fill="#F1F1F1" points="385.99,371.1719,469.7415,371.1719,481.7415,383.1719,469.7415,395.1719,385.99,395.1719,373.99,383.1719,385.99,371.1719" style="stroke:#181818;stroke-width:0.5;"/><text fill="#000000" font-family="sans-serif" font-size="11" lengthAdjust="spacing" textLength="83.7515" x="385.99" y="386.98">Mentor t&#7891;n t&#7841;i?</text><text fill="#000000" font-family="sans-serif" font-size="11" lengthAdjust="spacing" textLength="19.0083" x="354.9817" y="380.5776">yes</text><text fill="#000000" font-family="sans-serif" font-size="11" lengthAdjust="spacing" textLength="13.7017" x="481.7415" y="380.5776">no</text><rect fill="#F1F1F1" height="33.9688" rx="12.5" ry="12.5" style="stroke:#181818;stroke-width:0.5;" width="180.7578" x="164.7871" y="405.1719"/><text fill="#000000" font-family="sans-serif" font-size="12" lengthAdjust="spacing" textLength="160.7578" x="174.7871" y="426.3105">Ki&#7875;m tra y&#234;u c&#7847;u tr&#249;ng l&#7863;p</text><polygon fill="#F1F1F1" points="204.3098,459.1406,306.0222,459.1406,318.0222,471.1406,306.0222,483.1406,204.3098,483.1406,192.3098,471.1406,204.3098,459.1406" style="stroke:#181818;stroke-width:0.5;"/><text fill="#000000" font-family="sans-serif" font-size="11" lengthAdjust="spacing" textLength="101.7124" x="204.3098" y="474.9487">Ch&#432;a g&#7917;i y&#234;u c&#7847;u?</text><text fill="#000000" font-family="sans-serif" font-size="11" lengthAdjust="spacing" textLength="19.0083" x="173.3015" y="468.5464">yes</text><text fill="#000000" font-family="sans-serif" font-size="11" lengthAdjust="spacing" textLength="13.7017" x="318.0222" y="468.5464">no</text><rect fill="#F1F1F1" height="33.9688" rx="12.5" ry="12.5" style="stroke:#181818;stroke-width:0.5;" width="226.5781" x="25.1621" y="493.1406"/><text fill="#000000" font-family="sans-serif" font-size="12" lengthAdjust="spacing" textLength="206.5781" x="35.1621" y="514.2793">T&#7841;o MenteeConnection (PENDING)</text><rect fill="#F1F1F1" height="33.9688" rx="12.5" ry="12.5" style="stroke:#181818;stroke-width:0.5;" width="178.9473" x="48.9775" y="547.1094"/><text fill="#000000" font-family="sans-serif" font-size="12" lengthAdjust="spacing" textLength="158.9473" x="58.9775" y="568.248">G&#7917;i th&#244;ng b&#225;o &#273;&#7871;n mentor</text><rect fill="#F1F1F1" height="33.9688" rx="12.5" ry="12.5" style="stroke:#181818;stroke-width:0.5;" width="254.9023" x="11" y="601.0781"/><text fill="#000000" font-family="sans-serif" font-size="12" lengthAdjust="spacing" textLength="234.9023" x="21" y="622.2168">C&#7853;p nh&#7853;t tr&#7841;ng th&#225;i n&#250;t "Request sent"</text><rect fill="#F1F1F1" height="33.9688" rx="12.5" ry="12.5" style="stroke:#181818;stroke-width:0.5;" width="171.957" x="285.9023" y="493.1406"/><text fill="#000000" font-family="sans-serif" font-size="12" lengthAdjust="spacing" textLength="151.957" x="295.9023" y="514.2793">Hi&#7875;n th&#7883; "&#272;&#227; g&#7917;i y&#234;u c&#7847;u"</text><ellipse cx="371.8809" cy="558.1094" fill="none" rx="11" ry="11" style="stroke:#222222;stroke-width:1;"/><ellipse cx="371.8809" cy="558.1094" fill="#222222" rx="6" ry="6" style="stroke:#222222;stroke-width:1;"/><rect fill="#F1F1F1" height="33.9688" rx="12.5" ry="12.5" style="stroke:#181818;stroke-width:0.5;" width="225.4121" x="487.8594" y="405.1719"/><text fill="#000000" font-family="sans-serif" font-size="12" lengthAdjust="spacing" textLength="205.4121" x="497.8594" y="426.3105">Hi&#7875;n th&#7883; l&#7895;i "Mentor kh&#244;ng t&#7891;n t&#7841;i"</text><ellipse cx="600.5654" cy="470.1406" fill="none" rx="11" ry="11" style="stroke:#222222;stroke-width:1;"/><ellipse cx="600.5654" cy="470.1406" fill="#222222" rx="6" ry="6" style="stroke:#222222;stroke-width:1;"/><rect fill="#F1F1F1" height="33.9688" rx="12.5" ry="12.5" style="stroke:#181818;stroke-width:0.5;" width="153.5293" x="743.2715" y="317.2031"/><text fill="#000000" font-family="sans-serif" font-size="12" lengthAdjust="spacing" textLength="133.5293" x="753.2715" y="338.3418">Y&#234;u c&#7847;u &#273;&#259;ng nh&#7853;p l&#7841;i</text><ellipse cx="820.0361" cy="382.1719" fill="none" rx="11" ry="11" style="stroke:#222222;stroke-width:1;"/><ellipse cx="820.0361" cy="382.1719" fill="#222222" rx="6" ry="6" style="stroke:#222222;stroke-width:1;"/><rect fill="#F1F1F1" height="33.9688" rx="12.5" ry="12.5" style="stroke:#181818;stroke-width:0.5;" width="95.0059" x="926.8008" y="229.2344"/><text fill="#000000" font-family="sans-serif" font-size="12" lengthAdjust="spacing" textLength="75.0059" x="936.8008" y="250.373">H&#7911;y y&#234;u c&#7847;u</text><ellipse cx="974.3037" cy="294.2031" fill="none" rx="11" ry="11" style="stroke:#222222;stroke-width:1;"/><ellipse cx="974.3037" cy="294.2031" fill="#222222" rx="6" ry="6" style="stroke:#222222;stroke-width:1;"/><ellipse cx="799.1273" cy="666.0469" fill="none" rx="11" ry="11" style="stroke:#222222;stroke-width:1;"/><ellipse cx="799.1273" cy="666.0469" fill="#222222" rx="6" ry="6" style="stroke:#222222;stroke-width:1;"/><line style="stroke:#181818;stroke-width:1;" x1="799.1273" x2="799.1273" y1="67.2969" y2="87.2969"/><polygon fill="#181818" points="795.1273,77.2969,799.1273,87.2969,803.1273,77.2969,799.1273,81.2969" style="stroke:#181818;stroke-width:1;"/><line style="stroke:#181818;stroke-width:1;" x1="799.1273" x2="799.1273" y1="121.2656" y2="141.2656"/><polygon fill="#181818" points="795.1273,131.2656,799.1273,141.2656,803.1273,131.2656,799.1273,135.2656" style="stroke:#181818;stroke-width:1;"/><line style="stroke:#181818;stroke-width:1;" x1="138.4512" x2="138.4512" y1="527.1094" y2="547.1094"/><polygon fill="#181818" points="134.4512,537.1094,138.4512,547.1094,142.4512,537.1094,138.4512,541.1094" style="stroke:#181818;stroke-width:1;"/><line style="stroke:#181818;stroke-width:1;" x1="138.4512" x2="138.4512" y1="581.0781" y2="601.0781"/><polygon fill="#181818" points="134.4512,591.0781,138.4512,601.0781,142.4512,591.0781,138.4512,595.0781" style="stroke:#181818;stroke-width:1;"/><line style="stroke:#181818;stroke-width:1;" x1="371.8809" x2="371.8809" y1="527.1094" y2="547.1094"/><polygon fill="#181818" points="367.8809,537.1094,371.8809,547.1094,375.8809,537.1094,371.8809,541.1094" style="stroke:#181818;stroke-width:1;"/><line style="stroke:#181818;stroke-width:1;" x1="192.3098" x2="138.4512" y1="471.1406" y2="471.1406"/><line style="stroke:#181818;stroke-width:1;" x1="138.4512" x2="138.4512" y1="471.1406" y2="493.1406"/><polygon fill="#181818" points="134.4512,483.1406,138.4512,493.1406,142.4512,483.1406,138.4512,487.1406" style="stroke:#181818;stroke-width:1;"/><line style="stroke:#181818;stroke-width:1;" x1="318.0222" x2="371.8809" y1="471.1406" y2="471.1406"/><line style="stroke:#181818;stroke-width:1;" x1="371.8809" x2="371.8809" y1="471.1406" y2="493.1406"/><polygon fill="#181818" points="367.8809,483.1406,371.8809,493.1406,375.8809,483.1406,371.8809,487.1406" style="stroke:#181818;stroke-width:1;"/><line style="stroke:#181818;stroke-width:1;" x1="138.4512" x2="138.4512" y1="635.0469" y2="640.0469"/><line style="stroke:#181818;stroke-width:1;" x1="138.4512" x2="799.1273" y1="640.0469" y2="640.0469"/><line style="stroke:#181818;stroke-width:1;" x1="799.1273" x2="799.1273" y1="640.0469" y2="655.0469"/><polygon fill="#181818" points="795.1273,645.0469,799.1273,655.0469,803.1273,645.0469,799.1273,649.0469" style="stroke:#181818;stroke-width:1;"/><line style="stroke:#181818;stroke-width:1;" x1="255.166" x2="255.166" y1="439.1406" y2="459.1406"/><polygon fill="#181818" points="251.166,449.1406,255.166,459.1406,259.166,449.1406,255.166,453.1406" style="stroke:#181818;stroke-width:1;"/><line style="stroke:#181818;stroke-width:1;" x1="600.5654" x2="600.5654" y1="439.1406" y2="459.1406"/><polygon fill="#181818" points="596.5654,449.1406,600.5654,459.1406,604.5654,449.1406,600.5654,453.1406" style="stroke:#181818;stroke-width:1;"/><line style="stroke:#181818;stroke-width:1;" x1="373.99" x2="255.166" y1="383.1719" y2="383.1719"/><line style="stroke:#181818;stroke-width:1;" x1="255.166" x2="255.166" y1="383.1719" y2="405.1719"/><polygon fill="#181818" points="251.166,395.1719,255.166,405.1719,259.166,395.1719,255.166,399.1719" style="stroke:#181818;stroke-width:1;"/><line style="stroke:#181818;stroke-width:1;" x1="481.7415" x2="600.5654" y1="383.1719" y2="383.1719"/><line style="stroke:#181818;stroke-width:1;" x1="600.5654" x2="600.5654" y1="383.1719" y2="405.1719"/><polygon fill="#181818" points="596.5654,395.1719,600.5654,405.1719,604.5654,395.1719,600.5654,399.1719" style="stroke:#181818;stroke-width:1;"/><line style="stroke:#181818;stroke-width:1;" x1="427.8657" x2="427.8657" y1="351.1719" y2="371.1719"/><polygon fill="#181818" points="423.8657,361.1719,427.8657,371.1719,431.8657,361.1719,427.8657,365.1719" style="stroke:#181818;stroke-width:1;"/><line style="stroke:#181818;stroke-width:1;" x1="820.0361" x2="820.0361" y1="351.1719" y2="371.1719"/><polygon fill="#181818" points="816.0361,361.1719,820.0361,371.1719,824.0361,361.1719,820.0361,365.1719" style="stroke:#181818;stroke-width:1;"/><line style="stroke:#181818;stroke-width:1;" x1="575.0811" x2="427.8657" y1="295.2031" y2="295.2031"/><line style="stroke:#181818;stroke-width:1;" x1="427.8657" x2="427.8657" y1="295.2031" y2="317.2031"/><polygon fill="#181818" points="423.8657,307.2031,427.8657,317.2031,431.8657,307.2031,427.8657,311.2031" style="stroke:#181818;stroke-width:1;"/><line style="stroke:#181818;stroke-width:1;" x1="672.8208" x2="820.0361" y1="295.2031" y2="295.2031"/><line style="stroke:#181818;stroke-width:1;" x1="820.0361" x2="820.0361" y1="295.2031" y2="317.2031"/><polygon fill="#181818" points="816.0361,307.2031,820.0361,317.2031,824.0361,307.2031,820.0361,311.2031" style="stroke:#181818;stroke-width:1;"/><line style="stroke:#181818;stroke-width:1;" x1="623.9509" x2="623.9509" y1="263.2031" y2="283.2031"/><polygon fill="#181818" points="619.9509,273.2031,623.9509,283.2031,627.9509,273.2031,623.9509,277.2031" style="stroke:#181818;stroke-width:1;"/><line style="stroke:#181818;stroke-width:1;" x1="974.3037" x2="974.3037" y1="263.2031" y2="283.2031"/><polygon fill="#181818" points="970.3037,273.2031,974.3037,283.2031,978.3037,273.2031,974.3037,277.2031" style="stroke:#181818;stroke-width:1;"/><line style="stroke:#181818;stroke-width:1;" x1="736.6954" x2="623.9509" y1="207.2344" y2="207.2344"/><line style="stroke:#181818;stroke-width:1;" x1="623.9509" x2="623.9509" y1="207.2344" y2="229.2344"/><polygon fill="#181818" points="619.9509,219.2344,623.9509,229.2344,627.9509,219.2344,623.9509,223.2344" style="stroke:#181818;stroke-width:1;"/><line style="stroke:#181818;stroke-width:1;" x1="861.5592" x2="974.3037" y1="207.2344" y2="207.2344"/><line style="stroke:#181818;stroke-width:1;" x1="974.3037" x2="974.3037" y1="207.2344" y2="229.2344"/><polygon fill="#181818" points="970.3037,219.2344,974.3037,229.2344,978.3037,219.2344,974.3037,223.2344" style="stroke:#181818;stroke-width:1;"/><line style="stroke:#181818;stroke-width:1;" x1="799.1273" x2="799.1273" y1="175.2344" y2="195.2344"/><polygon fill="#181818" points="795.1273,185.2344,799.1273,195.2344,803.1273,185.2344,799.1273,189.2344" style="stroke:#181818;stroke-width:1;"/><!--SRC=[VPA_Ji9G5CRtFiL9fpBu0ktWW0QCWH1rqB72bTu8fxMz938pEBX879mS234a92GC9iPsS2ZXFUwRUFe7wAKeKyCvt-_xxZb7SD5Zq6SeN1yQjcWx7Bjm19SCEr1r4LbRS1VXWZqCM20qBH2sBpIpGGh601qPVY3eULa7uSTpX4RAgzf-nzBCEfVH244uCdg6ntZIJbKBj3H-1qOEAln_NA5UXc0CML3HW7xcTLBjStJ0StXYWDtrKaRl73hnDtQjj2kXjR8oMKqzwCdegGnBWUT9fZwbjJTl5p9wfP0od71hsxS9gDOFC_UvmtW-WBOCPuDaA9IIyeHVdgK84eEgirxQq9NHWXT4VvkaHbSKn8LiU8Kr6QtJvibPirQnof9QwY2S-9EotCOaNurb-8Fv10ueghGEBzkAe4UG9Ia9CE60SIYsQuU02BeAOBs0WO7kWUpAGUYhbtXQUhrUJXC8rrCTiCFljF_zL2ywY3SEUhxH-smIXSNkkIgEExUoatcps_Lgl1eHDHrQSeBAFMs96KqbcNKPpOQ58MIwL9Fr9v-_]--></g></svg>