<svg xmlns="http://www.w3.org/2000/svg" xmlns:xlink="http://www.w3.org/1999/xlink" contentStyleType="text/css" data-diagram-type="ACTIVITY" height="730px" preserveAspectRatio="none" style="width:1145px;height:730px;background:#FFFFFF;" version="1.1" viewBox="0 0 1145 730" width="1145px" zoomAndPan="magnify"><title>Dashboard Viewing - View Dashboard (Role-based)</title><defs/><g><g class="title" data-source-line="1"><text fill="#000000" font-family="sans-serif" font-size="14" font-weight="bold" lengthAdjust="spacing" textLength="402.4727" x="370.0039" y="32.9951">Dashboard Viewing - View Dashboard (Role-based)</text></g><ellipse cx="785.7637" cy="57.2969" fill="#222222" rx="10" ry="10" style="stroke:#222222;stroke-width:1;"/><rect fill="#F1F1F1" height="33.9688" rx="12.5" ry="12.5" style="stroke:#181818;stroke-width:0.5;" width="258.4473" x="656.54" y="87.2969"/><text fill="#000000" font-family="sans-serif" font-size="12" lengthAdjust="spacing" textLength="238.4473" x="666.54" y="108.4355">Ng&#432;&#7901;i d&#249;ng &#273;i&#7873;u h&#432;&#7899;ng &#273;&#7871;n /dashboard</text><rect fill="#F1F1F1" height="33.9688" rx="12.5" ry="12.5" style="stroke:#181818;stroke-width:0.5;" width="185.1582" x="693.1846" y="141.2656"/><text fill="#000000" font-family="sans-serif" font-size="12" lengthAdjust="spacing" textLength="165.1582" x="703.1846" y="162.4043">X&#225;c minh phi&#234;n ng&#432;&#7901;i d&#249;ng</text><polygon fill="#F1F1F1" points="748.8938,195.2344,822.6335,195.2344,834.6335,207.2344,822.6335,219.2344,748.8938,219.2344,736.8938,207.2344,748.8938,195.2344" style="stroke:#181818;stroke-width:0.5;"/><text fill="#000000" font-family="sans-serif" font-size="11" lengthAdjust="spacing" textLength="73.7397" x="748.8938" y="211.0425">Phi&#234;n h&#7907;p l&#7879;?</text><text fill="#000000" font-family="sans-serif" font-size="11" lengthAdjust="spacing" textLength="19.0083" x="717.8855" y="204.6401">yes</text><text fill="#000000" font-family="sans-serif" font-size="11" lengthAdjust="spacing" textLength="13.7017" x="834.6335" y="204.6401">no</text><rect fill="#F1F1F1" height="33.9688" rx="12.5" ry="12.5" style="stroke:#181818;stroke-width:0.5;" width="186.125" x="401.8311" y="229.2344"/><text fill="#000000" font-family="sans-serif" font-size="12" lengthAdjust="spacing" textLength="166.125" x="411.8311" y="250.373">X&#225;c &#273;&#7883;nh vai tr&#242; ng&#432;&#7901;i d&#249;ng</text><polygon fill="#F1F1F1" points="85.8967,308.2031,143.3513,308.2031,155.3513,320.2031,143.3513,332.2031,85.8967,332.2031,73.8967,320.2031,85.8967,308.2031" style="stroke:#181818;stroke-width:0.5;"/><text fill="#000000" font-family="sans-serif" font-size="11" lengthAdjust="spacing" textLength="19.0083" x="118.624" y="342.4136">yes</text><text fill="#000000" font-family="sans-serif" font-size="11" lengthAdjust="spacing" textLength="57.4546" x="85.8967" y="324.0112">L&#224; Admin?</text><rect fill="#F1F1F1" height="33.9688" rx="12.5" ry="12.5" style="stroke:#181818;stroke-width:0.5;" width="155.4688" x="36.8896" y="365.0078"/><text fill="#000000" font-family="sans-serif" font-size="12" lengthAdjust="spacing" textLength="135.4688" x="46.8896" y="386.1465">L&#7845;y th&#7889;ng k&#234; h&#7879; th&#7889;ng</text><rect fill="#F1F1F1" height="33.9688" rx="12.5" ry="12.5" style="stroke:#181818;stroke-width:0.5;" width="145.4492" x="41.8994" y="431.7813"/><text fill="#000000" font-family="sans-serif" font-size="12" lengthAdjust="spacing" textLength="125.4492" x="51.8994" y="452.9199">L&#7845;y th&#7889;ng k&#234; mentor</text><rect fill="#F1F1F1" height="33.9688" rx="12.5" ry="12.5" style="stroke:#181818;stroke-width:0.5;" width="203.041" x="13.1035" y="500.75"/><text fill="#000000" font-family="sans-serif" font-size="12" lengthAdjust="spacing" textLength="183.041" x="23.1035" y="521.8887">L&#7845;y d&#7919; li&#7879;u ho&#7841;t &#273;&#7897;ng 30 ng&#224;y</text><rect fill="#F1F1F1" height="33.9688" rx="12.5" ry="12.5" style="stroke:#181818;stroke-width:0.5;" width="207.248" x="11" y="569.7188"/><text fill="#000000" font-family="sans-serif" font-size="12" lengthAdjust="spacing" textLength="187.248" x="21" y="590.8574">Hi&#7875;n th&#7883; bi&#7875;u &#273;&#7891; (Line, Pie, Bar)</text><polygon fill="#F1F1F1" points="348.4817,308.2031,409.4812,308.2031,421.4812,320.2031,409.4812,332.2031,348.4817,332.2031,336.4817,320.2031,348.4817,308.2031" style="stroke:#181818;stroke-width:0.5;"/><text fill="#000000" font-family="sans-serif" font-size="11" lengthAdjust="spacing" textLength="60.9995" x="348.4817" y="324.0112">L&#224; Mentor?</text><rect fill="#F1F1F1" height="33.9688" rx="12.5" ry="12.5" style="stroke:#181818;stroke-width:0.5;" width="256.6719" x="250.6455" y="352.2031"/><text fill="#000000" font-family="sans-serif" font-size="12" lengthAdjust="spacing" textLength="236.6719" x="260.6455" y="373.3418">L&#7845;y danh s&#225;ch mentee &#273;&#432;&#7907;c ch&#7845;p nh&#7853;n</text><rect fill="#F1F1F1" height="33.9688" rx="12.5" ry="12.5" style="stroke:#181818;stroke-width:0.5;" width="168.0664" x="294.9482" y="418.9766"/><text fill="#000000" font-family="sans-serif" font-size="12" lengthAdjust="spacing" textLength="148.0664" x="304.9482" y="440.1152">L&#7845;y ti&#7871;n &#273;&#7897; t&#7915;ng mentee</text><rect fill="#F1F1F1" height="33.9688" rx="12.5" ry="12.5" style="stroke:#181818;stroke-width:0.5;" width="174.2656" x="291.8486" y="487.9453"/><text fill="#000000" font-family="sans-serif" font-size="12" lengthAdjust="spacing" textLength="154.2656" x="301.8486" y="509.084">T&#237;nh &#273;i&#7875;m theo danh m&#7909;c</text><rect fill="#F1F1F1" height="33.9688" rx="12.5" ry="12.5" style="stroke:#181818;stroke-width:0.5;" width="301.4668" x="228.248" y="556.9141"/><text fill="#000000" font-family="sans-serif" font-size="12" lengthAdjust="spacing" textLength="281.4668" x="238.248" y="578.0527">Hi&#7875;n th&#7883; ma tr&#7853;n hi&#7879;u su&#7845;t, timeline, ph&#226;n ph&#7889;i</text><polygon fill="#F1F1F1" points="664.0962,308.2031,727.3784,308.2031,739.3784,320.2031,727.3784,332.2031,664.0962,332.2031,652.0962,320.2031,664.0962,308.2031" style="stroke:#181818;stroke-width:0.5;"/><text fill="#000000" font-family="sans-serif" font-size="11" lengthAdjust="spacing" textLength="63.2822" x="664.0962" y="324.0112">L&#224; Mentee?</text><rect fill="#F1F1F1" height="33.9688" rx="12.5" ry="12.5" style="stroke:#181818;stroke-width:0.5;" width="187.2676" x="602.1035" y="352.2031"/><text fill="#000000" font-family="sans-serif" font-size="12" lengthAdjust="spacing" textLength="167.2676" x="612.1035" y="373.3418">L&#7845;y b&#7843;n ghi ti&#7871;n &#273;&#7897; c&#225; nh&#226;n</text><rect fill="#F1F1F1" height="33.9688" rx="12.5" ry="12.5" style="stroke:#181818;stroke-width:0.5;" width="150.166" x="620.6543" y="418.9766"/><text fill="#000000" font-family="sans-serif" font-size="12" lengthAdjust="spacing" textLength="130.166" x="630.6543" y="440.1152">Nh&#243;m theo danh m&#7909;c</text><rect fill="#F1F1F1" height="33.9688" rx="12.5" ry="12.5" style="stroke:#181818;stroke-width:0.5;" width="132.1309" x="629.6719" y="487.9453"/><text fill="#000000" font-family="sans-serif" font-size="12" lengthAdjust="spacing" textLength="112.1309" x="639.6719" y="509.084">L&#7845;y s&#7921; ki&#7879;n s&#7855;p t&#7899;i</text><rect fill="#F1F1F1" height="33.9688" rx="12.5" ry="12.5" style="stroke:#181818;stroke-width:0.5;" width="149.5098" x="620.9824" y="556.9141"/><text fill="#000000" font-family="sans-serif" font-size="12" lengthAdjust="spacing" textLength="129.5098" x="630.9824" y="578.0527">L&#7845;y ph&#7843;n h&#7891;i g&#7847;n &#273;&#226;y</text><rect fill="#F1F1F1" height="33.9688" rx="12.5" ry="12.5" style="stroke:#181818;stroke-width:0.5;" width="292.0449" x="549.7148" y="623.6875"/><text fill="#000000" font-family="sans-serif" font-size="12" lengthAdjust="spacing" textLength="272.0449" x="559.7148" y="644.8262">Hi&#7875;n th&#7883; radar chart, line chart, progress bars</text><rect fill="#F1F1F1" height="33.9688" rx="12.5" ry="12.5" style="stroke:#181818;stroke-width:0.5;" width="127.0273" x="861.7598" y="462.4453"/><text fill="#000000" font-family="sans-serif" font-size="12" lengthAdjust="spacing" textLength="107.0273" x="871.7598" y="483.584">Hi&#7875;n th&#7883; l&#7895;i vai tr&#242;</text><ellipse cx="925.2734" cy="542.4141" fill="none" rx="11" ry="11" style="stroke:#222222;stroke-width:1;"/><ellipse cx="925.2734" cy="542.4141" fill="#222222" rx="6" ry="6" style="stroke:#222222;stroke-width:1;"/><rect fill="#F1F1F1" height="33.9688" rx="12.5" ry="12.5" style="stroke:#181818;stroke-width:0.5;" width="135.6934" x="998.7871" y="229.2344"/><text fill="#000000" font-family="sans-serif" font-size="12" lengthAdjust="spacing" textLength="115.6934" x="1008.7871" y="250.373">Y&#234;u c&#7847;u &#273;&#259;ng nh&#7853;p</text><ellipse cx="1066.6338" cy="294.2031" fill="none" rx="11" ry="11" style="stroke:#222222;stroke-width:1;"/><ellipse cx="1066.6338" cy="294.2031" fill="#222222" rx="6" ry="6" style="stroke:#222222;stroke-width:1;"/><ellipse cx="785.7637" cy="708.6563" fill="none" rx="11" ry="11" style="stroke:#222222;stroke-width:1;"/><ellipse cx="785.7637" cy="708.6563" fill="#222222" rx="6" ry="6" style="stroke:#222222;stroke-width:1;"/><line style="stroke:#181818;stroke-width:1;" x1="785.7637" x2="785.7637" y1="67.2969" y2="87.2969"/><polygon fill="#181818" points="781.7637,77.2969,785.7637,87.2969,789.7637,77.2969,785.7637,81.2969" style="stroke:#181818;stroke-width:1;"/><line style="stroke:#181818;stroke-width:1;" x1="785.7637" x2="785.7637" y1="121.2656" y2="141.2656"/><polygon fill="#181818" points="781.7637,131.2656,785.7637,141.2656,789.7637,131.2656,785.7637,135.2656" style="stroke:#181818;stroke-width:1;"/><line style="stroke:#181818;stroke-width:1;" x1="114.624" x2="114.624" y1="398.9766" y2="431.7813"/><polygon fill="#181818" points="110.624,421.7813,114.624,431.7813,118.624,421.7813,114.624,425.7813" style="stroke:#181818;stroke-width:1;"/><line style="stroke:#181818;stroke-width:1;" x1="114.624" x2="114.624" y1="465.75" y2="500.75"/><polygon fill="#181818" points="110.624,490.75,114.624,500.75,118.624,490.75,114.624,494.75" style="stroke:#181818;stroke-width:1;"/><line style="stroke:#181818;stroke-width:1;" x1="114.624" x2="114.624" y1="534.7188" y2="569.7188"/><polygon fill="#181818" points="110.624,559.7188,114.624,569.7188,118.624,559.7188,114.624,563.7188" style="stroke:#181818;stroke-width:1;"/><line style="stroke:#181818;stroke-width:1;" x1="378.9814" x2="378.9814" y1="386.1719" y2="418.9766"/><polygon fill="#181818" points="374.9814,408.9766,378.9814,418.9766,382.9814,408.9766,378.9814,412.9766" style="stroke:#181818;stroke-width:1;"/><line style="stroke:#181818;stroke-width:1;" x1="378.9814" x2="378.9814" y1="452.9453" y2="487.9453"/><polygon fill="#181818" points="374.9814,477.9453,378.9814,487.9453,382.9814,477.9453,378.9814,481.9453" style="stroke:#181818;stroke-width:1;"/><line style="stroke:#181818;stroke-width:1;" x1="378.9814" x2="378.9814" y1="521.9141" y2="556.9141"/><polygon fill="#181818" points="374.9814,546.9141,378.9814,556.9141,382.9814,546.9141,378.9814,550.9141" style="stroke:#181818;stroke-width:1;"/><line style="stroke:#181818;stroke-width:1;" x1="695.7373" x2="695.7373" y1="386.1719" y2="418.9766"/><polygon fill="#181818" points="691.7373,408.9766,695.7373,418.9766,699.7373,408.9766,695.7373,412.9766" style="stroke:#181818;stroke-width:1;"/><line style="stroke:#181818;stroke-width:1;" x1="695.7373" x2="695.7373" y1="452.9453" y2="487.9453"/><polygon fill="#181818" points="691.7373,477.9453,695.7373,487.9453,699.7373,477.9453,695.7373,481.9453" style="stroke:#181818;stroke-width:1;"/><line style="stroke:#181818;stroke-width:1;" x1="695.7373" x2="695.7373" y1="521.9141" y2="556.9141"/><polygon fill="#181818" points="691.7373,546.9141,695.7373,556.9141,699.7373,546.9141,695.7373,550.9141" style="stroke:#181818;stroke-width:1;"/><line style="stroke:#181818;stroke-width:1;" x1="695.7373" x2="695.7373" y1="590.8828" y2="623.6875"/><polygon fill="#181818" points="691.7373,613.6875,695.7373,623.6875,699.7373,613.6875,695.7373,617.6875" style="stroke:#181818;stroke-width:1;"/><line style="stroke:#181818;stroke-width:1;" x1="925.2734" x2="925.2734" y1="496.4141" y2="531.4141"/><polygon fill="#181818" points="921.2734,521.4141,925.2734,531.4141,929.2734,521.4141,925.2734,525.4141" style="stroke:#181818;stroke-width:1;"/><line style="stroke:#181818;stroke-width:1;" x1="114.624" x2="114.624" y1="332.2031" y2="365.0078"/><polygon fill="#181818" points="110.624,355.0078,114.624,365.0078,118.624,355.0078,114.624,359.0078" style="stroke:#181818;stroke-width:1;"/><line style="stroke:#181818;stroke-width:1;" x1="114.624" x2="114.624" y1="603.6875" y2="677.6563"/><polygon fill="#181818" points="110.624,667.6563,114.624,677.6563,118.624,667.6563,114.624,671.6563" style="stroke:#181818;stroke-width:1;"/><line style="stroke:#181818;stroke-width:1;" x1="378.9814" x2="378.9814" y1="332.2031" y2="352.2031"/><polygon fill="#181818" points="374.9814,342.2031,378.9814,352.2031,382.9814,342.2031,378.9814,346.2031" style="stroke:#181818;stroke-width:1;"/><line style="stroke:#181818;stroke-width:1;" x1="378.9814" x2="378.9814" y1="590.8828" y2="677.6563"/><polygon fill="#181818" points="374.9814,667.6563,378.9814,677.6563,382.9814,667.6563,378.9814,671.6563" style="stroke:#181818;stroke-width:1;"/><line style="stroke:#181818;stroke-width:1;" x1="695.7373" x2="695.7373" y1="332.2031" y2="352.2031"/><polygon fill="#181818" points="691.7373,342.2031,695.7373,352.2031,699.7373,342.2031,695.7373,346.2031" style="stroke:#181818;stroke-width:1;"/><line style="stroke:#181818;stroke-width:1;" x1="695.7373" x2="695.7373" y1="657.6563" y2="677.6563"/><polygon fill="#181818" points="691.7373,667.6563,695.7373,677.6563,699.7373,667.6563,695.7373,671.6563" style="stroke:#181818;stroke-width:1;"/><line style="stroke:#181818;stroke-width:1;" x1="155.3513" x2="336.4817" y1="320.2031" y2="320.2031"/><polygon fill="#181818" points="326.4817,316.2031,336.4817,320.2031,326.4817,324.2031,330.4817,320.2031" style="stroke:#181818;stroke-width:1;"/><line style="stroke:#181818;stroke-width:1;" x1="421.4812" x2="652.0962" y1="320.2031" y2="320.2031"/><polygon fill="#181818" points="642.0962,316.2031,652.0962,320.2031,642.0962,324.2031,646.0962,320.2031" style="stroke:#181818;stroke-width:1;"/><line style="stroke:#181818;stroke-width:1;" x1="494.8936" x2="494.8936" y1="263.2031" y2="283.2031"/><line style="stroke:#181818;stroke-width:1;" x1="494.8936" x2="114.624" y1="283.2031" y2="283.2031"/><line style="stroke:#181818;stroke-width:1;" x1="114.624" x2="114.624" y1="283.2031" y2="308.2031"/><polygon fill="#181818" points="110.624,298.2031,114.624,308.2031,118.624,298.2031,114.624,302.2031" style="stroke:#181818;stroke-width:1;"/><line style="stroke:#181818;stroke-width:1;" x1="739.3784" x2="925.2734" y1="320.2031" y2="320.2031"/><line style="stroke:#181818;stroke-width:1;" x1="925.2734" x2="925.2734" y1="320.2031" y2="462.4453"/><polygon fill="#181818" points="921.2734,452.4453,925.2734,462.4453,929.2734,452.4453,925.2734,456.4453" style="stroke:#181818;stroke-width:1;"/><line style="stroke:#181818;stroke-width:1;" x1="114.624" x2="695.7373" y1="677.6563" y2="677.6563"/><line style="stroke:#181818;stroke-width:1;" x1="1066.6338" x2="1066.6338" y1="263.2031" y2="283.2031"/><polygon fill="#181818" points="1062.6338,273.2031,1066.6338,283.2031,1070.6338,273.2031,1066.6338,277.2031" style="stroke:#181818;stroke-width:1;"/><line style="stroke:#181818;stroke-width:1;" x1="736.8938" x2="494.8936" y1="207.2344" y2="207.2344"/><line style="stroke:#181818;stroke-width:1;" x1="494.8936" x2="494.8936" y1="207.2344" y2="229.2344"/><polygon fill="#181818" points="490.8936,219.2344,494.8936,229.2344,498.8936,219.2344,494.8936,223.2344" style="stroke:#181818;stroke-width:1;"/><line style="stroke:#181818;stroke-width:1;" x1="834.6335" x2="1066.6338" y1="207.2344" y2="207.2344"/><line style="stroke:#181818;stroke-width:1;" x1="1066.6338" x2="1066.6338" y1="207.2344" y2="229.2344"/><polygon fill="#181818" points="1062.6338,219.2344,1066.6338,229.2344,1070.6338,219.2344,1066.6338,223.2344" style="stroke:#181818;stroke-width:1;"/><line style="stroke:#181818;stroke-width:1;" x1="494.8936" x2="494.8936" y1="677.6563" y2="682.6563"/><line style="stroke:#181818;stroke-width:1;" x1="494.8936" x2="785.7637" y1="682.6563" y2="682.6563"/><line style="stroke:#181818;stroke-width:1;" x1="785.7637" x2="785.7637" y1="682.6563" y2="697.6563"/><polygon fill="#181818" points="781.7637,687.6563,785.7637,697.6563,789.7637,687.6563,785.7637,691.6563" style="stroke:#181818;stroke-width:1;"/><line style="stroke:#181818;stroke-width:1;" x1="785.7637" x2="785.7637" y1="175.2344" y2="195.2344"/><polygon fill="#181818" points="781.7637,185.2344,785.7637,195.2344,789.7637,185.2344,785.7637,189.2344" style="stroke:#181818;stroke-width:1;"/><!--SRC=[VLC_Qzmm5D_zATvu1nTQo9ORIak73ca8fPHsb6t54h5b8-bQRYmtt90fP2Wb578vGk5AI9jCjOOE2laU-YPvadB91VVYmNwMtllzUK_IN9SKNXF5qfh873vm-eMB0ZP2jBBHUrUNT2CbYkRz956QI9rixHGtlvtvmI6tVx7e-f0xytK4pAyUXmNN_XFmB5_239EjZtQMGSK5WuPnkn0W7e4C4xu7lTsunPoPDr0wCttH1yseWDwOgdu2-4GWP307YFMPSD3INdRGVAf7tBOdy397tYvIGDjsxTaOTvmvHE7xTk79fyk5uLE95HMwbfsKt9aBAB4ZK-n8xTgP3cg_OzNcSzHfJyOhDMymSI82xW6a_cSKqezGEXTq0BiSNw-8xCSYMYgwzFKs2BWprf51i3qAUyM2K4eHrhTeda76CAC1WPzpqRN8m_22Pj3E_4BX4M4bzRqzH_Wm-4db-Uj8M3bpbgspLn6SbUS45jkZHiYe1qXPqJAuRPWz5VZ6BlF_6wPqZU7KjNC11UEF7MHsXauHTKNL3hDNJwcEWCgPFx3lbGgCsul6T-EOT_9GhMT6pKSS2jV-zDJsTEsK9Sc9n27WLHg0jxsC6raNaYe5AP7gmVqQ6BmUt_Zz1NWWKxfkOgt8-LxY4Q0dwhlRyyakHf2XI7_ChYSust0CcbWVQcET3sy1]--></g></svg>