<svg xmlns="http://www.w3.org/2000/svg" xmlns:xlink="http://www.w3.org/1999/xlink" contentStyleType="text/css" data-diagram-type="ACTIVITY" height="542px" preserveAspectRatio="none" style="width:752px;height:542px;background:#FFFFFF;" version="1.1" viewBox="0 0 752 542" width="752px" zoomAndPan="magnify"><title>Mentor Matching - View Mentors List</title><defs/><g><g class="title" data-source-line="1"><text fill="#000000" font-family="sans-serif" font-size="14" font-weight="bold" lengthAdjust="spacing" textLength="291.6621" x="228.7344" y="32.9951">Mentor Matching - View Mentors List</text></g><ellipse cx="488.3916" cy="57.2969" fill="#222222" rx="10" ry="10" style="stroke:#222222;stroke-width:1;"/><rect fill="#F1F1F1" height="33.9688" rx="12.5" ry="12.5" style="stroke:#181818;stroke-width:0.5;" width="214.0918" x="381.3457" y="87.2969"/><text fill="#000000" font-family="sans-serif" font-size="12" lengthAdjust="spacing" textLength="194.0918" x="391.3457" y="108.4355">Mentee &#273;i&#7873;u h&#432;&#7899;ng &#273;&#7871;n /mentor</text><rect fill="#F1F1F1" height="33.9688" rx="12.5" ry="12.5" style="stroke:#181818;stroke-width:0.5;" width="185.1582" x="395.8125" y="141.2656"/><text fill="#000000" font-family="sans-serif" font-size="12" lengthAdjust="spacing" textLength="165.1582" x="405.8125" y="162.4043">X&#225;c minh phi&#234;n ng&#432;&#7901;i d&#249;ng</text><polygon fill="#F1F1F1" points="451.5217,195.2344,525.2615,195.2344,537.2615,207.2344,525.2615,219.2344,451.5217,219.2344,439.5217,207.2344,451.5217,195.2344" style="stroke:#181818;stroke-width:0.5;"/><text fill="#000000" font-family="sans-serif" font-size="11" lengthAdjust="spacing" textLength="73.7397" x="451.5217" y="211.0425">Phi&#234;n h&#7907;p l&#7879;?</text><text fill="#000000" font-family="sans-serif" font-size="11" lengthAdjust="spacing" textLength="19.0083" x="420.5134" y="204.6401">yes</text><text fill="#000000" font-family="sans-serif" font-size="11" lengthAdjust="spacing" textLength="13.7017" x="537.2615" y="204.6401">no</text><rect fill="#F1F1F1" height="33.9688" rx="12.5" ry="12.5" style="stroke:#181818;stroke-width:0.5;" width="164.9785" x="216.0918" y="229.2344"/><text fill="#000000" font-family="sans-serif" font-size="12" lengthAdjust="spacing" textLength="144.9785" x="226.0918" y="250.373">Ki&#7875;m tra k&#7871;t n&#7889;i hi&#7879;n t&#7841;i</text><polygon fill="#F1F1F1" points="213.4814,283.2031,383.6807,283.2031,395.6807,295.2031,383.6807,307.2031,213.4814,307.2031,201.4814,295.2031,213.4814,283.2031" style="stroke:#181818;stroke-width:0.5;"/><text fill="#000000" font-family="sans-serif" font-size="11" lengthAdjust="spacing" textLength="170.1992" x="213.4814" y="299.0112">&#272;&#227; c&#243; k&#7871;t n&#7889;i &#273;&#432;&#7907;c ch&#7845;p nh&#7853;n?</text><text fill="#000000" font-family="sans-serif" font-size="11" lengthAdjust="spacing" textLength="19.0083" x="182.4731" y="292.6089">yes</text><text fill="#000000" font-family="sans-serif" font-size="11" lengthAdjust="spacing" textLength="13.7017" x="395.6807" y="292.6089">no</text><rect fill="#F1F1F1" height="33.9688" rx="12.5" ry="12.5" style="stroke:#181818;stroke-width:0.5;" width="193.2734" x="54.6055" y="317.2031"/><text fill="#000000" font-family="sans-serif" font-size="12" lengthAdjust="spacing" textLength="173.2734" x="64.6055" y="338.3418">L&#7845;y chi ti&#7871;t mentor &#273;&#432;&#7907;c g&#225;n</text><rect fill="#F1F1F1" height="33.9688" rx="12.5" ry="12.5" style="stroke:#181818;stroke-width:0.5;" width="280.4844" x="11" y="371.1719"/><text fill="#000000" font-family="sans-serif" font-size="12" lengthAdjust="spacing" textLength="260.4844" x="21" y="392.3105">Hi&#7875;n th&#7883; trang MentorWall v&#7899;i mentor ch&#237;nh</text><rect fill="#F1F1F1" height="33.9688" rx="12.5" ry="12.5" style="stroke:#181818;stroke-width:0.5;" width="192.5762" x="349.6318" y="317.2031"/><text fill="#000000" font-family="sans-serif" font-size="12" lengthAdjust="spacing" textLength="172.5762" x="359.6318" y="338.3418">L&#7845;y danh s&#225;ch t&#7845;t c&#7843; mentor</text><rect fill="#F1F1F1" height="33.9688" rx="12.5" ry="12.5" style="stroke:#181818;stroke-width:0.5;" width="268.8711" x="311.4844" y="371.1719"/><text fill="#000000" font-family="sans-serif" font-size="12" lengthAdjust="spacing" textLength="248.8711" x="321.4844" y="392.3105">&#272;&#7871;m s&#7889; mentee hi&#7879;n t&#7841;i cho t&#7915;ng mentor</text><rect fill="#F1F1F1" height="33.9688" rx="12.5" ry="12.5" style="stroke:#181818;stroke-width:0.5;" width="206.8438" x="342.498" y="425.1406"/><text fill="#000000" font-family="sans-serif" font-size="12" lengthAdjust="spacing" textLength="186.8438" x="352.498" y="446.2793">Hi&#7875;n th&#7883; danh s&#225;ch MentorCard</text><polygon fill="#F1F1F1" points="298.5811,465.1094,310.5811,477.1094,298.5811,489.1094,286.5811,477.1094,298.5811,465.1094" style="stroke:#181818;stroke-width:0.5;"/><rect fill="#F1F1F1" height="33.9688" rx="12.5" ry="12.5" style="stroke:#181818;stroke-width:0.5;" width="135.6934" x="605.4375" y="229.2344"/><text fill="#000000" font-family="sans-serif" font-size="12" lengthAdjust="spacing" textLength="115.6934" x="615.4375" y="250.373">Y&#234;u c&#7847;u &#273;&#259;ng nh&#7853;p</text><ellipse cx="673.2842" cy="294.2031" fill="none" rx="11" ry="11" style="stroke:#222222;stroke-width:1;"/><ellipse cx="673.2842" cy="294.2031" fill="#222222" rx="6" ry="6" style="stroke:#222222;stroke-width:1;"/><ellipse cx="488.3916" cy="520.1094" fill="none" rx="11" ry="11" style="stroke:#222222;stroke-width:1;"/><ellipse cx="488.3916" cy="520.1094" fill="#222222" rx="6" ry="6" style="stroke:#222222;stroke-width:1;"/><line style="stroke:#181818;stroke-width:1;" x1="488.3916" x2="488.3916" y1="67.2969" y2="87.2969"/><polygon fill="#181818" points="484.3916,77.2969,488.3916,87.2969,492.3916,77.2969,488.3916,81.2969" style="stroke:#181818;stroke-width:1;"/><line style="stroke:#181818;stroke-width:1;" x1="488.3916" x2="488.3916" y1="121.2656" y2="141.2656"/><polygon fill="#181818" points="484.3916,131.2656,488.3916,141.2656,492.3916,131.2656,488.3916,135.2656" style="stroke:#181818;stroke-width:1;"/><line style="stroke:#181818;stroke-width:1;" x1="151.2422" x2="151.2422" y1="351.1719" y2="371.1719"/><polygon fill="#181818" points="147.2422,361.1719,151.2422,371.1719,155.2422,361.1719,151.2422,365.1719" style="stroke:#181818;stroke-width:1;"/><line style="stroke:#181818;stroke-width:1;" x1="445.9199" x2="445.9199" y1="351.1719" y2="371.1719"/><polygon fill="#181818" points="441.9199,361.1719,445.9199,371.1719,449.9199,361.1719,445.9199,365.1719" style="stroke:#181818;stroke-width:1;"/><line style="stroke:#181818;stroke-width:1;" x1="445.9199" x2="445.9199" y1="405.1406" y2="425.1406"/><polygon fill="#181818" points="441.9199,415.1406,445.9199,425.1406,449.9199,415.1406,445.9199,419.1406" style="stroke:#181818;stroke-width:1;"/><line style="stroke:#181818;stroke-width:1;" x1="201.4814" x2="151.2422" y1="295.2031" y2="295.2031"/><line style="stroke:#181818;stroke-width:1;" x1="151.2422" x2="151.2422" y1="295.2031" y2="317.2031"/><polygon fill="#181818" points="147.2422,307.2031,151.2422,317.2031,155.2422,307.2031,151.2422,311.2031" style="stroke:#181818;stroke-width:1;"/><line style="stroke:#181818;stroke-width:1;" x1="395.6807" x2="445.9199" y1="295.2031" y2="295.2031"/><line style="stroke:#181818;stroke-width:1;" x1="445.9199" x2="445.9199" y1="295.2031" y2="317.2031"/><polygon fill="#181818" points="441.9199,307.2031,445.9199,317.2031,449.9199,307.2031,445.9199,311.2031" style="stroke:#181818;stroke-width:1;"/><line style="stroke:#181818;stroke-width:1;" x1="151.2422" x2="151.2422" y1="405.1406" y2="477.1094"/><line style="stroke:#181818;stroke-width:1;" x1="151.2422" x2="286.5811" y1="477.1094" y2="477.1094"/><polygon fill="#181818" points="276.5811,473.1094,286.5811,477.1094,276.5811,481.1094,280.5811,477.1094" style="stroke:#181818;stroke-width:1;"/><line style="stroke:#181818;stroke-width:1;" x1="445.9199" x2="445.9199" y1="459.1094" y2="477.1094"/><line style="stroke:#181818;stroke-width:1;" x1="445.9199" x2="310.5811" y1="477.1094" y2="477.1094"/><polygon fill="#181818" points="320.5811,473.1094,310.5811,477.1094,320.5811,481.1094,316.5811,477.1094" style="stroke:#181818;stroke-width:1;"/><line style="stroke:#181818;stroke-width:1;" x1="298.5811" x2="298.5811" y1="263.2031" y2="283.2031"/><polygon fill="#181818" points="294.5811,273.2031,298.5811,283.2031,302.5811,273.2031,298.5811,277.2031" style="stroke:#181818;stroke-width:1;"/><line style="stroke:#181818;stroke-width:1;" x1="673.2842" x2="673.2842" y1="263.2031" y2="283.2031"/><polygon fill="#181818" points="669.2842,273.2031,673.2842,283.2031,677.2842,273.2031,673.2842,277.2031" style="stroke:#181818;stroke-width:1;"/><line style="stroke:#181818;stroke-width:1;" x1="439.5217" x2="298.5811" y1="207.2344" y2="207.2344"/><line style="stroke:#181818;stroke-width:1;" x1="298.5811" x2="298.5811" y1="207.2344" y2="229.2344"/><polygon fill="#181818" points="294.5811,219.2344,298.5811,229.2344,302.5811,219.2344,298.5811,223.2344" style="stroke:#181818;stroke-width:1;"/><line style="stroke:#181818;stroke-width:1;" x1="537.2615" x2="673.2842" y1="207.2344" y2="207.2344"/><line style="stroke:#181818;stroke-width:1;" x1="673.2842" x2="673.2842" y1="207.2344" y2="229.2344"/><polygon fill="#181818" points="669.2842,219.2344,673.2842,229.2344,677.2842,219.2344,673.2842,223.2344" style="stroke:#181818;stroke-width:1;"/><line style="stroke:#181818;stroke-width:1;" x1="298.5811" x2="298.5811" y1="489.1094" y2="494.1094"/><line style="stroke:#181818;stroke-width:1;" x1="298.5811" x2="488.3916" y1="494.1094" y2="494.1094"/><line style="stroke:#181818;stroke-width:1;" x1="488.3916" x2="488.3916" y1="494.1094" y2="509.1094"/><polygon fill="#181818" points="484.3916,499.1094,488.3916,509.1094,492.3916,499.1094,488.3916,503.1094" style="stroke:#181818;stroke-width:1;"/><line style="stroke:#181818;stroke-width:1;" x1="488.3916" x2="488.3916" y1="175.2344" y2="195.2344"/><polygon fill="#181818" points="484.3916,185.2344,488.3916,195.2344,492.3916,185.2344,488.3916,189.2344" style="stroke:#181818;stroke-width:1;"/><!--SRC=[PL6zJiCm4Dxz53Us0s9F1WOM98h4nCyO9MviaLwYs0LrH1qwi3GpOgYY2gce4X8JoS3WYFVmct1EMjggMMoTlx_xegLEE5nnr6aELu4EXSGOJk16ygVDMC50AisOqa6kcUU6d4DJI5i_Zq7yVjhwbJXDOQiVXDDHI_APTsSM8Oma2iY4D2i4Z1tsJK9alZ7scHn2xxfx4hOkCqXiFJlhWnOSeJVXgi-0Fk-IdAOZq7a03-IX0MrTI10qdY5eMosatoATO3Ct9OJcwm3Q5Cwv324KjbfcW7IiyTYgjHiGP4982Lgs6jr6Ev7OBD3VuIzSFCf1ExouaDH5Lznja2JmIEt8hKGep1f5n-M9uj33zCWv2gWoHUK9jzjIGsYh4hQr_eEREOKRWQ85sqVw9_kDa5TAj_g3uXnn3oBl-NMvpuCyscJ4I0xPOLBltgp6BjFxc2fffgJVrfbr5ANJZ7KyT_q3]--></g></svg>